<?xml version="1.0" encoding="utf-8" standalone="no"?>
<!DOCTYPE svg PUBLIC "-//W3C//DTD SVG 1.1//EN"
  "http://www.w3.org/Graphics/SVG/1.1/DTD/svg11.dtd">
<svg height="700.167539pt" version="1.1" viewBox="0 0 726.473437 700.167539" width="726.473437pt" xmlns="http://www.w3.org/2000/svg" xmlns:xlink="http://www.w3.org/1999/xlink">
 <metadata>
  <rdf:RDF xmlns:cc="http://creativecommons.org/ns#" xmlns:dc="http://purl.org/dc/elements/1.1/" xmlns:rdf="http://www.w3.org/1999/02/22-rdf-syntax-ns#">
   <cc:Work>
    <dc:type rdf:resource="http://purl.org/dc/dcmitype/StillImage"/>
    <dc:date>2023-06-19T14:22:21.825486</dc:date>
    <dc:format>image/svg+xml</dc:format>
    <dc:creator>
     <cc:Agent>
      <dc:title>Matplotlib v3.4.3, https://matplotlib.org/</dc:title>
     </cc:Agent>
    </dc:creator>
   </cc:Work>
  </rdf:RDF>
 </metadata>
 <defs>
  <style type="text/css">*{stroke-linecap:butt;stroke-linejoin:round;}</style>
 </defs>
 <g id="figure_1">
  <g id="patch_1">
   <path d="M -0 700.167539 
L 726.473437 700.167539 
L 726.473437 0 
L -0 0 
z
" style="fill:#ffffff;"/>
  </g>
  <g id="axes_1">
   <g id="patch_2">
    <path d="M 86.360938 626.881992 
L 700.160938 626.881992 
L 700.160938 17.041992 
L 86.360938 17.041992 
z
" style="fill:#ffffff;"/>
   </g>
   <g id="matplotlib.axis_1">
    <g id="xtick_1">
     <g id="line2d_1">
      <path clip-path="url(#p4ba8f09ec8)" d="M 209.120938 626.881992 
L 209.120938 17.041992 
" style="fill:none;stroke:#cccccc;stroke-linecap:round;"/>
     </g>
     <g id="text_1">
      <!-- 0.2 -->
      <g style="fill:#262626;" transform="translate(190.008438 656.065977)scale(0.275 -0.275)">
       <defs>
        <path d="M 266 2259 
Q 266 3072 433 3567 
Q 600 4063 929 4331 
Q 1259 4600 1759 4600 
Q 2128 4600 2406 4451 
Q 2684 4303 2865 4023 
Q 3047 3744 3150 3342 
Q 3253 2941 3253 2259 
Q 3253 1453 3087 958 
Q 2922 463 2592 192 
Q 2263 -78 1759 -78 
Q 1097 -78 719 397 
Q 266 969 266 2259 
z
M 844 2259 
Q 844 1131 1108 757 
Q 1372 384 1759 384 
Q 2147 384 2411 759 
Q 2675 1134 2675 2259 
Q 2675 3391 2411 3762 
Q 2147 4134 1753 4134 
Q 1366 4134 1134 3806 
Q 844 3388 844 2259 
z
" id="ArialMT-30" transform="scale(0.015625)"/>
        <path d="M 581 0 
L 581 641 
L 1222 641 
L 1222 0 
L 581 0 
z
" id="ArialMT-2e" transform="scale(0.015625)"/>
        <path d="M 3222 541 
L 3222 0 
L 194 0 
Q 188 203 259 391 
Q 375 700 629 1000 
Q 884 1300 1366 1694 
Q 2113 2306 2375 2664 
Q 2638 3022 2638 3341 
Q 2638 3675 2398 3904 
Q 2159 4134 1775 4134 
Q 1369 4134 1125 3890 
Q 881 3647 878 3216 
L 300 3275 
Q 359 3922 746 4261 
Q 1134 4600 1788 4600 
Q 2447 4600 2831 4234 
Q 3216 3869 3216 3328 
Q 3216 3053 3103 2787 
Q 2991 2522 2730 2228 
Q 2469 1934 1863 1422 
Q 1356 997 1212 845 
Q 1069 694 975 541 
L 3222 541 
z
" id="ArialMT-32" transform="scale(0.015625)"/>
       </defs>
       <use xlink:href="#ArialMT-30"/>
       <use x="55.615234" xlink:href="#ArialMT-2e"/>
       <use x="83.398438" xlink:href="#ArialMT-32"/>
      </g>
     </g>
    </g>
    <g id="xtick_2">
     <g id="line2d_2">
      <path clip-path="url(#p4ba8f09ec8)" d="M 331.880938 626.881992 
L 331.880938 17.041992 
" style="fill:none;stroke:#cccccc;stroke-linecap:round;"/>
     </g>
     <g id="text_2">
      <!-- 0.4 -->
      <g style="fill:#262626;" transform="translate(312.768438 656.065977)scale(0.275 -0.275)">
       <defs>
        <path d="M 2069 0 
L 2069 1097 
L 81 1097 
L 81 1613 
L 2172 4581 
L 2631 4581 
L 2631 1613 
L 3250 1613 
L 3250 1097 
L 2631 1097 
L 2631 0 
L 2069 0 
z
M 2069 1613 
L 2069 3678 
L 634 1613 
L 2069 1613 
z
" id="ArialMT-34" transform="scale(0.015625)"/>
       </defs>
       <use xlink:href="#ArialMT-30"/>
       <use x="55.615234" xlink:href="#ArialMT-2e"/>
       <use x="83.398438" xlink:href="#ArialMT-34"/>
      </g>
     </g>
    </g>
    <g id="xtick_3">
     <g id="line2d_3">
      <path clip-path="url(#p4ba8f09ec8)" d="M 454.640938 626.881992 
L 454.640938 17.041992 
" style="fill:none;stroke:#cccccc;stroke-linecap:round;"/>
     </g>
     <g id="text_3">
      <!-- 0.6 -->
      <g style="fill:#262626;" transform="translate(435.528438 656.065977)scale(0.275 -0.275)">
       <defs>
        <path d="M 3184 3459 
L 2625 3416 
Q 2550 3747 2413 3897 
Q 2184 4138 1850 4138 
Q 1581 4138 1378 3988 
Q 1113 3794 959 3422 
Q 806 3050 800 2363 
Q 1003 2672 1297 2822 
Q 1591 2972 1913 2972 
Q 2475 2972 2870 2558 
Q 3266 2144 3266 1488 
Q 3266 1056 3080 686 
Q 2894 316 2569 119 
Q 2244 -78 1831 -78 
Q 1128 -78 684 439 
Q 241 956 241 2144 
Q 241 3472 731 4075 
Q 1159 4600 1884 4600 
Q 2425 4600 2770 4297 
Q 3116 3994 3184 3459 
z
M 888 1484 
Q 888 1194 1011 928 
Q 1134 663 1356 523 
Q 1578 384 1822 384 
Q 2178 384 2434 671 
Q 2691 959 2691 1453 
Q 2691 1928 2437 2201 
Q 2184 2475 1800 2475 
Q 1419 2475 1153 2201 
Q 888 1928 888 1484 
z
" id="ArialMT-36" transform="scale(0.015625)"/>
       </defs>
       <use xlink:href="#ArialMT-30"/>
       <use x="55.615234" xlink:href="#ArialMT-2e"/>
       <use x="83.398438" xlink:href="#ArialMT-36"/>
      </g>
     </g>
    </g>
    <g id="xtick_4">
     <g id="line2d_4">
      <path clip-path="url(#p4ba8f09ec8)" d="M 577.400938 626.881992 
L 577.400938 17.041992 
" style="fill:none;stroke:#cccccc;stroke-linecap:round;"/>
     </g>
     <g id="text_4">
      <!-- 0.8 -->
      <g style="fill:#262626;" transform="translate(558.288438 656.065977)scale(0.275 -0.275)">
       <defs>
        <path d="M 1131 2484 
Q 781 2613 612 2850 
Q 444 3088 444 3419 
Q 444 3919 803 4259 
Q 1163 4600 1759 4600 
Q 2359 4600 2725 4251 
Q 3091 3903 3091 3403 
Q 3091 3084 2923 2848 
Q 2756 2613 2416 2484 
Q 2838 2347 3058 2040 
Q 3278 1734 3278 1309 
Q 3278 722 2862 322 
Q 2447 -78 1769 -78 
Q 1091 -78 675 323 
Q 259 725 259 1325 
Q 259 1772 486 2073 
Q 713 2375 1131 2484 
z
M 1019 3438 
Q 1019 3113 1228 2906 
Q 1438 2700 1772 2700 
Q 2097 2700 2305 2904 
Q 2513 3109 2513 3406 
Q 2513 3716 2298 3927 
Q 2084 4138 1766 4138 
Q 1444 4138 1231 3931 
Q 1019 3725 1019 3438 
z
M 838 1322 
Q 838 1081 952 856 
Q 1066 631 1291 507 
Q 1516 384 1775 384 
Q 2178 384 2440 643 
Q 2703 903 2703 1303 
Q 2703 1709 2433 1975 
Q 2163 2241 1756 2241 
Q 1359 2241 1098 1978 
Q 838 1716 838 1322 
z
" id="ArialMT-38" transform="scale(0.015625)"/>
       </defs>
       <use xlink:href="#ArialMT-30"/>
       <use x="55.615234" xlink:href="#ArialMT-2e"/>
       <use x="83.398438" xlink:href="#ArialMT-38"/>
      </g>
     </g>
    </g>
    <g id="xtick_5">
     <g id="line2d_5">
      <path clip-path="url(#p4ba8f09ec8)" d="M 700.160938 626.881992 
L 700.160938 17.041992 
" style="fill:none;stroke:#cccccc;stroke-linecap:round;"/>
     </g>
     <g id="text_5">
      <!-- 1.0 -->
      <g style="fill:#262626;" transform="translate(681.048438 656.065977)scale(0.275 -0.275)">
       <defs>
        <path d="M 2384 0 
L 1822 0 
L 1822 3584 
Q 1619 3391 1289 3197 
Q 959 3003 697 2906 
L 697 3450 
Q 1169 3672 1522 3987 
Q 1875 4303 2022 4600 
L 2384 4600 
L 2384 0 
z
" id="ArialMT-31" transform="scale(0.015625)"/>
       </defs>
       <use xlink:href="#ArialMT-31"/>
       <use x="55.615234" xlink:href="#ArialMT-2e"/>
       <use x="83.398438" xlink:href="#ArialMT-30"/>
      </g>
     </g>
    </g>
    <g id="text_6">
     <!-- False Positive Rate -->
     <g style="fill:#262626;" transform="translate(264.045313 687.005039)scale(0.3 -0.3)">
      <defs>
       <path d="M 525 0 
L 525 4581 
L 3616 4581 
L 3616 4041 
L 1131 4041 
L 1131 2622 
L 3281 2622 
L 3281 2081 
L 1131 2081 
L 1131 0 
L 525 0 
z
" id="ArialMT-46" transform="scale(0.015625)"/>
       <path d="M 2588 409 
Q 2275 144 1986 34 
Q 1697 -75 1366 -75 
Q 819 -75 525 192 
Q 231 459 231 875 
Q 231 1119 342 1320 
Q 453 1522 633 1644 
Q 813 1766 1038 1828 
Q 1203 1872 1538 1913 
Q 2219 1994 2541 2106 
Q 2544 2222 2544 2253 
Q 2544 2597 2384 2738 
Q 2169 2928 1744 2928 
Q 1347 2928 1158 2789 
Q 969 2650 878 2297 
L 328 2372 
Q 403 2725 575 2942 
Q 747 3159 1072 3276 
Q 1397 3394 1825 3394 
Q 2250 3394 2515 3294 
Q 2781 3194 2906 3042 
Q 3031 2891 3081 2659 
Q 3109 2516 3109 2141 
L 3109 1391 
Q 3109 606 3145 398 
Q 3181 191 3288 0 
L 2700 0 
Q 2613 175 2588 409 
z
M 2541 1666 
Q 2234 1541 1622 1453 
Q 1275 1403 1131 1340 
Q 988 1278 909 1158 
Q 831 1038 831 891 
Q 831 666 1001 516 
Q 1172 366 1500 366 
Q 1825 366 2078 508 
Q 2331 650 2450 897 
Q 2541 1088 2541 1459 
L 2541 1666 
z
" id="ArialMT-61" transform="scale(0.015625)"/>
       <path d="M 409 0 
L 409 4581 
L 972 4581 
L 972 0 
L 409 0 
z
" id="ArialMT-6c" transform="scale(0.015625)"/>
       <path d="M 197 991 
L 753 1078 
Q 800 744 1014 566 
Q 1228 388 1613 388 
Q 2000 388 2187 545 
Q 2375 703 2375 916 
Q 2375 1106 2209 1216 
Q 2094 1291 1634 1406 
Q 1016 1563 777 1677 
Q 538 1791 414 1992 
Q 291 2194 291 2438 
Q 291 2659 392 2848 
Q 494 3038 669 3163 
Q 800 3259 1026 3326 
Q 1253 3394 1513 3394 
Q 1903 3394 2198 3281 
Q 2494 3169 2634 2976 
Q 2775 2784 2828 2463 
L 2278 2388 
Q 2241 2644 2061 2787 
Q 1881 2931 1553 2931 
Q 1166 2931 1000 2803 
Q 834 2675 834 2503 
Q 834 2394 903 2306 
Q 972 2216 1119 2156 
Q 1203 2125 1616 2013 
Q 2213 1853 2448 1751 
Q 2684 1650 2818 1456 
Q 2953 1263 2953 975 
Q 2953 694 2789 445 
Q 2625 197 2315 61 
Q 2006 -75 1616 -75 
Q 969 -75 630 194 
Q 291 463 197 991 
z
" id="ArialMT-73" transform="scale(0.015625)"/>
       <path d="M 2694 1069 
L 3275 997 
Q 3138 488 2766 206 
Q 2394 -75 1816 -75 
Q 1088 -75 661 373 
Q 234 822 234 1631 
Q 234 2469 665 2931 
Q 1097 3394 1784 3394 
Q 2450 3394 2872 2941 
Q 3294 2488 3294 1666 
Q 3294 1616 3291 1516 
L 816 1516 
Q 847 969 1125 678 
Q 1403 388 1819 388 
Q 2128 388 2347 550 
Q 2566 713 2694 1069 
z
M 847 1978 
L 2700 1978 
Q 2663 2397 2488 2606 
Q 2219 2931 1791 2931 
Q 1403 2931 1139 2672 
Q 875 2413 847 1978 
z
" id="ArialMT-65" transform="scale(0.015625)"/>
       <path id="ArialMT-20" transform="scale(0.015625)"/>
       <path d="M 494 0 
L 494 4581 
L 2222 4581 
Q 2678 4581 2919 4538 
Q 3256 4481 3484 4323 
Q 3713 4166 3852 3881 
Q 3991 3597 3991 3256 
Q 3991 2672 3619 2267 
Q 3247 1863 2275 1863 
L 1100 1863 
L 1100 0 
L 494 0 
z
M 1100 2403 
L 2284 2403 
Q 2872 2403 3119 2622 
Q 3366 2841 3366 3238 
Q 3366 3525 3220 3729 
Q 3075 3934 2838 4000 
Q 2684 4041 2272 4041 
L 1100 4041 
L 1100 2403 
z
" id="ArialMT-50" transform="scale(0.015625)"/>
       <path d="M 213 1659 
Q 213 2581 725 3025 
Q 1153 3394 1769 3394 
Q 2453 3394 2887 2945 
Q 3322 2497 3322 1706 
Q 3322 1066 3130 698 
Q 2938 331 2570 128 
Q 2203 -75 1769 -75 
Q 1072 -75 642 372 
Q 213 819 213 1659 
z
M 791 1659 
Q 791 1022 1069 705 
Q 1347 388 1769 388 
Q 2188 388 2466 706 
Q 2744 1025 2744 1678 
Q 2744 2294 2464 2611 
Q 2184 2928 1769 2928 
Q 1347 2928 1069 2612 
Q 791 2297 791 1659 
z
" id="ArialMT-6f" transform="scale(0.015625)"/>
       <path d="M 425 3934 
L 425 4581 
L 988 4581 
L 988 3934 
L 425 3934 
z
M 425 0 
L 425 3319 
L 988 3319 
L 988 0 
L 425 0 
z
" id="ArialMT-69" transform="scale(0.015625)"/>
       <path d="M 1650 503 
L 1731 6 
Q 1494 -44 1306 -44 
Q 1000 -44 831 53 
Q 663 150 594 308 
Q 525 466 525 972 
L 525 2881 
L 113 2881 
L 113 3319 
L 525 3319 
L 525 4141 
L 1084 4478 
L 1084 3319 
L 1650 3319 
L 1650 2881 
L 1084 2881 
L 1084 941 
Q 1084 700 1114 631 
Q 1144 563 1211 522 
Q 1278 481 1403 481 
Q 1497 481 1650 503 
z
" id="ArialMT-74" transform="scale(0.015625)"/>
       <path d="M 1344 0 
L 81 3319 
L 675 3319 
L 1388 1331 
Q 1503 1009 1600 663 
Q 1675 925 1809 1294 
L 2547 3319 
L 3125 3319 
L 1869 0 
L 1344 0 
z
" id="ArialMT-76" transform="scale(0.015625)"/>
       <path d="M 503 0 
L 503 4581 
L 2534 4581 
Q 3147 4581 3465 4457 
Q 3784 4334 3975 4021 
Q 4166 3709 4166 3331 
Q 4166 2844 3850 2509 
Q 3534 2175 2875 2084 
Q 3116 1969 3241 1856 
Q 3506 1613 3744 1247 
L 4541 0 
L 3778 0 
L 3172 953 
Q 2906 1366 2734 1584 
Q 2563 1803 2427 1890 
Q 2291 1978 2150 2013 
Q 2047 2034 1813 2034 
L 1109 2034 
L 1109 0 
L 503 0 
z
M 1109 2559 
L 2413 2559 
Q 2828 2559 3062 2645 
Q 3297 2731 3419 2920 
Q 3541 3109 3541 3331 
Q 3541 3656 3305 3865 
Q 3069 4075 2559 4075 
L 1109 4075 
L 1109 2559 
z
" id="ArialMT-52" transform="scale(0.015625)"/>
      </defs>
      <use xlink:href="#ArialMT-46"/>
      <use x="61.083984" xlink:href="#ArialMT-61"/>
      <use x="116.699219" xlink:href="#ArialMT-6c"/>
      <use x="138.916016" xlink:href="#ArialMT-73"/>
      <use x="188.916016" xlink:href="#ArialMT-65"/>
      <use x="244.53125" xlink:href="#ArialMT-20"/>
      <use x="272.314453" xlink:href="#ArialMT-50"/>
      <use x="339.013672" xlink:href="#ArialMT-6f"/>
      <use x="394.628906" xlink:href="#ArialMT-73"/>
      <use x="444.628906" xlink:href="#ArialMT-69"/>
      <use x="466.845703" xlink:href="#ArialMT-74"/>
      <use x="494.628906" xlink:href="#ArialMT-69"/>
      <use x="516.845703" xlink:href="#ArialMT-76"/>
      <use x="566.845703" xlink:href="#ArialMT-65"/>
      <use x="622.460938" xlink:href="#ArialMT-20"/>
      <use x="650.244141" xlink:href="#ArialMT-52"/>
      <use x="722.460938" xlink:href="#ArialMT-61"/>
      <use x="778.076172" xlink:href="#ArialMT-74"/>
      <use x="805.859375" xlink:href="#ArialMT-65"/>
     </g>
    </g>
   </g>
   <g id="matplotlib.axis_2">
    <g id="ytick_1">
     <g id="line2d_6">
      <path clip-path="url(#p4ba8f09ec8)" d="M 86.360938 626.881992 
L 700.160938 626.881992 
" style="fill:none;stroke:#cccccc;stroke-linecap:round;"/>
     </g>
     <g id="text_7">
      <!-- 0.0 -->
      <g style="fill:#262626;" transform="translate(38.635938 636.723984)scale(0.275 -0.275)">
       <use xlink:href="#ArialMT-30"/>
       <use x="55.615234" xlink:href="#ArialMT-2e"/>
       <use x="83.398438" xlink:href="#ArialMT-30"/>
      </g>
     </g>
    </g>
    <g id="ytick_2">
     <g id="line2d_7">
      <path clip-path="url(#p4ba8f09ec8)" d="M 86.360938 504.913992 
L 700.160938 504.913992 
" style="fill:none;stroke:#cccccc;stroke-linecap:round;"/>
     </g>
     <g id="text_8">
      <!-- 0.2 -->
      <g style="fill:#262626;" transform="translate(38.635938 514.755984)scale(0.275 -0.275)">
       <use xlink:href="#ArialMT-30"/>
       <use x="55.615234" xlink:href="#ArialMT-2e"/>
       <use x="83.398438" xlink:href="#ArialMT-32"/>
      </g>
     </g>
    </g>
    <g id="ytick_3">
     <g id="line2d_8">
      <path clip-path="url(#p4ba8f09ec8)" d="M 86.360938 382.945992 
L 700.160938 382.945992 
" style="fill:none;stroke:#cccccc;stroke-linecap:round;"/>
     </g>
     <g id="text_9">
      <!-- 0.4 -->
      <g style="fill:#262626;" transform="translate(38.635938 392.787984)scale(0.275 -0.275)">
       <use xlink:href="#ArialMT-30"/>
       <use x="55.615234" xlink:href="#ArialMT-2e"/>
       <use x="83.398438" xlink:href="#ArialMT-34"/>
      </g>
     </g>
    </g>
    <g id="ytick_4">
     <g id="line2d_9">
      <path clip-path="url(#p4ba8f09ec8)" d="M 86.360938 260.977992 
L 700.160938 260.977992 
" style="fill:none;stroke:#cccccc;stroke-linecap:round;"/>
     </g>
     <g id="text_10">
      <!-- 0.6 -->
      <g style="fill:#262626;" transform="translate(38.635938 270.819984)scale(0.275 -0.275)">
       <use xlink:href="#ArialMT-30"/>
       <use x="55.615234" xlink:href="#ArialMT-2e"/>
       <use x="83.398438" xlink:href="#ArialMT-36"/>
      </g>
     </g>
    </g>
    <g id="ytick_5">
     <g id="line2d_10">
      <path clip-path="url(#p4ba8f09ec8)" d="M 86.360938 139.009992 
L 700.160938 139.009992 
" style="fill:none;stroke:#cccccc;stroke-linecap:round;"/>
     </g>
     <g id="text_11">
      <!-- 0.8 -->
      <g style="fill:#262626;" transform="translate(38.635938 148.851984)scale(0.275 -0.275)">
       <use xlink:href="#ArialMT-30"/>
       <use x="55.615234" xlink:href="#ArialMT-2e"/>
       <use x="83.398438" xlink:href="#ArialMT-38"/>
      </g>
     </g>
    </g>
    <g id="ytick_6">
     <g id="line2d_11">
      <path clip-path="url(#p4ba8f09ec8)" d="M 86.360938 17.041992 
L 700.160938 17.041992 
" style="fill:none;stroke:#cccccc;stroke-linecap:round;"/>
     </g>
     <g id="text_12">
      <!-- 1.0 -->
      <g style="fill:#262626;" transform="translate(38.635938 26.883984)scale(0.275 -0.275)">
       <use xlink:href="#ArialMT-31"/>
       <use x="55.615234" xlink:href="#ArialMT-2e"/>
       <use x="83.398438" xlink:href="#ArialMT-30"/>
      </g>
     </g>
    </g>
    <g id="text_13">
     <!-- True Positive Rate -->
     <g style="fill:#262626;" transform="translate(28.673437 444.776836)rotate(-90)scale(0.3 -0.3)">
      <defs>
       <path d="M 1659 0 
L 1659 4041 
L 150 4041 
L 150 4581 
L 3781 4581 
L 3781 4041 
L 2266 4041 
L 2266 0 
L 1659 0 
z
" id="ArialMT-54" transform="scale(0.015625)"/>
       <path d="M 416 0 
L 416 3319 
L 922 3319 
L 922 2816 
Q 1116 3169 1280 3281 
Q 1444 3394 1641 3394 
Q 1925 3394 2219 3213 
L 2025 2691 
Q 1819 2813 1613 2813 
Q 1428 2813 1281 2702 
Q 1134 2591 1072 2394 
Q 978 2094 978 1738 
L 978 0 
L 416 0 
z
" id="ArialMT-72" transform="scale(0.015625)"/>
       <path d="M 2597 0 
L 2597 488 
Q 2209 -75 1544 -75 
Q 1250 -75 995 37 
Q 741 150 617 320 
Q 494 491 444 738 
Q 409 903 409 1263 
L 409 3319 
L 972 3319 
L 972 1478 
Q 972 1038 1006 884 
Q 1059 663 1231 536 
Q 1403 409 1656 409 
Q 1909 409 2131 539 
Q 2353 669 2445 892 
Q 2538 1116 2538 1541 
L 2538 3319 
L 3100 3319 
L 3100 0 
L 2597 0 
z
" id="ArialMT-75" transform="scale(0.015625)"/>
      </defs>
      <use xlink:href="#ArialMT-54"/>
      <use x="57.333984" xlink:href="#ArialMT-72"/>
      <use x="90.634766" xlink:href="#ArialMT-75"/>
      <use x="146.25" xlink:href="#ArialMT-65"/>
      <use x="201.865234" xlink:href="#ArialMT-20"/>
      <use x="229.648438" xlink:href="#ArialMT-50"/>
      <use x="296.347656" xlink:href="#ArialMT-6f"/>
      <use x="351.962891" xlink:href="#ArialMT-73"/>
      <use x="401.962891" xlink:href="#ArialMT-69"/>
      <use x="424.179688" xlink:href="#ArialMT-74"/>
      <use x="451.962891" xlink:href="#ArialMT-69"/>
      <use x="474.179688" xlink:href="#ArialMT-76"/>
      <use x="524.179688" xlink:href="#ArialMT-65"/>
      <use x="579.794922" xlink:href="#ArialMT-20"/>
      <use x="607.578125" xlink:href="#ArialMT-52"/>
      <use x="679.794922" xlink:href="#ArialMT-61"/>
      <use x="735.410156" xlink:href="#ArialMT-74"/>
      <use x="763.193359" xlink:href="#ArialMT-65"/>
     </g>
    </g>
   </g>
   <g id="PolyCollection_1">
    <path clip-path="url(#p4ba8f09ec8)" d="M 86.360938 616.331403 
L 86.360938 621.589063 
L 86.756938 581.461778 
L 87.152938 538.041578 
L 87.548938 527.987268 
L 87.944938 510.506196 
L 88.340938 495.238519 
L 88.736938 483.354876 
L 89.132938 476.855581 
L 89.528938 473.98914 
L 89.924938 470.564983 
L 90.320937 458.249449 
L 90.716938 448.311474 
L 91.112938 440.621081 
L 91.508938 437.446835 
L 91.904938 427.180554 
L 92.300938 422.441629 
L 92.696938 417.079117 
L 93.092938 412.687716 
L 93.488938 410.610028 
L 93.884938 405.83904 
L 94.280938 402.767395 
L 94.676938 398.118247 
L 95.072938 393.635907 
L 95.468938 388.70304 
L 95.864938 386.793563 
L 96.260938 385.427836 
L 96.656938 383.369225 
L 97.052938 380.81059 
L 97.448938 376.174267 
L 97.844938 370.941571 
L 98.240938 370.826144 
L 98.636938 366.160964 
L 99.032938 363.823564 
L 99.428938 362.669293 
L 99.824938 357.930448 
L 100.220938 351.992284 
L 100.616938 348.058984 
L 101.012938 343.402581 
L 101.408938 339.872555 
L 101.804938 332.311958 
L 102.200938 330.599789 
L 102.596938 325.020811 
L 102.992938 323.654923 
L 103.388938 321.051721 
L 103.784938 316.902677 
L 104.180938 313.99752 
L 104.576938 313.035628 
L 104.972938 309.848556 
L 105.368938 308.918727 
L 105.764938 305.924034 
L 106.160938 304.878777 
L 106.556938 304.570971 
L 106.952938 301.544216 
L 107.348938 298.030101 
L 107.744938 297.414489 
L 108.140938 294.024058 
L 108.536938 291.835511 
L 108.932938 287.376177 
L 109.328938 283.781263 
L 109.724938 281.956873 
L 110.120938 278.907673 
L 110.516938 277.214742 
L 110.912938 274.207705 
L 111.308938 267.595814 
L 111.704937 267.211057 
L 112.100938 265.960597 
L 112.496938 261.295417 
L 112.892938 258.015363 
L 113.288938 255.514441 
L 113.684938 253.667607 
L 114.080938 250.397493 
L 114.476938 248.165581 
L 114.872938 244.94332 
L 115.268938 239.537884 
L 115.664938 237.046101 
L 116.060938 236.257349 
L 116.456938 235.468597 
L 116.852938 234.852985 
L 117.248938 234.314325 
L 117.644938 232.720744 
L 118.040938 230.919325 
L 118.436938 227.266858 
L 118.832938 226.503756 
L 119.228938 226.426805 
L 119.624938 225.003204 
L 120.020938 224.695398 
L 120.416938 224.012935 
L 120.812938 223.656554 
L 121.208938 222.354792 
L 121.604938 218.193003 
L 122.000938 215.764865 
L 122.396938 214.210767 
L 122.792938 212.614025 
L 123.188938 210.892237 
L 123.584938 209.035784 
L 123.980938 206.727241 
L 124.376938 206.534863 
L 124.772938 205.380592 
L 125.168938 204.957359 
L 125.564938 203.225952 
L 125.960938 199.493808 
L 126.356938 198.031731 
L 126.752938 197.454595 
L 127.148938 197.291074 
L 127.544938 196.261848 
L 127.940938 196.223373 
L 128.336938 195.684713 
L 128.732938 194.790152 
L 129.128938 194.328444 
L 129.524938 192.799034 
L 129.920938 191.696064 
L 130.316937 190.336589 
L 130.712938 190.028783 
L 131.108938 188.720609 
L 131.504938 187.595195 
L 131.900937 186.104261 
L 132.296938 183.372486 
L 133.088938 182.564496 
L 133.484938 182.410593 
L 133.880938 181.641079 
L 134.276938 180.986992 
L 134.672938 180.179002 
L 135.068938 179.178633 
L 135.464938 178.909303 
L 135.860938 178.832352 
L 136.256937 177.524178 
L 137.048938 176.485334 
L 137.840938 176.331431 
L 138.236938 175.821628 
L 138.632938 174.00365 
L 139.028938 173.792034 
L 139.424937 173.599655 
L 139.820938 172.406908 
L 140.216938 172.329957 
L 140.612938 172.022151 
L 141.008938 171.502729 
L 141.404938 170.579312 
L 141.800938 170.175317 
L 142.196938 169.854686 
L 142.592938 168.674764 
L 142.988938 168.44391 
L 143.384938 167.982202 
L 143.780938 167.558969 
L 144.176938 166.260414 
L 144.572938 164.596339 
L 144.968938 163.705466 
L 145.364937 161.90304 
L 145.760938 161.556758 
L 146.156937 161.018098 
L 146.552938 160.517914 
L 146.948937 160.056205 
L 147.344938 159.709924 
L 147.740938 159.402118 
L 148.136938 159.248216 
L 148.928938 159.017361 
L 149.324938 158.632604 
L 149.720938 157.285954 
L 150.116938 156.670343 
L 150.512938 156.093207 
L 150.908938 156.016256 
L 151.304937 155.208266 
L 151.700938 155.092839 
L 152.096938 155.054363 
L 152.492938 154.938936 
L 152.888937 153.669238 
L 153.284938 151.822404 
L 153.680938 151.630025 
L 154.076938 149.898618 
L 154.472938 149.860142 
L 154.868938 149.295832 
L 155.264938 147.743978 
L 155.660938 146.512756 
L 156.056938 146.012571 
L 156.452938 145.93562 
L 157.244937 144.935251 
L 157.640938 144.704397 
L 158.036938 144.213832 
L 158.432938 142.395855 
L 158.828937 141.664816 
L 159.224938 141.395486 
L 160.016938 140.279691 
L 160.412937 140.048836 
L 160.808938 139.856458 
L 161.204938 139.173514 
L 161.600938 138.048099 
L 161.996938 137.778769 
L 162.392938 137.740294 
L 162.788938 137.394012 
L 163.184937 137.278585 
L 163.580938 136.624498 
L 163.976938 136.586022 
L 164.372938 136.470595 
L 165.164938 136.43212 
L 165.560938 136.278217 
L 165.956938 136.239741 
L 166.352937 136.201265 
L 166.748938 135.739557 
L 167.144938 134.893091 
L 167.540938 134.81614 
L 167.936937 134.27748 
L 168.332938 133.661869 
L 168.728938 132.969306 
L 169.124937 132.892354 
L 169.520938 132.699976 
L 169.916938 132.584549 
L 170.312938 132.007413 
L 170.708938 131.507229 
L 171.104938 131.276375 
L 171.500938 131.199423 
L 171.896938 130.891617 
L 172.292938 130.660763 
L 172.688938 130.199055 
L 173.084938 129.006308 
L 173.480938 128.775453 
L 173.876937 128.698502 
L 174.272938 128.544599 
L 175.064938 128.390696 
L 175.460938 128.313745 
L 175.856938 128.082891 
L 176.252938 128.044415 
L 176.648938 127.890512 
L 177.044938 127.698134 
L 177.440938 127.044046 
L 177.836938 126.890144 
L 178.232938 126.620814 
L 178.628938 126.466911 
L 179.024938 126.226438 
L 179.420938 125.004834 
L 179.816937 124.735504 
L 180.212938 124.543125 
L 180.608938 124.466174 
L 181.004938 123.504281 
L 181.400938 123.465805 
L 181.796938 123.42733 
L 182.192938 123.311903 
L 182.588938 123.081048 
L 182.984938 122.946624 
L 183.380938 121.580496 
L 183.776938 121.234214 
L 184.172938 119.92604 
L 184.568938 119.502807 
L 184.964938 118.84872 
L 185.360938 117.925303 
L 185.756937 117.848352 
L 186.152938 117.694449 
L 186.548938 117.386643 
L 186.944938 117.348168 
L 187.340938 117.194265 
L 187.736938 116.771032 
L 188.132938 116.155421 
L 188.528938 116.039993 
L 188.924937 115.809139 
L 189.320938 115.655236 
L 189.716938 115.578285 
L 190.112938 115.232004 
L 190.508938 114.847246 
L 190.904938 114.385538 
L 191.300938 114.250873 
L 191.696937 113.866116 
L 192.488938 113.250504 
L 193.676938 113.11584 
L 194.072938 112.500228 
L 194.468938 111.807665 
L 194.864938 111.192054 
L 195.260938 110.768821 
L 195.656938 110.018545 
L 196.052938 109.768453 
L 196.448937 109.422171 
L 196.844938 109.306744 
L 197.240938 108.998939 
L 197.636938 108.960463 
L 198.032938 108.691133 
L 198.428938 108.652657 
L 198.824938 108.2679 
L 199.616938 108.113997 
L 200.012938 107.613813 
L 200.408938 107.306007 
L 200.804938 105.266795 
L 201.200938 105.112892 
L 201.596938 104.458805 
L 201.992938 104.150999 
L 202.388937 104.074048 
L 203.180938 103.997096 
L 203.576938 103.689291 
L 205.160938 103.035204 
L 205.556938 102.688922 
L 205.952938 102.227214 
L 206.348938 102.188738 
L 206.744938 101.496175 
L 207.140938 100.957515 
L 207.536938 100.418855 
L 207.932938 100.38038 
L 208.328937 99.92829 
L 208.724938 99.687817 
L 209.120938 99.610865 
L 209.516938 98.995254 
L 209.912938 98.918303 
L 210.308938 98.7644 
L 210.704938 98.302691 
L 211.496938 98.148788 
L 211.892938 97.994886 
L 212.684938 97.95641 
L 213.080938 97.879458 
L 213.476938 97.764031 
L 214.268937 97.610128 
L 214.664938 97.456226 
L 215.060938 97.263847 
L 215.456938 96.840614 
L 215.852938 96.34043 
L 216.248938 96.263479 
L 216.644938 96.225003 
L 217.040938 96.148051 
L 217.436938 95.994149 
L 217.832938 95.80177 
L 218.228938 95.609392 
L 218.624938 95.26311 
L 219.020938 95.186159 
L 219.812938 95.032256 
L 220.208938 94.685975 
L 220.604938 94.416645 
L 221.000938 94.301217 
L 221.396938 93.762557 
L 221.792938 93.64713 
L 222.188938 93.416276 
L 222.584938 93.339325 
L 222.980938 93.146946 
L 223.376938 92.954568 
L 223.772938 92.800665 
L 224.168938 92.685238 
L 224.564938 92.415908 
L 224.960938 91.838772 
L 225.752938 91.800296 
L 226.148938 91.646393 
L 226.544938 91.069258 
L 226.940938 90.646025 
L 227.732938 90.338219 
L 228.128938 90.184316 
L 228.524938 90.107365 
L 228.920938 89.809178 
L 228.920938 89.203186 
L 228.920938 89.203186 
L 228.524938 89.953462 
L 228.128938 90.107365 
L 227.732938 90.184316 
L 226.940938 90.338219 
L 226.544938 90.646025 
L 226.148938 91.069258 
L 225.752938 91.646393 
L 224.960938 91.800296 
L 224.564938 91.838772 
L 224.168938 92.415908 
L 223.772938 92.685238 
L 223.376938 92.800665 
L 222.980938 92.954568 
L 222.584938 93.146946 
L 222.188938 93.339325 
L 221.792938 93.416276 
L 221.396938 93.64713 
L 221.000938 93.762557 
L 220.604938 94.301217 
L 220.208938 94.416645 
L 219.812938 94.685975 
L 219.020938 95.032256 
L 218.624938 95.186159 
L 218.228938 95.26311 
L 217.832938 95.609392 
L 217.436938 95.80177 
L 217.040938 95.994149 
L 216.644938 96.148051 
L 216.248938 96.225003 
L 215.852938 96.263479 
L 215.456938 96.34043 
L 215.060938 96.840614 
L 214.664938 97.263847 
L 214.268937 97.456226 
L 213.476938 97.610128 
L 213.080938 97.764031 
L 212.684938 97.879458 
L 211.892938 97.95641 
L 211.496938 97.994886 
L 210.704938 98.148788 
L 210.308938 98.302691 
L 209.912938 98.7644 
L 209.516938 98.918303 
L 209.120938 98.995254 
L 208.724938 99.610865 
L 208.328937 99.707055 
L 207.932938 99.995622 
L 207.536938 100.38038 
L 207.140938 100.457331 
L 206.744938 100.957515 
L 206.348938 101.496175 
L 205.952938 102.188738 
L 205.556938 102.227214 
L 205.160938 102.688922 
L 203.576938 103.035204 
L 203.180938 103.689291 
L 202.388937 103.997096 
L 201.992938 104.074048 
L 201.596938 104.150999 
L 201.200938 104.458805 
L 200.804938 105.112892 
L 200.408938 105.709265 
L 200.012938 107.575337 
L 199.616938 107.613813 
L 198.824938 108.113997 
L 198.428938 108.2679 
L 198.032938 108.652657 
L 197.636938 108.691133 
L 197.240938 108.960463 
L 196.844938 108.998939 
L 196.448937 109.306744 
L 196.052938 109.422171 
L 195.656938 109.806928 
L 195.260938 110.076258 
L 194.864938 110.768821 
L 194.468938 111.192054 
L 194.072938 111.807665 
L 193.676938 113.000412 
L 192.488938 113.135077 
L 191.696937 113.308218 
L 191.300938 114.087351 
L 190.904938 114.270111 
L 190.508938 114.385538 
L 190.112938 114.847246 
L 189.716938 115.232004 
L 189.320938 115.578285 
L 188.924937 115.655236 
L 188.528938 115.809139 
L 188.132938 116.039993 
L 187.736938 116.155421 
L 187.340938 116.771032 
L 186.944938 117.194265 
L 186.548938 117.348168 
L 186.152938 117.386643 
L 185.756937 117.694449 
L 185.360938 117.848352 
L 184.964938 117.925303 
L 184.568938 118.84872 
L 184.172938 119.502807 
L 183.776938 119.92604 
L 183.380938 121.234214 
L 182.984938 121.907539 
L 182.588938 123.004097 
L 182.192938 123.081048 
L 181.796938 123.311903 
L 181.400938 123.42733 
L 181.004938 123.465805 
L 180.608938 123.504281 
L 180.212938 124.466174 
L 179.816937 124.543125 
L 179.420938 124.735504 
L 179.024938 125.21645 
L 178.628938 126.351484 
L 178.232938 126.466911 
L 177.836938 126.620814 
L 177.440938 126.890144 
L 177.044938 127.140236 
L 176.648938 127.813561 
L 176.252938 127.890512 
L 175.856938 128.044415 
L 175.460938 128.082891 
L 175.064938 128.313745 
L 174.272938 128.390696 
L 173.876937 128.544599 
L 173.480938 128.698502 
L 173.084938 128.775453 
L 172.688938 129.006308 
L 172.292938 130.304863 
L 171.896938 130.699239 
L 171.500938 130.891617 
L 171.104938 131.199423 
L 170.708938 131.276375 
L 170.312938 131.507229 
L 169.916938 132.007413 
L 169.520938 132.584549 
L 169.124937 132.699976 
L 168.728938 132.892354 
L 168.332938 133.0174 
L 167.936937 133.854247 
L 167.540938 134.27748 
L 167.144938 134.81614 
L 166.748938 134.893091 
L 166.352937 135.739557 
L 165.956938 136.201265 
L 165.560938 136.239741 
L 165.164938 136.278217 
L 164.372938 136.43212 
L 163.976938 136.470595 
L 163.580938 136.586022 
L 163.184937 136.624498 
L 162.788938 137.278585 
L 162.392938 137.394012 
L 161.996938 137.740294 
L 161.600938 137.778769 
L 161.204938 138.22124 
L 160.808938 139.317798 
L 160.412937 139.856458 
L 160.016938 140.048836 
L 159.224938 140.279691 
L 158.828937 141.395486 
L 158.432938 141.664816 
L 158.036938 142.852273 
L 157.640938 144.512019 
L 157.244937 144.704397 
L 156.452938 144.935251 
L 156.056938 145.93562 
L 155.660938 146.012571 
L 155.264938 146.512756 
L 154.868938 148.256186 
L 154.472938 149.552337 
L 154.076938 149.860142 
L 153.680938 149.898618 
L 153.284938 151.630025 
L 152.888937 151.822404 
L 152.492938 153.669238 
L 152.096938 154.938936 
L 151.700938 155.054363 
L 151.304937 155.092839 
L 150.908938 155.208266 
L 150.512938 156.016256 
L 150.116938 156.179778 
L 149.720938 156.78577 
L 149.324938 157.439857 
L 148.928938 158.901934 
L 148.136938 159.017361 
L 147.740938 159.248216 
L 147.344938 159.402118 
L 146.948937 159.709924 
L 146.552938 160.056205 
L 146.156937 160.517914 
L 145.760938 161.018098 
L 145.364937 161.556758 
L 144.968938 162.531316 
L 144.572938 164.365485 
L 144.176938 164.923383 
L 143.780938 166.548981 
L 143.384938 167.751347 
L 142.988938 167.982202 
L 142.592938 168.44391 
L 142.196938 169.059522 
L 141.800938 170.05989 
L 141.404938 170.252269 
L 141.008938 170.800547 
L 140.612938 171.637394 
L 140.216938 172.176054 
L 139.820938 172.329957 
L 139.424937 172.406908 
L 139.028938 173.663781 
L 138.632938 173.811272 
L 138.236938 174.369169 
L 137.840938 176.023625 
L 137.048938 176.331431 
L 136.256937 176.485334 
L 135.860938 177.524178 
L 135.464938 178.832352 
L 135.068938 178.909303 
L 134.672938 179.178633 
L 134.276938 180.179002 
L 133.880938 180.986992 
L 133.484938 181.794981 
L 133.088938 182.487544 
L 132.296938 182.564496 
L 131.900937 183.372486 
L 131.504938 186.287021 
L 131.108938 187.874144 
L 130.712938 188.720609 
L 130.316937 190.028783 
L 129.920938 190.759822 
L 129.524938 192.29885 
L 129.128938 193.116459 
L 128.732938 194.530441 
L 128.336938 194.799771 
L 127.940938 195.684713 
L 127.544938 196.223373 
L 127.148938 196.406132 
L 126.752938 197.41612 
L 126.356938 197.454595 
L 125.960938 198.031731 
L 125.564938 199.782376 
L 125.168938 204.110893 
L 124.772938 204.957359 
L 124.376938 205.380592 
L 123.980938 206.534863 
L 123.584938 206.727241 
L 123.188938 209.439779 
L 122.792938 211.276994 
L 122.396938 212.93145 
L 122.000938 214.999305 
L 121.604938 216.798258 
L 121.208938 220.237666 
L 120.812938 222.61771 
L 120.416938 223.675792 
L 120.020938 224.118262 
L 119.624938 224.695398 
L 119.228938 225.003204 
L 118.832938 226.426805 
L 118.436938 226.657338 
L 118.040938 228.004309 
L 117.644938 231.780425 
L 117.248938 233.265862 
L 116.852938 234.622131 
L 116.456938 234.852985 
L 116.060938 235.635325 
L 115.664938 236.661344 
L 115.268938 237.768963 
L 114.872938 242.134193 
L 114.476938 247.819299 
L 114.080938 248.723479 
L 113.684938 251.512968 
L 113.288938 253.667607 
L 112.892938 255.552917 
L 112.496938 258.428976 
L 112.100938 262.805588 
L 111.704937 266.364592 
L 111.308938 267.249533 
L 110.912938 270.37865 
L 110.516938 276.281706 
L 110.120938 277.445596 
L 109.724938 279.177003 
L 109.328938 282.793559 
L 108.932938 285.717777 
L 108.536938 288.449649 
L 108.140938 292.335696 
L 107.744938 295.683082 
L 107.348938 297.414489 
L 106.952938 299.017644 
L 106.556938 303.108894 
L 106.160938 304.570971 
L 105.764938 305.340486 
L 105.368938 306.071524 
L 104.972938 309.143168 
L 104.576938 310.303852 
L 104.180938 313.035628 
L 103.784938 315.190267 
L 103.388938 319.306848 
L 102.992938 322.038944 
L 102.596938 324.033268 
L 102.200938 327.53075 
L 101.804938 332.081104 
L 101.408938 336.139931 
L 101.012938 341.776983 
L 100.616938 345.889074 
L 100.220938 349.356698 
L 99.824938 355.422954 
L 99.428938 361.284168 
L 99.032938 362.669293 
L 98.636938 364.410319 
L 98.240938 366.170583 
L 97.844938 370.826144 
L 97.448938 373.692464 
L 97.052938 378.395759 
L 96.656938 382.445808 
L 96.260938 383.79887 
L 95.864938 386.63966 
L 95.468938 387.519672 
L 95.072938 391.92999 
L 94.676938 396.392932 
L 94.280938 400.69612 
L 93.884938 404.617436 
L 93.488938 406.570078 
L 93.092938 411.533445 
L 92.696938 414.163139 
L 92.300938 421.107323 
L 91.904938 423.62123 
L 91.508938 431.406149 
L 91.112938 438.30292 
L 90.716938 444.834051 
L 90.320937 454.978132 
L 89.924938 466.95524 
L 89.528938 472.421255 
L 89.132938 475.345409 
L 88.736938 480.622887 
L 88.340938 492.315602 
L 87.944938 504.34375 
L 87.548938 524.050038 
L 87.152938 537.31054 
L 86.756938 572.848706 
L 86.360938 616.331403 
z
" style="fill:#0173b2;fill-opacity:0.2;stroke:#0173b2;stroke-opacity:0.2;"/>
    <path clip-path="url(#p4ba8f09ec8)" d="M 229.712938 88.645288 
L 229.712938 89.145472 
L 230.108938 88.645288 
L 230.504938 88.45291 
L 230.900938 88.337482 
L 231.692938 88.260531 
L 232.088938 88.106628 
L 232.484938 87.91425 
L 232.880938 87.221687 
L 233.672938 87.144735 
L 234.068938 86.875405 
L 235.256938 86.529124 
L 235.256938 86.452173 
L 235.256938 86.452173 
L 234.068938 86.529124 
L 233.672938 86.933119 
L 232.880938 87.183211 
L 232.484938 87.337114 
L 232.088938 88.068152 
L 231.692938 88.106628 
L 230.900938 88.260531 
L 230.504938 88.337482 
L 230.108938 88.45291 
L 229.712938 88.645288 
z
" style="fill:#0173b2;fill-opacity:0.2;stroke:#0173b2;stroke-opacity:0.2;"/>
    <path clip-path="url(#p4ba8f09ec8)" d="M 236.444938 85.990464 
L 236.444938 86.067416 
L 236.840938 85.990464 
L 237.236938 85.798086 
L 237.632938 85.528756 
L 238.028938 85.49028 
L 238.424938 85.451804 
L 238.820938 85.413328 
L 239.216938 85.067047 
L 239.612938 84.95162 
L 240.008938 84.759241 
L 240.404938 84.489911 
L 240.800938 84.41296 
L 241.592938 84.182106 
L 241.988938 84.14363 
L 242.384938 84.028203 
L 242.780938 83.643446 
L 243.176938 83.566494 
L 243.572937 83.297164 
L 243.968938 83.143262 
L 244.364938 83.06631 
L 244.760938 82.402604 
L 245.552938 82.219845 
L 246.344938 82.181369 
L 247.136938 81.873563 
L 247.928938 81.796612 
L 248.324938 81.45033 
L 249.116938 81.373379 
L 249.512938 81.181 
L 249.908938 80.873195 
L 250.304938 80.757768 
L 250.700938 80.603865 
L 251.096938 80.565389 
L 251.492938 80.488438 
L 252.284938 80.37301 
L 252.680938 80.180632 
L 253.076938 79.488069 
L 254.264938 79.334166 
L 254.660938 79.180263 
L 255.056938 79.141788 
L 255.452938 79.026361 
L 255.848938 78.872458 
L 256.244938 78.680079 
L 256.640938 78.641604 
L 257.036938 78.564652 
L 257.432937 78.141419 
L 257.828938 78.102944 
L 258.620938 77.949041 
L 259.016938 77.833614 
L 259.412937 77.7759 
L 259.808938 77.525808 
L 260.600937 77.487332 
L 260.996938 77.410381 
L 261.392938 77.294954 
L 261.788938 77.141051 
L 262.184938 76.833245 
L 262.580938 76.679342 
L 262.976938 76.640867 
L 263.768938 76.179158 
L 264.164938 76.140682 
L 264.560938 76.102207 
L 265.352938 76.063731 
L 265.748938 76.025255 
L 266.144938 75.948304 
L 266.540938 75.794401 
L 266.936937 75.755925 
L 267.332938 75.678974 
L 268.124938 75.640498 
L 268.520938 75.563547 
L 268.916938 75.486595 
L 269.708938 75.371168 
L 270.104938 74.611513 
L 270.500938 74.409275 
L 270.896938 73.986043 
L 271.292937 73.716713 
L 271.688938 73.56281 
L 272.084938 73.524334 
L 272.480938 73.255004 
L 273.272938 73.101101 
L 273.668938 73.062626 
L 274.460938 72.947198 
L 274.856938 72.831771 
L 275.648938 72.75482 
L 276.044938 72.677869 
L 276.440938 72.600917 
L 276.836937 72.447014 
L 277.232938 72.408539 
L 278.024938 72.293111 
L 278.420938 71.908354 
L 278.816937 71.725595 
L 279.212938 71.215792 
L 279.608938 70.677132 
L 280.400937 70.638656 
L 280.796938 70.60018 
L 281.192938 70.407802 
L 281.984938 70.369326 
L 282.776938 70.06152 
L 283.172937 70.023045 
L 283.568938 69.946093 
L 283.964938 69.561336 
L 284.756938 69.330482 
L 285.152938 69.25353 
L 285.548938 69.215055 
L 285.944938 69.138103 
L 286.340937 69.099628 
L 286.736938 69.061152 
L 287.132938 68.9842 
L 287.528938 68.907249 
L 288.320938 68.868773 
L 289.112938 68.71487 
L 289.904938 68.522492 
L 290.696937 68.253162 
L 291.092938 68.17621 
L 291.488938 68.137735 
L 292.676938 67.945356 
L 293.072938 67.868405 
L 294.260938 67.791453 
L 294.656938 67.522123 
L 295.052938 67.368221 
L 295.844938 67.214318 
L 296.636938 67.098891 
L 297.032938 67.021939 
L 297.428938 66.714134 
L 297.824938 66.521755 
L 298.220937 66.444804 
L 298.616938 66.329376 
L 299.012938 66.290901 
L 299.408938 66.136998 
L 299.804938 66.098522 
L 299.804938 65.983095 
L 299.804938 65.983095 
L 299.408938 66.098522 
L 299.012938 66.136998 
L 298.616938 66.290901 
L 298.220937 66.329376 
L 297.824938 66.444804 
L 297.428938 66.521755 
L 297.032938 66.714134 
L 296.636938 67.021939 
L 295.844938 67.098891 
L 295.052938 67.214318 
L 294.656938 67.368221 
L 294.260938 67.522123 
L 293.072938 67.791453 
L 292.676938 67.868405 
L 291.488938 67.945356 
L 291.092938 68.137735 
L 290.696937 68.17621 
L 289.904938 68.291638 
L 289.112938 68.560968 
L 288.320938 68.71487 
L 287.528938 68.868773 
L 287.132938 68.907249 
L 286.736938 68.9842 
L 286.340937 69.061152 
L 285.944938 69.099628 
L 285.548938 69.138103 
L 285.152938 69.215055 
L 284.756938 69.25353 
L 283.964938 69.330482 
L 283.568938 69.561336 
L 283.172937 69.946093 
L 282.776938 70.023045 
L 281.984938 70.06152 
L 281.192938 70.369326 
L 280.796938 70.407802 
L 280.400937 70.60018 
L 279.608938 70.638656 
L 279.212938 70.677132 
L 278.816937 71.254267 
L 278.420938 71.869879 
L 278.024938 71.985306 
L 277.232938 72.370063 
L 276.836937 72.408539 
L 276.440938 72.447014 
L 276.044938 72.600917 
L 275.648938 72.677869 
L 274.856938 72.75482 
L 274.460938 72.831771 
L 273.668938 72.947198 
L 273.272938 73.062626 
L 272.480938 73.101101 
L 272.084938 73.255004 
L 271.688938 73.524334 
L 271.292937 73.56281 
L 270.896938 73.716713 
L 270.500938 73.986043 
L 270.104938 74.428513 
L 269.708938 74.678605 
L 268.916938 75.371168 
L 268.520938 75.486595 
L 268.124938 75.563547 
L 267.332938 75.640498 
L 266.936937 75.678974 
L 266.540938 75.755925 
L 266.144938 75.794401 
L 265.748938 75.948304 
L 265.352938 76.025255 
L 264.560938 76.063731 
L 264.164938 76.102207 
L 263.768938 76.140682 
L 262.976938 76.179158 
L 262.580938 76.640867 
L 262.184938 76.679342 
L 261.788938 76.87124 
L 261.392938 77.218002 
L 260.996938 77.294954 
L 260.600937 77.410381 
L 259.808938 77.487332 
L 259.412937 77.573903 
L 259.016938 77.795138 
L 258.620938 77.833614 
L 257.828938 77.949041 
L 257.432937 78.102944 
L 257.036938 78.141419 
L 256.640938 78.564652 
L 256.244938 78.641604 
L 255.848938 78.680079 
L 255.452938 78.872458 
L 255.056938 79.026361 
L 254.660938 79.141788 
L 254.264938 79.180263 
L 253.076938 79.334166 
L 252.680938 79.488069 
L 252.284938 80.180632 
L 251.492938 80.37301 
L 251.096938 80.488438 
L 250.700938 80.565389 
L 250.304938 80.603865 
L 249.908938 80.757768 
L 249.512938 80.873195 
L 249.116938 81.181 
L 248.324938 81.373379 
L 247.928938 81.45033 
L 247.136938 81.796612 
L 246.344938 81.873563 
L 245.552938 82.181369 
L 244.760938 82.239082 
L 244.364938 82.450699 
L 243.968938 83.06631 
L 243.572937 83.143262 
L 243.176938 83.297164 
L 242.780938 83.566494 
L 242.384938 83.643446 
L 241.988938 84.028203 
L 241.592938 84.14363 
L 240.800938 84.182106 
L 240.404938 84.41296 
L 240.008938 84.489911 
L 239.612938 84.759241 
L 239.216938 84.95162 
L 238.820938 85.067047 
L 238.424938 85.413328 
L 238.028938 85.451804 
L 237.632938 85.49028 
L 237.236938 85.528756 
L 236.840938 85.798086 
L 236.444938 85.990464 
z
" style="fill:#0173b2;fill-opacity:0.2;stroke:#0173b2;stroke-opacity:0.2;"/>
    <path clip-path="url(#p4ba8f09ec8)" d="M 300.596938 65.829192 
L 300.596938 65.944619 
L 300.992938 65.829192 
L 301.388938 65.752241 
L 301.784938 65.405959 
L 302.180938 65.329008 
L 302.576937 65.252057 
L 302.972938 65.213581 
L 303.368938 65.136629 
L 303.764938 65.059678 
L 304.160938 64.905775 
L 304.556938 64.867299 
L 304.952938 64.521018 
L 305.348938 64.253612 
L 305.744937 64.020834 
L 307.328938 63.982358 
L 307.328938 63.943882 
L 307.328938 63.943882 
L 305.744937 63.982358 
L 305.348938 64.020834 
L 304.952938 64.32864 
L 304.556938 64.521018 
L 304.160938 64.867299 
L 303.764938 64.905775 
L 303.368938 65.059678 
L 302.972938 65.136629 
L 302.576937 65.213581 
L 302.180938 65.252057 
L 301.784938 65.367484 
L 301.388938 65.405959 
L 300.992938 65.752241 
L 300.596938 65.829192 
z
" style="fill:#0173b2;fill-opacity:0.2;stroke:#0173b2;stroke-opacity:0.2;"/>
    <path clip-path="url(#p4ba8f09ec8)" d="M 308.120938 63.751504 
L 308.120938 63.905407 
L 308.516938 63.751504 
L 309.308938 63.713028 
L 309.704938 63.597601 
L 310.892938 63.559125 
L 311.288938 63.52065 
L 312.080938 63.482174 
L 312.476938 63.328271 
L 312.872938 63.097417 
L 313.268938 63.020465 
L 313.664938 62.866563 
L 314.456938 62.828087 
L 315.248938 62.751135 
L 315.644938 62.71266 
L 316.040938 62.520281 
L 316.436937 62.44333 
L 316.832938 62.366378 
L 317.228938 62.250951 
L 317.624937 62.097048 
L 318.020938 62.058573 
L 318.416938 62.020097 
L 318.812938 61.943145 
L 319.208938 61.90467 
L 319.604938 61.827718 
L 320.396938 61.750767 
L 320.792938 61.558388 
L 321.188938 61.519913 
L 321.584938 61.442961 
L 321.980937 61.36601 
L 322.376938 61.135156 
L 322.772938 61.09668 
L 323.168938 61.019728 
L 323.564938 60.981253 
L 324.356938 60.904301 
L 324.752938 60.55802 
L 326.336938 60.519544 
L 326.732938 60.481069 
L 327.128938 60.365641 
L 327.524938 60.28869 
L 328.316937 60.211739 
L 329.108938 60.173263 
L 329.504938 59.826981 
L 330.692938 59.75003 
L 331.088938 59.519176 
L 331.484938 59.326797 
L 332.276938 59.249846 
L 332.672938 59.134419 
L 333.068938 59.018992 
L 333.464938 58.788137 
L 333.860937 58.711186 
L 334.256938 58.67271 
L 335.048938 58.13405 
L 335.444938 58.018623 
L 336.236938 57.980147 
L 336.632938 57.749293 
L 336.632938 57.672342 
L 336.632938 57.672342 
L 336.236938 57.749293 
L 335.444938 57.980147 
L 335.048938 58.018623 
L 334.256938 58.13405 
L 333.860937 58.67271 
L 333.464938 58.711186 
L 333.068938 58.788137 
L 332.672938 59.018992 
L 332.276938 59.134419 
L 331.484938 59.249846 
L 331.088938 59.326797 
L 330.692938 59.519176 
L 329.504938 59.75003 
L 329.108938 59.826981 
L 328.316937 60.173263 
L 327.524938 60.211739 
L 327.128938 60.28869 
L 326.732938 60.365641 
L 326.336938 60.481069 
L 324.752938 60.519544 
L 324.356938 60.55802 
L 323.564938 60.904301 
L 323.168938 60.981253 
L 322.772938 61.019728 
L 322.376938 61.09668 
L 321.980937 61.135156 
L 321.584938 61.36601 
L 321.188938 61.442961 
L 320.792938 61.519913 
L 320.396938 61.558388 
L 319.604938 61.750767 
L 319.208938 61.827718 
L 318.812938 61.90467 
L 318.416938 61.943145 
L 318.020938 62.020097 
L 317.624937 62.058573 
L 317.228938 62.097048 
L 316.832938 62.250951 
L 316.436937 62.366378 
L 316.040938 62.44333 
L 315.644938 62.520281 
L 315.248938 62.71266 
L 314.456938 62.751135 
L 313.664938 62.828087 
L 313.268938 62.866563 
L 312.872938 63.020465 
L 312.476938 63.097417 
L 312.080938 63.328271 
L 311.288938 63.482174 
L 310.892938 63.52065 
L 309.704938 63.559125 
L 309.308938 63.597601 
L 308.516938 63.713028 
L 308.120938 63.751504 
z
" style="fill:#0173b2;fill-opacity:0.2;stroke:#0173b2;stroke-opacity:0.2;"/>
    <path clip-path="url(#p4ba8f09ec8)" d="M 337.424938 57.441487 
L 337.424938 57.633866 
L 338.216938 57.441487 
L 338.216938 57.364536 
L 338.216938 57.364536 
L 337.424938 57.441487 
z
" style="fill:#0173b2;fill-opacity:0.2;stroke:#0173b2;stroke-opacity:0.2;"/>
    <path clip-path="url(#p4ba8f09ec8)" d="M 339.008938 57.287585 
L 339.008938 57.32606 
L 339.404938 57.229871 
L 339.800938 57.018255 
L 340.196938 56.864352 
L 340.592938 56.7874 
L 340.988938 56.633498 
L 341.384938 56.210265 
L 342.572938 56.094838 
L 342.968938 56.056362 
L 343.364937 55.97941 
L 343.760938 55.863983 
L 344.156938 55.767794 
L 344.552937 55.517702 
L 344.948938 55.479226 
L 345.344938 55.363799 
L 346.136938 55.286848 
L 346.928938 55.248372 
L 347.324938 55.171421 
L 347.720937 55.132945 
L 348.116938 54.979042 
L 348.512938 54.902091 
L 348.908937 54.825139 
L 349.304938 54.748188 
L 349.700938 54.363431 
L 350.096938 54.324955 
L 351.284938 54.248004 
L 352.868938 54.132576 
L 353.660938 54.055625 
L 353.660938 53.978674 
L 353.660938 53.978674 
L 352.868938 54.055625 
L 351.284938 54.132576 
L 350.096938 54.248004 
L 349.700938 54.324955 
L 349.304938 54.363431 
L 348.908937 54.748188 
L 348.512938 54.825139 
L 348.116938 54.902091 
L 347.720937 54.979042 
L 347.324938 55.132945 
L 346.928938 55.171421 
L 346.136938 55.248372 
L 345.344938 55.286848 
L 344.948938 55.363799 
L 344.552937 55.479226 
L 344.156938 55.556178 
L 343.760938 55.825508 
L 343.364937 55.863983 
L 342.968938 55.97941 
L 342.572938 56.056362 
L 341.384938 56.094838 
L 340.988938 56.210265 
L 340.592938 56.633498 
L 340.196938 56.7874 
L 339.800938 56.864352 
L 339.404938 57.037252 
L 339.008938 57.287585 
z
" style="fill:#0173b2;fill-opacity:0.2;stroke:#0173b2;stroke-opacity:0.2;"/>
    <path clip-path="url(#p4ba8f09ec8)" d="M 355.640938 53.901722 
L 355.640938 53.940198 
L 356.036938 53.901722 
L 356.432938 53.786295 
L 356.828938 53.747819 
L 357.224938 53.709344 
L 358.016938 53.670868 
L 358.412937 53.632392 
L 358.808938 53.593916 
L 359.204938 53.555441 
L 359.600938 53.286111 
L 359.996938 53.209159 
L 360.392938 53.055257 
L 360.788937 52.978305 
L 361.580938 52.939829 
L 362.768937 52.747451 
L 363.560938 52.670499 
L 363.956938 52.632024 
L 364.352938 52.324218 
L 364.748938 52.093364 
L 365.144938 51.977937 
L 365.540938 51.86251 
L 366.332938 51.747082 
L 366.728938 51.516228 
L 367.124937 51.439277 
L 367.916938 51.362325 
L 368.708938 51.208422 
L 369.104938 50.977568 
L 369.500938 50.862141 
L 369.896938 50.823665 
L 370.292937 50.708238 
L 371.480938 50.669763 
L 371.876938 50.51586 
L 372.272938 50.400433 
L 373.064938 50.361957 
L 373.460938 50.24653 
L 373.856938 50.054151 
L 374.252938 49.938724 
L 374.648937 49.823297 
L 375.044938 49.784821 
L 375.440938 49.746345 
L 375.836938 49.669394 
L 376.232938 49.592443 
L 376.628938 49.361588 
L 377.420938 48.976831 
L 377.816937 48.515123 
L 378.212938 48.207317 
L 378.608938 48.168841 
L 379.004937 47.937987 
L 379.400938 47.899511 
L 379.796938 47.784084 
L 380.192938 47.745609 
L 380.588938 47.630181 
L 380.984938 47.514754 
L 381.380938 47.437803 
L 382.172937 47.322376 
L 382.568938 47.245424 
L 382.964938 47.053046 
L 383.360938 46.976094 
L 383.756938 46.937619 
L 384.152938 46.860667 
L 384.944938 46.74524 
L 385.736938 46.668289 
L 386.132938 46.514386 
L 386.528937 46.47591 
L 387.320938 46.360483 
L 387.716938 46.322007 
L 388.508938 45.975726 
L 388.904938 45.898775 
L 389.300938 45.437066 
L 389.696937 45.360115 
L 390.092938 45.283163 
L 390.488938 44.898406 
L 390.884938 44.821455 
L 391.676938 44.706028 
L 392.072938 44.629076 
L 392.468938 44.5906 
L 393.260938 44.513649 
L 393.656938 44.436698 
L 394.052938 44.398222 
L 394.844938 44.167368 
L 395.240937 44.128892 
L 395.636938 43.936513 
L 396.428938 43.898038 
L 397.616938 43.744135 
L 398.012938 43.705659 
L 398.408938 43.628708 
L 399.596938 43.513281 
L 399.992938 43.359378 
L 400.388937 43.282426 
L 401.180938 43.205475 
L 401.576937 43.128523 
L 402.368938 42.974621 
L 402.764938 42.859193 
L 403.160938 42.666815 
L 403.952938 42.589863 
L 405.140938 42.551388 
L 405.932937 42.474436 
L 406.328938 42.435961 
L 406.724938 42.320534 
L 407.912938 42.243582 
L 408.308938 42.205106 
L 408.704938 42.166631 
L 409.496938 42.128155 
L 409.892938 41.974252 
L 410.288937 41.858825 
L 411.872938 41.512544 
L 412.268938 41.474068 
L 412.664938 41.358641 
L 414.248938 41.166262 
L 414.644937 40.941981 
L 415.040938 40.589127 
L 415.832938 40.550651 
L 416.624938 40.435224 
L 417.416938 40.396748 
L 417.416938 40.242845 
L 417.416938 40.242845 
L 416.624938 40.396748 
L 415.832938 40.435224 
L 415.040938 40.550651 
L 414.644937 40.672491 
L 414.248938 41.050835 
L 412.664938 41.166262 
L 412.268938 41.358641 
L 411.872938 41.474068 
L 410.288937 41.512544 
L 409.892938 41.858825 
L 409.496938 41.974252 
L 408.704938 42.128155 
L 408.308938 42.166631 
L 407.912938 42.205106 
L 406.724938 42.243582 
L 406.328938 42.320534 
L 405.932937 42.435961 
L 405.140938 42.474436 
L 403.952938 42.551388 
L 403.160938 42.589863 
L 402.764938 42.666815 
L 402.368938 42.859193 
L 401.576937 42.974621 
L 401.180938 43.128523 
L 400.388937 43.205475 
L 399.992938 43.282426 
L 399.596938 43.384387 
L 398.408938 43.513281 
L 398.012938 43.628708 
L 397.616938 43.705659 
L 396.428938 43.744135 
L 395.636938 43.898038 
L 395.240937 43.936513 
L 394.844938 44.128892 
L 394.052938 44.167368 
L 393.656938 44.398222 
L 393.260938 44.436698 
L 392.468938 44.513649 
L 392.072938 44.5906 
L 391.676938 44.629076 
L 390.884938 44.706028 
L 390.488938 44.821455 
L 390.092938 44.898406 
L 389.696937 45.283163 
L 389.300938 45.360115 
L 388.904938 45.437066 
L 388.508938 45.898775 
L 387.716938 45.975726 
L 387.320938 46.322007 
L 386.528937 46.360483 
L 386.132938 46.47591 
L 385.736938 46.514386 
L 384.944938 46.668289 
L 384.152938 46.74524 
L 383.756938 46.860667 
L 383.360938 46.937619 
L 382.964938 46.976094 
L 382.568938 47.053046 
L 382.172937 47.245424 
L 381.380938 47.322376 
L 380.984938 47.437803 
L 380.588938 47.514754 
L 380.192938 47.630181 
L 379.796938 47.745609 
L 379.400938 47.784084 
L 379.004937 47.899511 
L 378.608938 47.937987 
L 378.212938 48.168841 
L 377.816937 48.207317 
L 377.420938 48.515123 
L 376.628938 48.976831 
L 376.232938 49.361588 
L 375.836938 49.592443 
L 375.440938 49.669394 
L 375.044938 49.746345 
L 374.648937 49.784821 
L 374.252938 49.823297 
L 373.856938 49.938724 
L 373.460938 50.054151 
L 373.064938 50.24653 
L 372.272938 50.361957 
L 371.876938 50.400433 
L 371.480938 50.51586 
L 370.292937 50.669763 
L 369.896938 50.708238 
L 369.500938 50.823665 
L 369.104938 50.862141 
L 368.708938 50.977568 
L 367.916938 51.208422 
L 367.124937 51.362325 
L 366.728938 51.439277 
L 366.332938 51.516228 
L 365.540938 51.747082 
L 365.144938 51.86251 
L 364.748938 51.977937 
L 364.352938 52.093364 
L 363.956938 52.324218 
L 363.560938 52.632024 
L 362.768937 52.670499 
L 361.580938 52.773101 
L 360.788937 52.939829 
L 360.392938 53.016781 
L 359.996938 53.055257 
L 359.600938 53.209159 
L 359.204938 53.286111 
L 358.808938 53.555441 
L 358.412937 53.593916 
L 358.016938 53.632392 
L 357.224938 53.670868 
L 356.828938 53.709344 
L 356.432938 53.747819 
L 356.036938 53.786295 
L 355.640938 53.901722 
z
" style="fill:#0173b2;fill-opacity:0.2;stroke:#0173b2;stroke-opacity:0.2;"/>
    <path clip-path="url(#p4ba8f09ec8)" d="M 418.208938 39.973515 
L 418.208938 40.204369 
L 418.604938 39.973515 
L 419.000938 39.858088 
L 420.188938 39.781137 
L 421.772938 39.473331 
L 422.168938 39.088574 
L 423.356938 39.011622 
L 423.752938 38.896195 
L 424.940938 38.85772 
L 426.920938 38.819244 
L 427.316938 38.780768 
L 427.712938 38.742293 
L 428.108938 38.665341 
L 428.504937 38.415249 
L 428.900938 38.242108 
L 429.692938 38.126681 
L 430.880938 37.934303 
L 432.068938 37.7804 
L 433.256938 37.703448 
L 434.444938 37.664973 
L 434.840937 37.626497 
L 435.236938 37.549545 
L 435.632938 37.087837 
L 436.028938 37.049361 
L 436.424938 36.933934 
L 437.216938 36.895458 
L 438.008938 36.856983 
L 438.404938 36.780031 
L 439.196937 36.741556 
L 440.780938 36.70308 
L 441.176938 36.626128 
L 441.572938 36.587653 
L 441.968938 36.549177 
L 444.344938 36.472226 
L 444.740938 36.395274 
L 445.928938 36.318323 
L 446.324938 36.202896 
L 446.720937 36.087469 
L 447.512938 36.048993 
L 448.304938 35.933566 
L 448.700938 35.818139 
L 449.096938 35.664236 
L 449.888938 35.62576 
L 450.680938 35.548809 
L 451.076938 35.510333 
L 453.056938 35.471857 
L 453.848938 35.394906 
L 455.036938 35.35643 
L 455.432938 35.241003 
L 457.016938 35.202527 
L 457.412937 35.164051 
L 457.808938 35.125576 
L 458.204938 34.933197 
L 458.600938 34.894722 
L 458.996938 34.856246 
L 460.184938 34.509964 
L 460.580938 34.356062 
L 460.976938 34.317586 
L 460.976938 34.27911 
L 460.976938 34.27911 
L 460.580938 34.317586 
L 460.184938 34.356062 
L 458.996938 34.509964 
L 458.600938 34.856246 
L 458.204938 34.894722 
L 457.808938 34.933197 
L 457.412937 35.125576 
L 457.016938 35.164051 
L 455.432938 35.202527 
L 455.036938 35.241003 
L 453.848938 35.35643 
L 453.056938 35.394906 
L 451.076938 35.471857 
L 450.680938 35.510333 
L 449.888938 35.548809 
L 449.096938 35.62576 
L 448.700938 35.664236 
L 448.304938 35.818139 
L 447.512938 35.933566 
L 446.720937 36.048993 
L 446.324938 36.087469 
L 445.928938 36.202896 
L 444.740938 36.318323 
L 444.344938 36.395274 
L 441.968938 36.472226 
L 441.572938 36.549177 
L 441.176938 36.587653 
L 440.780938 36.626128 
L 439.196937 36.70308 
L 438.404938 36.741556 
L 438.008938 36.780031 
L 437.216938 36.856983 
L 436.424938 36.895458 
L 436.028938 36.933934 
L 435.632938 37.049361 
L 435.236938 37.195569 
L 434.840937 37.588021 
L 434.444938 37.626497 
L 433.256938 37.664973 
L 432.068938 37.703448 
L 430.880938 37.7804 
L 429.692938 37.934303 
L 428.900938 38.126681 
L 428.504937 38.280584 
L 428.108938 38.434487 
L 427.712938 38.665341 
L 427.316938 38.742293 
L 426.920938 38.780768 
L 424.940938 38.819244 
L 423.752938 38.85772 
L 423.356938 38.896195 
L 422.168938 39.011622 
L 421.772938 39.088574 
L 420.188938 39.473331 
L 419.000938 39.781137 
L 418.604938 39.858088 
L 418.208938 39.973515 
z
" style="fill:#0173b2;fill-opacity:0.2;stroke:#0173b2;stroke-opacity:0.2;"/>
    <path clip-path="url(#p4ba8f09ec8)" d="M 462.560938 34.163683 
L 462.560938 34.27911 
L 462.956937 34.163683 
L 463.352938 34.048256 
L 463.748938 33.855877 
L 464.144938 33.74045 
L 465.332938 33.701975 
L 466.124937 33.586547 
L 466.520938 33.509596 
L 466.916938 33.394169 
L 467.708938 33.355693 
L 468.500938 33.317217 
L 468.896938 33.278742 
L 470.480938 33.086363 
L 470.876938 33.009412 
L 471.668937 32.970936 
L 472.856938 32.740082 
L 473.252938 32.701606 
L 474.440938 32.624655 
L 474.836938 32.586179 
L 475.628938 32.547703 
L 476.024938 32.509228 
L 477.212938 32.432276 
L 477.608938 32.3938 
L 480.380938 32.355325 
L 480.776938 32.316849 
L 481.172937 32.278373 
L 481.568938 32.201422 
L 481.964938 32.047519 
L 483.152938 31.970568 
L 483.944938 31.932092 
L 484.340938 31.893616 
L 484.736938 31.85514 
L 486.320938 31.778189 
L 486.716938 31.739713 
L 487.508938 31.624286 
L 487.904938 31.547335 
L 489.488938 31.508859 
L 491.072937 31.393432 
L 491.468938 31.239529 
L 493.448938 31.201053 
L 493.844938 31.124102 
L 495.032938 31.047151 
L 495.428938 30.970199 
L 495.824938 30.662393 
L 497.012938 30.623918 
L 497.408938 30.546966 
L 498.596938 30.393063 
L 499.388937 30.354588 
L 499.784938 30.316112 
L 501.764938 30.277636 
L 502.160938 30.239161 
L 502.556938 30.200685 
L 502.952938 30.123734 
L 504.932937 30.085258 
L 506.120938 30.008306 
L 506.912938 29.969831 
L 507.308938 29.931355 
L 507.704938 29.815928 
L 508.100938 29.700501 
L 508.496938 29.585074 
L 509.684938 29.546598 
L 510.080938 29.469646 
L 510.476938 29.354219 
L 510.872938 29.315744 
L 511.268938 29.277268 
L 511.664938 29.200316 
L 513.248938 29.084889 
L 513.644938 29.046414 
L 514.040938 28.815559 
L 514.436937 28.777084 
L 514.832938 28.738608 
L 515.228938 28.661657 
L 516.416938 28.623181 
L 517.208938 28.546229 
L 518.000938 28.507754 
L 518.792937 28.469278 
L 519.584938 28.392327 
L 519.980937 28.353851 
L 521.168938 28.315375 
L 521.960938 28.238424 
L 522.356938 28.199948 
L 522.752938 28.122997 
L 523.148938 28.084521 
L 525.128938 28.046045 
L 525.524938 28.007569 
L 527.108938 27.930618 
L 527.504938 27.853667 
L 531.068938 27.776715 
L 531.464938 27.699764 
L 531.860938 27.661288 
L 533.048938 27.622812 
L 533.840937 27.507385 
L 534.236938 27.430434 
L 535.028938 27.391958 
L 535.820938 27.276531 
L 537.800938 27.161104 
L 538.988938 27.084152 
L 540.176938 27.045677 
L 541.760938 26.968725 
L 544.532938 26.814822 
L 546.116938 26.737871 
L 546.512938 26.699395 
L 548.492938 26.66092 
L 548.888937 26.622444 
L 549.284938 26.545493 
L 549.680938 26.507017 
L 550.868938 26.430065 
L 551.264938 26.39159 
L 552.452938 26.353114 
L 552.848938 26.314638 
L 554.036938 26.276163 
L 554.432938 26.237687 
L 555.620938 26.199211 
L 557.996938 26.045308 
L 558.788938 26.006833 
L 559.184938 25.968357 
L 559.580938 25.929881 
L 559.976938 25.891405 
L 560.372938 25.85293 
L 561.164938 25.775978 
L 561.560938 25.660551 
L 561.956937 25.5836 
L 562.352938 25.545124 
L 562.748938 25.506648 
L 563.144938 25.468173 
L 564.728938 25.429697 
L 565.124938 25.352745 
L 565.520938 25.31427 
L 565.916938 25.237318 
L 566.312938 25.160367 
L 566.708938 25.121891 
L 567.104938 25.083416 
L 567.500938 25.006464 
L 568.292938 24.967988 
L 569.084938 24.891037 
L 569.480938 24.814086 
L 570.668938 24.698658 
L 571.064938 24.621707 
L 571.064938 24.429328 
L 571.064938 24.429328 
L 570.668938 24.621707 
L 569.480938 24.698658 
L 569.084938 24.814086 
L 568.292938 24.891037 
L 567.500938 24.967988 
L 567.104938 25.006464 
L 566.708938 25.083416 
L 566.312938 25.121891 
L 565.916938 25.160367 
L 565.520938 25.237318 
L 565.124938 25.31427 
L 564.728938 25.352745 
L 563.144938 25.429697 
L 562.748938 25.468173 
L 562.352938 25.506648 
L 561.956937 25.545124 
L 561.560938 25.5836 
L 561.164938 25.660551 
L 560.372938 25.775978 
L 559.976938 25.85293 
L 559.580938 25.891405 
L 559.184938 25.929881 
L 558.788938 25.968357 
L 557.996938 26.006833 
L 555.620938 26.045308 
L 554.432938 26.199211 
L 554.036938 26.237687 
L 552.848938 26.276163 
L 552.452938 26.314638 
L 551.264938 26.353114 
L 550.868938 26.39159 
L 549.680938 26.430065 
L 549.284938 26.507017 
L 548.888937 26.545493 
L 548.492938 26.622444 
L 546.512938 26.66092 
L 546.116938 26.699395 
L 544.532938 26.737871 
L 541.760938 26.814822 
L 540.176938 26.968725 
L 538.988938 27.045677 
L 537.800938 27.084152 
L 535.820938 27.161104 
L 535.028938 27.276531 
L 534.236938 27.391958 
L 533.840937 27.430434 
L 533.048938 27.507385 
L 531.860938 27.622812 
L 531.464938 27.661288 
L 531.068938 27.699764 
L 527.504938 27.776715 
L 527.108938 27.853667 
L 525.524938 27.930618 
L 525.128938 28.007569 
L 523.148938 28.046045 
L 522.752938 28.084521 
L 522.356938 28.122997 
L 521.960938 28.199948 
L 521.168938 28.238424 
L 519.980937 28.315375 
L 519.584938 28.353851 
L 518.792937 28.392327 
L 518.000938 28.469278 
L 517.208938 28.507754 
L 516.416938 28.546229 
L 515.228938 28.623181 
L 514.832938 28.661657 
L 514.436937 28.738608 
L 514.040938 28.777084 
L 513.644938 28.815559 
L 513.248938 29.046414 
L 511.664938 29.084889 
L 511.268938 29.200316 
L 510.872938 29.277268 
L 510.476938 29.315744 
L 510.080938 29.354219 
L 509.684938 29.469646 
L 508.496938 29.546598 
L 508.100938 29.585074 
L 507.704938 29.700501 
L 507.308938 29.815928 
L 506.912938 29.931355 
L 506.120938 29.969831 
L 504.932937 30.008306 
L 502.952938 30.085258 
L 502.556938 30.123734 
L 502.160938 30.200685 
L 501.764938 30.239161 
L 499.784938 30.277636 
L 499.388937 30.316112 
L 498.596938 30.354588 
L 497.408938 30.393063 
L 497.012938 30.546966 
L 495.824938 30.623918 
L 495.428938 30.662393 
L 495.032938 30.970199 
L 493.844938 31.047151 
L 493.448938 31.124102 
L 491.468938 31.201053 
L 491.072937 31.239529 
L 489.488938 31.393432 
L 487.904938 31.508859 
L 487.508938 31.547335 
L 486.716938 31.624286 
L 486.320938 31.739713 
L 484.736938 31.778189 
L 484.340938 31.85514 
L 483.944938 31.893616 
L 483.152938 31.932092 
L 481.964938 31.970568 
L 481.568938 32.047519 
L 481.172937 32.201422 
L 480.776938 32.278373 
L 480.380938 32.316849 
L 477.608938 32.355325 
L 477.212938 32.3938 
L 476.024938 32.432276 
L 475.628938 32.509228 
L 474.836938 32.547703 
L 474.440938 32.586179 
L 473.252938 32.624655 
L 472.856938 32.701606 
L 471.668937 32.740082 
L 470.876938 32.970936 
L 470.480938 33.009412 
L 468.896938 33.086363 
L 468.500938 33.278742 
L 467.708938 33.317217 
L 466.916938 33.355693 
L 466.520938 33.394169 
L 466.124937 33.509596 
L 465.332938 33.586547 
L 464.144938 33.701975 
L 463.748938 33.74045 
L 463.352938 33.855877 
L 462.956937 34.048256 
L 462.560938 34.163683 
z
" style="fill:#0173b2;fill-opacity:0.2;stroke:#0173b2;stroke-opacity:0.2;"/>
    <path clip-path="url(#p4ba8f09ec8)" d="M 573.440938 24.352377 
L 573.440938 24.390853 
L 577.004937 24.352377 
L 580.172938 24.313901 
L 580.568938 24.23695 
L 581.756938 24.198474 
L 583.340938 24.159998 
L 584.528938 24.121523 
L 585.716938 24.006096 
L 588.092938 23.929144 
L 588.884938 23.813717 
L 589.676938 23.775241 
L 590.072938 23.736766 
L 591.656938 23.69829 
L 592.052938 23.505911 
L 592.844938 23.390484 
L 593.240938 23.352009 
L 593.636938 23.313533 
L 594.032938 23.275057 
L 595.220937 23.15963 
L 595.616938 23.044203 
L 596.804938 22.8903 
L 597.200938 22.851824 
L 597.596938 22.774873 
L 598.784938 22.659446 
L 599.180938 22.62097 
L 603.140938 22.582494 
L 603.932938 22.544019 
L 604.724938 22.505543 
L 605.516938 22.428592 
L 606.308937 22.313164 
L 606.704938 22.159262 
L 607.496938 22.08231 
L 607.892938 22.043834 
L 608.288938 22.005359 
L 608.684938 21.966883 
L 609.872938 21.774504 
L 610.664938 21.736029 
L 612.248938 21.697553 
L 613.040938 21.659077 
L 613.436938 21.620602 
L 615.020938 21.54365 
L 616.208938 21.505175 
L 619.376938 21.466699 
L 619.772938 21.428223 
L 620.168937 21.312796 
L 620.564938 21.235845 
L 621.752938 21.158893 
L 623.732938 21.120417 
L 626.108938 21.043466 
L 627.296938 20.851087 
L 628.484938 20.812612 
L 628.880938 20.774136 
L 629.276938 20.697185 
L 630.068938 20.658709 
L 631.256938 20.620233 
L 634.028937 20.581757 
L 634.424938 20.543282 
L 635.216937 20.46633 
L 636.008938 20.427855 
L 636.404938 20.350903 
L 636.800938 20.273952 
L 639.968938 20.235476 
L 640.760938 20.197 
L 641.156938 20.158525 
L 641.552938 20.120049 
L 644.324938 20.081573 
L 644.720937 20.043098 
L 645.116938 19.92767 
L 646.304938 19.889195 
L 646.700938 19.735292 
L 647.492938 19.696816 
L 647.888937 19.65834 
L 648.680938 19.619865 
L 650.660938 19.581389 
L 652.244937 19.465962 
L 652.640938 19.273583 
L 653.828938 19.235108 
L 655.016938 19.158156 
L 655.016938 19.042729 
L 655.016938 19.042729 
L 653.828938 19.158156 
L 652.640938 19.235108 
L 652.244937 19.273583 
L 650.660938 19.465962 
L 648.680938 19.581389 
L 647.888937 19.619865 
L 647.492938 19.65834 
L 646.700938 19.696816 
L 646.304938 19.735292 
L 645.116938 19.889195 
L 644.720937 19.92767 
L 644.324938 20.043098 
L 641.552938 20.081573 
L 641.156938 20.120049 
L 640.760938 20.158525 
L 639.968938 20.197 
L 636.800938 20.235476 
L 636.404938 20.273952 
L 636.008938 20.350903 
L 635.216937 20.427855 
L 634.424938 20.46633 
L 634.028937 20.543282 
L 631.256938 20.581757 
L 630.068938 20.620233 
L 629.276938 20.658709 
L 628.880938 20.697185 
L 628.484938 20.774136 
L 627.296938 20.812612 
L 626.108938 20.851087 
L 623.732938 21.043466 
L 621.752938 21.120417 
L 620.564938 21.158893 
L 620.168937 21.235845 
L 619.772938 21.312796 
L 619.376938 21.428223 
L 616.208938 21.466699 
L 615.020938 21.505175 
L 613.436938 21.54365 
L 613.040938 21.620602 
L 612.248938 21.659077 
L 610.664938 21.697553 
L 609.872938 21.736029 
L 608.684938 21.774504 
L 608.288938 21.966883 
L 607.892938 22.005359 
L 607.496938 22.043834 
L 606.704938 22.08231 
L 606.308937 22.159262 
L 605.516938 22.313164 
L 604.724938 22.428592 
L 603.932938 22.505543 
L 603.140938 22.544019 
L 599.180938 22.582494 
L 598.784938 22.62097 
L 597.596938 22.659446 
L 597.200938 22.774873 
L 596.804938 22.851824 
L 595.616938 22.8903 
L 595.220937 23.044203 
L 594.032938 23.15963 
L 593.636938 23.275057 
L 593.240938 23.313533 
L 592.844938 23.352009 
L 592.052938 23.390484 
L 591.656938 23.505911 
L 590.072938 23.69829 
L 589.676938 23.736766 
L 588.884938 23.775241 
L 588.092938 23.813717 
L 585.716938 23.929144 
L 584.528938 24.006096 
L 583.340938 24.121523 
L 581.756938 24.159998 
L 580.568938 24.198474 
L 580.172938 24.23695 
L 577.004937 24.313901 
L 573.440938 24.352377 
z
" style="fill:#0173b2;fill-opacity:0.2;stroke:#0173b2;stroke-opacity:0.2;"/>
   </g>
   <g id="line2d_12">
    <path clip-path="url(#p4ba8f09ec8)" d="M 86.360938 619.185018 
L 87.152938 537.676059 
L 87.548938 525.973368 
L 88.340938 493.81375 
L 88.736938 481.954681 
L 89.132938 476.100495 
L 89.528938 473.142675 
L 89.924938 468.797324 
L 90.716938 446.656958 
L 91.112938 439.476429 
L 91.508938 435.003628 
L 91.904938 425.256448 
L 92.300938 421.838522 
L 92.696938 415.52049 
L 94.280938 401.750995 
L 95.468938 388.024786 
L 95.864938 386.716612 
L 96.260938 384.465783 
L 96.656938 382.907516 
L 97.052938 379.584177 
L 97.844938 370.883857 
L 99.428938 361.97673 
L 100.616938 346.995251 
L 102.596938 324.546277 
L 102.992938 322.846934 
L 103.388938 320.089508 
L 103.784938 316.027114 
L 104.576938 311.66974 
L 105.764938 305.654704 
L 106.556938 303.839933 
L 106.952938 300.13344 
L 107.348938 297.722295 
L 107.744938 296.548786 
L 109.328938 283.172064 
L 110.120938 278.176634 
L 110.516938 276.685701 
L 111.308938 267.422674 
L 111.704937 266.903251 
L 112.100938 264.787087 
L 112.496938 259.785245 
L 113.288938 254.591024 
L 113.684938 252.590287 
L 114.080938 249.505818 
L 114.476938 247.99244 
L 115.268938 238.498559 
L 115.664938 236.853722 
L 116.456938 235.160791 
L 116.852938 234.737558 
L 117.248938 233.669857 
L 117.644938 232.242134 
L 118.436938 226.946227 
L 118.832938 226.465281 
L 120.020938 224.40683 
L 120.812938 223.137132 
L 121.208938 221.450613 
L 121.604938 217.625486 
L 122.396938 213.47011 
L 123.188938 210.315101 
L 123.584938 207.881513 
L 123.980938 206.631052 
L 125.168938 204.534126 
L 125.960938 198.762769 
L 126.356938 197.743163 
L 126.752938 197.435357 
L 127.544938 196.24261 
L 127.940938 195.954043 
L 129.128938 193.818641 
L 130.316937 190.208337 
L 130.712938 189.567075 
L 131.504938 186.893013 
L 132.296938 182.859476 
L 133.088938 182.52602 
L 133.484938 182.141263 
L 135.068938 179.043968 
L 135.464938 178.870828 
L 135.860938 178.178265 
L 136.256937 177.004756 
L 137.048938 176.408382 
L 137.840938 176.177528 
L 138.632938 173.897842 
L 139.028938 173.715082 
L 139.820938 172.368433 
L 140.216938 172.253005 
L 140.612938 171.829773 
L 141.404938 170.425409 
L 141.800938 170.117604 
L 142.196938 169.469929 
L 142.592938 168.559337 
L 143.384938 167.866775 
L 143.780938 167.01069 
L 145.364937 161.729899 
L 147.344938 159.556021 
L 148.136938 159.132788 
L 148.928938 158.959648 
L 149.720938 157.035862 
L 150.116938 156.410632 
L 150.908938 155.612261 
L 151.304937 155.150552 
L 152.096938 154.99665 
L 152.492938 154.304087 
L 152.888937 152.745821 
L 154.076938 149.87938 
L 154.472938 149.70624 
L 154.868938 148.789235 
L 155.264938 147.128367 
L 155.660938 146.262663 
L 156.056938 145.974096 
L 156.452938 145.435436 
L 157.640938 144.608208 
L 158.432938 142.126525 
L 159.224938 140.837588 
L 160.808938 139.587128 
L 161.600938 137.913434 
L 162.788938 137.336299 
L 163.580938 136.60526 
L 166.352937 135.970411 
L 167.144938 134.854616 
L 167.540938 134.54681 
L 167.936937 134.065863 
L 168.332938 133.267493 
L 168.728938 132.93083 
L 169.520938 132.642262 
L 169.916938 132.295981 
L 170.708938 131.391802 
L 171.500938 131.04552 
L 172.292938 130.516479 
L 173.084938 128.890881 
L 174.272938 128.467648 
L 175.460938 128.198318 
L 176.648938 127.852036 
L 177.440938 126.967095 
L 178.628938 126.409197 
L 179.420938 124.870169 
L 180.212938 124.50465 
L 181.004938 123.485043 
L 181.796938 123.376029 
L 182.588938 123.042573 
L 182.984938 122.571245 
L 183.776938 120.580127 
L 184.172938 119.714424 
L 184.568938 119.175764 
L 184.964938 118.387012 
L 185.360938 117.886828 
L 186.152938 117.540546 
L 187.340938 116.982648 
L 188.132938 116.097707 
L 189.716938 115.405144 
L 190.904938 114.327824 
L 191.300938 114.173922 
L 191.696937 113.519834 
L 192.488938 113.192791 
L 193.676938 113.058126 
L 194.468938 111.49986 
L 196.052938 109.595312 
L 197.240938 108.979701 
L 198.428938 108.460279 
L 198.824938 108.190949 
L 200.012938 107.594575 
L 200.408938 106.594207 
L 200.804938 105.189843 
L 201.992938 104.112523 
L 203.180938 103.843193 
L 203.576938 103.362247 
L 205.160938 102.862063 
L 205.952938 102.207976 
L 206.348938 101.842457 
L 207.140938 100.707423 
L 208.328937 99.803244 
L 208.724938 99.649341 
L 209.516938 98.956778 
L 209.912938 98.841351 
L 210.704938 98.22574 
L 214.664938 97.360036 
L 215.060938 97.052231 
L 215.456938 96.590522 
L 215.852938 96.301954 
L 217.040938 96.0711 
L 218.228938 95.436251 
L 219.020938 95.109207 
L 219.812938 94.859115 
L 221.396938 93.704844 
L 224.168938 92.550573 
L 224.960938 91.819534 
L 225.752938 91.723345 
L 226.940938 90.492122 
L 228.524938 90.030414 
L 228.920938 89.43404 
L 229.712938 88.89538 
L 230.108938 88.549099 
L 230.900938 88.299007 
L 232.088938 88.08739 
L 232.880938 87.202449 
L 233.672938 87.048546 
L 234.068938 86.702265 
L 235.256938 86.490648 
L 235.652938 86.067416 
L 236.444938 86.02894 
L 239.612938 84.855431 
L 240.404938 84.451436 
L 240.800938 84.297533 
L 241.988938 84.085916 
L 243.176938 83.431829 
L 244.364938 82.758504 
L 244.760938 82.316034 
L 246.344938 82.027466 
L 247.928938 81.623471 
L 248.324938 81.411855 
L 249.116938 81.27719 
L 249.908938 80.815481 
L 251.096938 80.526913 
L 252.284938 80.276821 
L 253.076938 79.411118 
L 255.056938 79.084074 
L 257.036938 78.353036 
L 257.432937 78.122181 
L 261.788938 77.006386 
L 262.184938 76.756294 
L 262.580938 76.660104 
L 262.976938 76.410012 
L 264.164938 76.121445 
L 266.144938 75.871352 
L 267.332938 75.659736 
L 268.520938 75.525071 
L 268.916938 75.428882 
L 269.708938 75.024887 
L 270.500938 74.152771 
L 271.292937 73.639761 
L 272.084938 73.389669 
L 272.480938 73.178053 
L 276.044938 72.639393 
L 278.420938 71.889116 
L 279.608938 70.657894 
L 280.796938 70.503991 
L 282.776938 70.042282 
L 283.172937 69.984569 
L 283.964938 69.445909 
L 286.340937 69.08039 
L 289.112938 68.637919 
L 291.488938 68.041545 
L 294.260938 67.656788 
L 295.052938 67.291269 
L 297.032938 66.868036 
L 297.824938 66.483279 
L 301.388938 65.5791 
L 302.180938 65.290532 
L 303.764938 64.982727 
L 304.556938 64.694159 
L 305.744937 64.001596 
L 307.724938 63.905407 
L 309.704938 63.578363 
L 312.080938 63.405222 
L 313.268938 62.943514 
L 313.664938 62.847325 
L 315.644938 62.622883 
L 317.228938 62.174 
L 318.416938 61.981621 
L 321.188938 61.481437 
L 321.980937 61.250583 
L 322.772938 61.058204 
L 323.564938 60.942777 
L 324.752938 60.538782 
L 326.732938 60.423355 
L 327.524938 60.250214 
L 328.316937 60.192501 
L 329.108938 60.000122 
L 329.504938 59.788506 
L 330.692938 59.634603 
L 331.484938 59.288322 
L 332.672938 59.076705 
L 333.464938 58.749662 
L 333.860937 58.691948 
L 334.256938 58.40338 
L 335.444938 57.999385 
L 337.028938 57.672342 
L 337.424938 57.537677 
L 339.404938 57.124063 
L 340.196938 56.825876 
L 340.592938 56.710449 
L 341.384938 56.152551 
L 343.364937 55.921697 
L 343.760938 55.844745 
L 344.552937 55.498464 
L 346.136938 55.26761 
L 347.720937 55.055993 
L 349.304938 54.555809 
L 349.700938 54.344193 
L 351.284938 54.19029 
L 356.432938 53.767057 
L 359.204938 53.420776 
L 359.996938 53.132208 
L 361.580938 52.837228 
L 363.956938 52.478121 
L 364.748938 52.03565 
L 367.124937 51.400801 
L 368.708938 51.092995 
L 369.500938 50.842903 
L 370.292937 50.689 
L 371.876938 50.458146 
L 373.856938 49.996438 
L 375.044938 49.765583 
L 375.836938 49.630918 
L 376.232938 49.477016 
L 376.628938 49.16921 
L 377.420938 48.745977 
L 377.816937 48.36122 
L 379.004937 47.918749 
L 386.528937 46.418197 
L 387.320938 46.341245 
L 387.716938 46.148867 
L 388.508938 45.93725 
L 389.300938 45.39859 
L 389.696937 45.321639 
L 390.488938 44.85993 
L 391.676938 44.667552 
L 394.844938 44.14813 
L 395.636938 43.917275 
L 401.180938 43.166999 
L 403.160938 42.628339 
L 408.704938 42.147393 
L 409.892938 41.916539 
L 410.288937 41.685684 
L 412.268938 41.416354 
L 412.664938 41.262451 
L 414.248938 41.108549 
L 415.040938 40.569889 
L 417.812938 40.204369 
L 420.188938 39.627234 
L 421.772938 39.280952 
L 422.168938 39.050098 
L 424.940938 38.838482 
L 427.712938 38.703817 
L 429.692938 38.030492 
L 432.068938 37.741924 
L 434.840937 37.607259 
L 436.028938 36.991648 
L 436.424938 36.914696 
L 441.572938 36.568415 
L 441.968938 36.510701 
L 444.740938 36.356798 
L 446.324938 36.145182 
L 447.512938 35.991279 
L 448.700938 35.741187 
L 449.096938 35.644998 
L 455.432938 35.221765 
L 457.412937 35.144814 
L 460.580938 34.336824 
L 462.956937 34.105969 
L 464.144938 33.721212 
L 466.124937 33.548072 
L 466.916938 33.374931 
L 468.896938 33.182552 
L 471.668937 32.855509 
L 474.836938 32.566941 
L 481.172937 32.239898 
L 481.964938 32.009043 
L 486.716938 31.682 
L 489.488938 31.451145 
L 495.032938 31.008675 
L 495.824938 30.643156 
L 497.408938 30.470015 
L 499.784938 30.296874 
L 502.556938 30.162209 
L 502.952938 30.104496 
L 507.308938 29.873641 
L 508.496938 29.565836 
L 510.080938 29.411933 
L 511.664938 29.142603 
L 513.248938 29.065651 
L 514.436937 28.757846 
L 515.228938 28.642419 
L 521.960938 28.219186 
L 523.148938 28.065283 
L 527.108938 27.892142 
L 527.504938 27.815191 
L 531.860938 27.64205 
L 535.028938 27.334245 
L 535.820938 27.218817 
L 554.432938 26.218449 
L 557.996938 26.02607 
L 560.372938 25.814454 
L 571.460938 24.390853 
L 580.568938 24.217712 
L 588.092938 23.871431 
L 595.220937 23.101916 
L 595.616938 22.967251 
L 599.180938 22.601732 
L 604.724938 22.467067 
L 608.288938 21.986121 
L 608.684938 21.870694 
L 610.664938 21.716791 
L 619.376938 21.447461 
L 620.564938 21.197369 
L 636.008938 20.389379 
L 636.800938 20.254714 
L 644.324938 20.062335 
L 645.116938 19.908433 
L 655.412938 19.042729 
L 700.160938 17.041992 
L 700.160938 17.041992 
" style="fill:none;stroke:#0173b2;stroke-linecap:round;stroke-width:1.5;"/>
   </g>
   <g id="patch_3">
    <path d="M 86.360938 626.881992 
L 86.360938 17.041992 
" style="fill:none;stroke:#cccccc;stroke-linecap:square;stroke-linejoin:miter;stroke-width:1.25;"/>
   </g>
   <g id="patch_4">
    <path d="M 700.160938 626.881992 
L 700.160938 17.041992 
" style="fill:none;stroke:#cccccc;stroke-linecap:square;stroke-linejoin:miter;stroke-width:1.25;"/>
   </g>
   <g id="patch_5">
    <path d="M 86.360938 626.881992 
L 700.160938 626.881992 
" style="fill:none;stroke:#cccccc;stroke-linecap:square;stroke-linejoin:miter;stroke-width:1.25;"/>
   </g>
   <g id="patch_6">
    <path d="M 86.360938 17.041992 
L 700.160938 17.041992 
" style="fill:none;stroke:#cccccc;stroke-linecap:square;stroke-linejoin:miter;stroke-width:1.25;"/>
   </g>
  </g>
 </g>
 <defs>
  <clipPath id="p4ba8f09ec8">
   <rect height="609.84" width="613.8" x="86.360938" y="17.041992"/>
  </clipPath>
 </defs>
</svg>
