<?xml version="1.0" encoding="utf-8" standalone="no"?>
<!DOCTYPE svg PUBLIC "-//W3C//DTD SVG 1.1//EN"
  "http://www.w3.org/Graphics/SVG/1.1/DTD/svg11.dtd">
<svg height="700.167539pt" version="1.1" viewBox="0 0 726.473437 700.167539" width="726.473437pt" xmlns="http://www.w3.org/2000/svg" xmlns:xlink="http://www.w3.org/1999/xlink">
 <metadata>
  <rdf:RDF xmlns:cc="http://creativecommons.org/ns#" xmlns:dc="http://purl.org/dc/elements/1.1/" xmlns:rdf="http://www.w3.org/1999/02/22-rdf-syntax-ns#">
   <cc:Work>
    <dc:type rdf:resource="http://purl.org/dc/dcmitype/StillImage"/>
    <dc:date>2023-06-19T14:29:07.011332</dc:date>
    <dc:format>image/svg+xml</dc:format>
    <dc:creator>
     <cc:Agent>
      <dc:title>Matplotlib v3.4.3, https://matplotlib.org/</dc:title>
     </cc:Agent>
    </dc:creator>
   </cc:Work>
  </rdf:RDF>
 </metadata>
 <defs>
  <style type="text/css">*{stroke-linecap:butt;stroke-linejoin:round;}</style>
 </defs>
 <g id="figure_1">
  <g id="patch_1">
   <path d="M -0 700.167539 
L 726.473437 700.167539 
L 726.473437 0 
L -0 0 
z
" style="fill:#ffffff;"/>
  </g>
  <g id="axes_1">
   <g id="patch_2">
    <path d="M 86.360938 626.881992 
L 700.160938 626.881992 
L 700.160938 17.041992 
L 86.360938 17.041992 
z
" style="fill:#ffffff;"/>
   </g>
   <g id="matplotlib.axis_1">
    <g id="xtick_1">
     <g id="line2d_1">
      <path clip-path="url(#pbc536d9b26)" d="M 209.120938 626.881992 
L 209.120938 17.041992 
" style="fill:none;stroke:#cccccc;stroke-linecap:round;"/>
     </g>
     <g id="text_1">
      <!-- 0.2 -->
      <g style="fill:#262626;" transform="translate(190.008438 656.065977)scale(0.275 -0.275)">
       <defs>
        <path d="M 266 2259 
Q 266 3072 433 3567 
Q 600 4063 929 4331 
Q 1259 4600 1759 4600 
Q 2128 4600 2406 4451 
Q 2684 4303 2865 4023 
Q 3047 3744 3150 3342 
Q 3253 2941 3253 2259 
Q 3253 1453 3087 958 
Q 2922 463 2592 192 
Q 2263 -78 1759 -78 
Q 1097 -78 719 397 
Q 266 969 266 2259 
z
M 844 2259 
Q 844 1131 1108 757 
Q 1372 384 1759 384 
Q 2147 384 2411 759 
Q 2675 1134 2675 2259 
Q 2675 3391 2411 3762 
Q 2147 4134 1753 4134 
Q 1366 4134 1134 3806 
Q 844 3388 844 2259 
z
" id="ArialMT-30" transform="scale(0.015625)"/>
        <path d="M 581 0 
L 581 641 
L 1222 641 
L 1222 0 
L 581 0 
z
" id="ArialMT-2e" transform="scale(0.015625)"/>
        <path d="M 3222 541 
L 3222 0 
L 194 0 
Q 188 203 259 391 
Q 375 700 629 1000 
Q 884 1300 1366 1694 
Q 2113 2306 2375 2664 
Q 2638 3022 2638 3341 
Q 2638 3675 2398 3904 
Q 2159 4134 1775 4134 
Q 1369 4134 1125 3890 
Q 881 3647 878 3216 
L 300 3275 
Q 359 3922 746 4261 
Q 1134 4600 1788 4600 
Q 2447 4600 2831 4234 
Q 3216 3869 3216 3328 
Q 3216 3053 3103 2787 
Q 2991 2522 2730 2228 
Q 2469 1934 1863 1422 
Q 1356 997 1212 845 
Q 1069 694 975 541 
L 3222 541 
z
" id="ArialMT-32" transform="scale(0.015625)"/>
       </defs>
       <use xlink:href="#ArialMT-30"/>
       <use x="55.615234" xlink:href="#ArialMT-2e"/>
       <use x="83.398438" xlink:href="#ArialMT-32"/>
      </g>
     </g>
    </g>
    <g id="xtick_2">
     <g id="line2d_2">
      <path clip-path="url(#pbc536d9b26)" d="M 331.880938 626.881992 
L 331.880938 17.041992 
" style="fill:none;stroke:#cccccc;stroke-linecap:round;"/>
     </g>
     <g id="text_2">
      <!-- 0.4 -->
      <g style="fill:#262626;" transform="translate(312.768438 656.065977)scale(0.275 -0.275)">
       <defs>
        <path d="M 2069 0 
L 2069 1097 
L 81 1097 
L 81 1613 
L 2172 4581 
L 2631 4581 
L 2631 1613 
L 3250 1613 
L 3250 1097 
L 2631 1097 
L 2631 0 
L 2069 0 
z
M 2069 1613 
L 2069 3678 
L 634 1613 
L 2069 1613 
z
" id="ArialMT-34" transform="scale(0.015625)"/>
       </defs>
       <use xlink:href="#ArialMT-30"/>
       <use x="55.615234" xlink:href="#ArialMT-2e"/>
       <use x="83.398438" xlink:href="#ArialMT-34"/>
      </g>
     </g>
    </g>
    <g id="xtick_3">
     <g id="line2d_3">
      <path clip-path="url(#pbc536d9b26)" d="M 454.640938 626.881992 
L 454.640938 17.041992 
" style="fill:none;stroke:#cccccc;stroke-linecap:round;"/>
     </g>
     <g id="text_3">
      <!-- 0.6 -->
      <g style="fill:#262626;" transform="translate(435.528438 656.065977)scale(0.275 -0.275)">
       <defs>
        <path d="M 3184 3459 
L 2625 3416 
Q 2550 3747 2413 3897 
Q 2184 4138 1850 4138 
Q 1581 4138 1378 3988 
Q 1113 3794 959 3422 
Q 806 3050 800 2363 
Q 1003 2672 1297 2822 
Q 1591 2972 1913 2972 
Q 2475 2972 2870 2558 
Q 3266 2144 3266 1488 
Q 3266 1056 3080 686 
Q 2894 316 2569 119 
Q 2244 -78 1831 -78 
Q 1128 -78 684 439 
Q 241 956 241 2144 
Q 241 3472 731 4075 
Q 1159 4600 1884 4600 
Q 2425 4600 2770 4297 
Q 3116 3994 3184 3459 
z
M 888 1484 
Q 888 1194 1011 928 
Q 1134 663 1356 523 
Q 1578 384 1822 384 
Q 2178 384 2434 671 
Q 2691 959 2691 1453 
Q 2691 1928 2437 2201 
Q 2184 2475 1800 2475 
Q 1419 2475 1153 2201 
Q 888 1928 888 1484 
z
" id="ArialMT-36" transform="scale(0.015625)"/>
       </defs>
       <use xlink:href="#ArialMT-30"/>
       <use x="55.615234" xlink:href="#ArialMT-2e"/>
       <use x="83.398438" xlink:href="#ArialMT-36"/>
      </g>
     </g>
    </g>
    <g id="xtick_4">
     <g id="line2d_4">
      <path clip-path="url(#pbc536d9b26)" d="M 577.400938 626.881992 
L 577.400938 17.041992 
" style="fill:none;stroke:#cccccc;stroke-linecap:round;"/>
     </g>
     <g id="text_4">
      <!-- 0.8 -->
      <g style="fill:#262626;" transform="translate(558.288438 656.065977)scale(0.275 -0.275)">
       <defs>
        <path d="M 1131 2484 
Q 781 2613 612 2850 
Q 444 3088 444 3419 
Q 444 3919 803 4259 
Q 1163 4600 1759 4600 
Q 2359 4600 2725 4251 
Q 3091 3903 3091 3403 
Q 3091 3084 2923 2848 
Q 2756 2613 2416 2484 
Q 2838 2347 3058 2040 
Q 3278 1734 3278 1309 
Q 3278 722 2862 322 
Q 2447 -78 1769 -78 
Q 1091 -78 675 323 
Q 259 725 259 1325 
Q 259 1772 486 2073 
Q 713 2375 1131 2484 
z
M 1019 3438 
Q 1019 3113 1228 2906 
Q 1438 2700 1772 2700 
Q 2097 2700 2305 2904 
Q 2513 3109 2513 3406 
Q 2513 3716 2298 3927 
Q 2084 4138 1766 4138 
Q 1444 4138 1231 3931 
Q 1019 3725 1019 3438 
z
M 838 1322 
Q 838 1081 952 856 
Q 1066 631 1291 507 
Q 1516 384 1775 384 
Q 2178 384 2440 643 
Q 2703 903 2703 1303 
Q 2703 1709 2433 1975 
Q 2163 2241 1756 2241 
Q 1359 2241 1098 1978 
Q 838 1716 838 1322 
z
" id="ArialMT-38" transform="scale(0.015625)"/>
       </defs>
       <use xlink:href="#ArialMT-30"/>
       <use x="55.615234" xlink:href="#ArialMT-2e"/>
       <use x="83.398438" xlink:href="#ArialMT-38"/>
      </g>
     </g>
    </g>
    <g id="xtick_5">
     <g id="line2d_5">
      <path clip-path="url(#pbc536d9b26)" d="M 700.160938 626.881992 
L 700.160938 17.041992 
" style="fill:none;stroke:#cccccc;stroke-linecap:round;"/>
     </g>
     <g id="text_5">
      <!-- 1.0 -->
      <g style="fill:#262626;" transform="translate(681.048438 656.065977)scale(0.275 -0.275)">
       <defs>
        <path d="M 2384 0 
L 1822 0 
L 1822 3584 
Q 1619 3391 1289 3197 
Q 959 3003 697 2906 
L 697 3450 
Q 1169 3672 1522 3987 
Q 1875 4303 2022 4600 
L 2384 4600 
L 2384 0 
z
" id="ArialMT-31" transform="scale(0.015625)"/>
       </defs>
       <use xlink:href="#ArialMT-31"/>
       <use x="55.615234" xlink:href="#ArialMT-2e"/>
       <use x="83.398438" xlink:href="#ArialMT-30"/>
      </g>
     </g>
    </g>
    <g id="text_6">
     <!-- False Positive Rate -->
     <g style="fill:#262626;" transform="translate(264.045313 687.005039)scale(0.3 -0.3)">
      <defs>
       <path d="M 525 0 
L 525 4581 
L 3616 4581 
L 3616 4041 
L 1131 4041 
L 1131 2622 
L 3281 2622 
L 3281 2081 
L 1131 2081 
L 1131 0 
L 525 0 
z
" id="ArialMT-46" transform="scale(0.015625)"/>
       <path d="M 2588 409 
Q 2275 144 1986 34 
Q 1697 -75 1366 -75 
Q 819 -75 525 192 
Q 231 459 231 875 
Q 231 1119 342 1320 
Q 453 1522 633 1644 
Q 813 1766 1038 1828 
Q 1203 1872 1538 1913 
Q 2219 1994 2541 2106 
Q 2544 2222 2544 2253 
Q 2544 2597 2384 2738 
Q 2169 2928 1744 2928 
Q 1347 2928 1158 2789 
Q 969 2650 878 2297 
L 328 2372 
Q 403 2725 575 2942 
Q 747 3159 1072 3276 
Q 1397 3394 1825 3394 
Q 2250 3394 2515 3294 
Q 2781 3194 2906 3042 
Q 3031 2891 3081 2659 
Q 3109 2516 3109 2141 
L 3109 1391 
Q 3109 606 3145 398 
Q 3181 191 3288 0 
L 2700 0 
Q 2613 175 2588 409 
z
M 2541 1666 
Q 2234 1541 1622 1453 
Q 1275 1403 1131 1340 
Q 988 1278 909 1158 
Q 831 1038 831 891 
Q 831 666 1001 516 
Q 1172 366 1500 366 
Q 1825 366 2078 508 
Q 2331 650 2450 897 
Q 2541 1088 2541 1459 
L 2541 1666 
z
" id="ArialMT-61" transform="scale(0.015625)"/>
       <path d="M 409 0 
L 409 4581 
L 972 4581 
L 972 0 
L 409 0 
z
" id="ArialMT-6c" transform="scale(0.015625)"/>
       <path d="M 197 991 
L 753 1078 
Q 800 744 1014 566 
Q 1228 388 1613 388 
Q 2000 388 2187 545 
Q 2375 703 2375 916 
Q 2375 1106 2209 1216 
Q 2094 1291 1634 1406 
Q 1016 1563 777 1677 
Q 538 1791 414 1992 
Q 291 2194 291 2438 
Q 291 2659 392 2848 
Q 494 3038 669 3163 
Q 800 3259 1026 3326 
Q 1253 3394 1513 3394 
Q 1903 3394 2198 3281 
Q 2494 3169 2634 2976 
Q 2775 2784 2828 2463 
L 2278 2388 
Q 2241 2644 2061 2787 
Q 1881 2931 1553 2931 
Q 1166 2931 1000 2803 
Q 834 2675 834 2503 
Q 834 2394 903 2306 
Q 972 2216 1119 2156 
Q 1203 2125 1616 2013 
Q 2213 1853 2448 1751 
Q 2684 1650 2818 1456 
Q 2953 1263 2953 975 
Q 2953 694 2789 445 
Q 2625 197 2315 61 
Q 2006 -75 1616 -75 
Q 969 -75 630 194 
Q 291 463 197 991 
z
" id="ArialMT-73" transform="scale(0.015625)"/>
       <path d="M 2694 1069 
L 3275 997 
Q 3138 488 2766 206 
Q 2394 -75 1816 -75 
Q 1088 -75 661 373 
Q 234 822 234 1631 
Q 234 2469 665 2931 
Q 1097 3394 1784 3394 
Q 2450 3394 2872 2941 
Q 3294 2488 3294 1666 
Q 3294 1616 3291 1516 
L 816 1516 
Q 847 969 1125 678 
Q 1403 388 1819 388 
Q 2128 388 2347 550 
Q 2566 713 2694 1069 
z
M 847 1978 
L 2700 1978 
Q 2663 2397 2488 2606 
Q 2219 2931 1791 2931 
Q 1403 2931 1139 2672 
Q 875 2413 847 1978 
z
" id="ArialMT-65" transform="scale(0.015625)"/>
       <path id="ArialMT-20" transform="scale(0.015625)"/>
       <path d="M 494 0 
L 494 4581 
L 2222 4581 
Q 2678 4581 2919 4538 
Q 3256 4481 3484 4323 
Q 3713 4166 3852 3881 
Q 3991 3597 3991 3256 
Q 3991 2672 3619 2267 
Q 3247 1863 2275 1863 
L 1100 1863 
L 1100 0 
L 494 0 
z
M 1100 2403 
L 2284 2403 
Q 2872 2403 3119 2622 
Q 3366 2841 3366 3238 
Q 3366 3525 3220 3729 
Q 3075 3934 2838 4000 
Q 2684 4041 2272 4041 
L 1100 4041 
L 1100 2403 
z
" id="ArialMT-50" transform="scale(0.015625)"/>
       <path d="M 213 1659 
Q 213 2581 725 3025 
Q 1153 3394 1769 3394 
Q 2453 3394 2887 2945 
Q 3322 2497 3322 1706 
Q 3322 1066 3130 698 
Q 2938 331 2570 128 
Q 2203 -75 1769 -75 
Q 1072 -75 642 372 
Q 213 819 213 1659 
z
M 791 1659 
Q 791 1022 1069 705 
Q 1347 388 1769 388 
Q 2188 388 2466 706 
Q 2744 1025 2744 1678 
Q 2744 2294 2464 2611 
Q 2184 2928 1769 2928 
Q 1347 2928 1069 2612 
Q 791 2297 791 1659 
z
" id="ArialMT-6f" transform="scale(0.015625)"/>
       <path d="M 425 3934 
L 425 4581 
L 988 4581 
L 988 3934 
L 425 3934 
z
M 425 0 
L 425 3319 
L 988 3319 
L 988 0 
L 425 0 
z
" id="ArialMT-69" transform="scale(0.015625)"/>
       <path d="M 1650 503 
L 1731 6 
Q 1494 -44 1306 -44 
Q 1000 -44 831 53 
Q 663 150 594 308 
Q 525 466 525 972 
L 525 2881 
L 113 2881 
L 113 3319 
L 525 3319 
L 525 4141 
L 1084 4478 
L 1084 3319 
L 1650 3319 
L 1650 2881 
L 1084 2881 
L 1084 941 
Q 1084 700 1114 631 
Q 1144 563 1211 522 
Q 1278 481 1403 481 
Q 1497 481 1650 503 
z
" id="ArialMT-74" transform="scale(0.015625)"/>
       <path d="M 1344 0 
L 81 3319 
L 675 3319 
L 1388 1331 
Q 1503 1009 1600 663 
Q 1675 925 1809 1294 
L 2547 3319 
L 3125 3319 
L 1869 0 
L 1344 0 
z
" id="ArialMT-76" transform="scale(0.015625)"/>
       <path d="M 503 0 
L 503 4581 
L 2534 4581 
Q 3147 4581 3465 4457 
Q 3784 4334 3975 4021 
Q 4166 3709 4166 3331 
Q 4166 2844 3850 2509 
Q 3534 2175 2875 2084 
Q 3116 1969 3241 1856 
Q 3506 1613 3744 1247 
L 4541 0 
L 3778 0 
L 3172 953 
Q 2906 1366 2734 1584 
Q 2563 1803 2427 1890 
Q 2291 1978 2150 2013 
Q 2047 2034 1813 2034 
L 1109 2034 
L 1109 0 
L 503 0 
z
M 1109 2559 
L 2413 2559 
Q 2828 2559 3062 2645 
Q 3297 2731 3419 2920 
Q 3541 3109 3541 3331 
Q 3541 3656 3305 3865 
Q 3069 4075 2559 4075 
L 1109 4075 
L 1109 2559 
z
" id="ArialMT-52" transform="scale(0.015625)"/>
      </defs>
      <use xlink:href="#ArialMT-46"/>
      <use x="61.083984" xlink:href="#ArialMT-61"/>
      <use x="116.699219" xlink:href="#ArialMT-6c"/>
      <use x="138.916016" xlink:href="#ArialMT-73"/>
      <use x="188.916016" xlink:href="#ArialMT-65"/>
      <use x="244.53125" xlink:href="#ArialMT-20"/>
      <use x="272.314453" xlink:href="#ArialMT-50"/>
      <use x="339.013672" xlink:href="#ArialMT-6f"/>
      <use x="394.628906" xlink:href="#ArialMT-73"/>
      <use x="444.628906" xlink:href="#ArialMT-69"/>
      <use x="466.845703" xlink:href="#ArialMT-74"/>
      <use x="494.628906" xlink:href="#ArialMT-69"/>
      <use x="516.845703" xlink:href="#ArialMT-76"/>
      <use x="566.845703" xlink:href="#ArialMT-65"/>
      <use x="622.460938" xlink:href="#ArialMT-20"/>
      <use x="650.244141" xlink:href="#ArialMT-52"/>
      <use x="722.460938" xlink:href="#ArialMT-61"/>
      <use x="778.076172" xlink:href="#ArialMT-74"/>
      <use x="805.859375" xlink:href="#ArialMT-65"/>
     </g>
    </g>
   </g>
   <g id="matplotlib.axis_2">
    <g id="ytick_1">
     <g id="line2d_6">
      <path clip-path="url(#pbc536d9b26)" d="M 86.360938 626.881992 
L 700.160938 626.881992 
" style="fill:none;stroke:#cccccc;stroke-linecap:round;"/>
     </g>
     <g id="text_7">
      <!-- 0.0 -->
      <g style="fill:#262626;" transform="translate(38.635938 636.723984)scale(0.275 -0.275)">
       <use xlink:href="#ArialMT-30"/>
       <use x="55.615234" xlink:href="#ArialMT-2e"/>
       <use x="83.398438" xlink:href="#ArialMT-30"/>
      </g>
     </g>
    </g>
    <g id="ytick_2">
     <g id="line2d_7">
      <path clip-path="url(#pbc536d9b26)" d="M 86.360938 504.913992 
L 700.160938 504.913992 
" style="fill:none;stroke:#cccccc;stroke-linecap:round;"/>
     </g>
     <g id="text_8">
      <!-- 0.2 -->
      <g style="fill:#262626;" transform="translate(38.635938 514.755984)scale(0.275 -0.275)">
       <use xlink:href="#ArialMT-30"/>
       <use x="55.615234" xlink:href="#ArialMT-2e"/>
       <use x="83.398438" xlink:href="#ArialMT-32"/>
      </g>
     </g>
    </g>
    <g id="ytick_3">
     <g id="line2d_8">
      <path clip-path="url(#pbc536d9b26)" d="M 86.360938 382.945992 
L 700.160938 382.945992 
" style="fill:none;stroke:#cccccc;stroke-linecap:round;"/>
     </g>
     <g id="text_9">
      <!-- 0.4 -->
      <g style="fill:#262626;" transform="translate(38.635938 392.787984)scale(0.275 -0.275)">
       <use xlink:href="#ArialMT-30"/>
       <use x="55.615234" xlink:href="#ArialMT-2e"/>
       <use x="83.398438" xlink:href="#ArialMT-34"/>
      </g>
     </g>
    </g>
    <g id="ytick_4">
     <g id="line2d_9">
      <path clip-path="url(#pbc536d9b26)" d="M 86.360938 260.977992 
L 700.160938 260.977992 
" style="fill:none;stroke:#cccccc;stroke-linecap:round;"/>
     </g>
     <g id="text_10">
      <!-- 0.6 -->
      <g style="fill:#262626;" transform="translate(38.635938 270.819984)scale(0.275 -0.275)">
       <use xlink:href="#ArialMT-30"/>
       <use x="55.615234" xlink:href="#ArialMT-2e"/>
       <use x="83.398438" xlink:href="#ArialMT-36"/>
      </g>
     </g>
    </g>
    <g id="ytick_5">
     <g id="line2d_10">
      <path clip-path="url(#pbc536d9b26)" d="M 86.360938 139.009992 
L 700.160938 139.009992 
" style="fill:none;stroke:#cccccc;stroke-linecap:round;"/>
     </g>
     <g id="text_11">
      <!-- 0.8 -->
      <g style="fill:#262626;" transform="translate(38.635938 148.851984)scale(0.275 -0.275)">
       <use xlink:href="#ArialMT-30"/>
       <use x="55.615234" xlink:href="#ArialMT-2e"/>
       <use x="83.398438" xlink:href="#ArialMT-38"/>
      </g>
     </g>
    </g>
    <g id="ytick_6">
     <g id="line2d_11">
      <path clip-path="url(#pbc536d9b26)" d="M 86.360938 17.041992 
L 700.160938 17.041992 
" style="fill:none;stroke:#cccccc;stroke-linecap:round;"/>
     </g>
     <g id="text_12">
      <!-- 1.0 -->
      <g style="fill:#262626;" transform="translate(38.635938 26.883984)scale(0.275 -0.275)">
       <use xlink:href="#ArialMT-31"/>
       <use x="55.615234" xlink:href="#ArialMT-2e"/>
       <use x="83.398438" xlink:href="#ArialMT-30"/>
      </g>
     </g>
    </g>
    <g id="text_13">
     <!-- True Positive Rate -->
     <g style="fill:#262626;" transform="translate(28.673437 444.776836)rotate(-90)scale(0.3 -0.3)">
      <defs>
       <path d="M 1659 0 
L 1659 4041 
L 150 4041 
L 150 4581 
L 3781 4581 
L 3781 4041 
L 2266 4041 
L 2266 0 
L 1659 0 
z
" id="ArialMT-54" transform="scale(0.015625)"/>
       <path d="M 416 0 
L 416 3319 
L 922 3319 
L 922 2816 
Q 1116 3169 1280 3281 
Q 1444 3394 1641 3394 
Q 1925 3394 2219 3213 
L 2025 2691 
Q 1819 2813 1613 2813 
Q 1428 2813 1281 2702 
Q 1134 2591 1072 2394 
Q 978 2094 978 1738 
L 978 0 
L 416 0 
z
" id="ArialMT-72" transform="scale(0.015625)"/>
       <path d="M 2597 0 
L 2597 488 
Q 2209 -75 1544 -75 
Q 1250 -75 995 37 
Q 741 150 617 320 
Q 494 491 444 738 
Q 409 903 409 1263 
L 409 3319 
L 972 3319 
L 972 1478 
Q 972 1038 1006 884 
Q 1059 663 1231 536 
Q 1403 409 1656 409 
Q 1909 409 2131 539 
Q 2353 669 2445 892 
Q 2538 1116 2538 1541 
L 2538 3319 
L 3100 3319 
L 3100 0 
L 2597 0 
z
" id="ArialMT-75" transform="scale(0.015625)"/>
      </defs>
      <use xlink:href="#ArialMT-54"/>
      <use x="57.333984" xlink:href="#ArialMT-72"/>
      <use x="90.634766" xlink:href="#ArialMT-75"/>
      <use x="146.25" xlink:href="#ArialMT-65"/>
      <use x="201.865234" xlink:href="#ArialMT-20"/>
      <use x="229.648438" xlink:href="#ArialMT-50"/>
      <use x="296.347656" xlink:href="#ArialMT-6f"/>
      <use x="351.962891" xlink:href="#ArialMT-73"/>
      <use x="401.962891" xlink:href="#ArialMT-69"/>
      <use x="424.179688" xlink:href="#ArialMT-74"/>
      <use x="451.962891" xlink:href="#ArialMT-69"/>
      <use x="474.179688" xlink:href="#ArialMT-76"/>
      <use x="524.179688" xlink:href="#ArialMT-65"/>
      <use x="579.794922" xlink:href="#ArialMT-20"/>
      <use x="607.578125" xlink:href="#ArialMT-52"/>
      <use x="679.794922" xlink:href="#ArialMT-61"/>
      <use x="735.410156" xlink:href="#ArialMT-74"/>
      <use x="763.193359" xlink:href="#ArialMT-65"/>
     </g>
    </g>
   </g>
   <g id="PolyCollection_1">
    <path clip-path="url(#pbc536d9b26)" d="M 86.360938 624.191955 
L 86.360938 625.475161 
L 86.756938 621.719834 
L 87.152938 621.110636 
L 87.548938 620.379597 
L 89.528938 619.309973 
L 89.924938 618.246944 
L 90.320937 617.320778 
L 90.716938 616.070318 
L 91.112938 615.954891 
L 91.508938 615.121571 
L 92.300938 611.087247 
L 92.696938 605.143216 
L 93.092938 604.26597 
L 93.488938 603.459904 
L 93.884938 602.950101 
L 94.280938 602.911625 
L 94.676938 602.719246 
L 95.072938 599.162872 
L 95.468938 591.869096 
L 95.864938 590.645569 
L 96.260938 589.220685 
L 96.656938 588.406282 
L 97.052938 585.155735 
L 97.448938 572.32857 
L 98.240938 554.371395 
L 98.636938 540.178997 
L 99.032938 534.457978 
L 99.824938 533.80925 
L 100.220938 533.201334 
L 100.616938 532.231746 
L 101.012938 531.885465 
L 101.804938 531.500708 
L 102.200938 531.154426 
L 102.596938 530.875477 
L 102.992938 530.000155 
L 103.388938 529.716397 
L 104.180938 529.230641 
L 104.576938 528.615029 
L 105.368938 526.501377 
L 105.764938 523.882517 
L 106.160938 523.475316 
L 106.556938 522.074159 
L 106.952938 521.477785 
L 107.744938 520.996839 
L 108.140938 520.53513 
L 108.536938 520.496655 
L 108.932938 520.381228 
L 108.932938 520.304276 
L 108.932938 520.304276 
L 108.536938 520.381228 
L 108.140938 520.496655 
L 107.744938 520.573606 
L 106.952938 521.093028 
L 106.556938 521.535499 
L 106.160938 522.962226 
L 105.764938 523.844041 
L 105.368938 525.380612 
L 104.576938 528.076369 
L 104.180938 528.615029 
L 103.388938 529.442257 
L 102.992938 529.884728 
L 102.596938 530.096344 
L 102.200938 531.000523 
L 101.804938 531.154426 
L 101.012938 531.500708 
L 100.616938 531.885465 
L 100.220938 532.547247 
L 99.824938 533.616872 
L 99.032938 534.023615 
L 98.636938 538.701251 
L 98.240938 551.426906 
L 97.448938 569.929799 
L 97.052938 583.584938 
L 96.656938 588.367807 
L 96.260938 588.72034 
L 95.864938 590.095366 
L 95.468938 591.291961 
L 95.072938 597.033434 
L 94.676938 602.065159 
L 94.280938 602.719246 
L 93.884938 602.911625 
L 93.488938 603.04629 
L 93.092938 603.98125 
L 92.696938 604.55753 
L 92.300938 609.952622 
L 91.508938 614.281197 
L 91.112938 615.223852 
L 90.716938 615.954891 
L 90.320937 616.368504 
L 89.924938 617.746759 
L 89.528938 618.844416 
L 87.548938 620.144895 
L 87.152938 620.5335 
L 86.756938 621.322252 
L 86.360938 624.191955 
z
" style="fill:#0173b2;fill-opacity:0.2;stroke:#0173b2;stroke-opacity:0.2;"/>
    <path clip-path="url(#pbc536d9b26)" d="M 109.724938 518.847696 
L 109.724938 519.323214 
L 110.120938 518.457442 
L 110.516938 517.976496 
L 111.308938 517.495549 
L 111.704937 515.56756 
L 112.100938 511.470638 
L 112.892938 508.420171 
L 112.892938 507.320247 
L 112.892938 507.320247 
L 112.100938 510.49297 
L 111.704937 514.23345 
L 111.308938 517.110792 
L 110.516938 517.591739 
L 110.120938 518.034209 
L 109.724938 518.847696 
z
" style="fill:#0173b2;fill-opacity:0.2;stroke:#0173b2;stroke-opacity:0.2;"/>
    <path clip-path="url(#pbc536d9b26)" d="M 113.684938 504.631837 
L 113.684938 504.875516 
L 114.080938 504.375813 
L 114.476938 503.990575 
L 114.872938 503.538486 
L 115.268938 501.974512 
L 115.664938 497.434906 
L 116.060938 494.217745 
L 116.456938 494.063842 
L 116.852938 493.589308 
L 117.248938 492.505576 
L 118.040938 492.024629 
L 118.436938 491.046247 
L 118.832938 489.369805 
L 119.624938 487.89811 
L 120.020938 483.85248 
L 120.416938 477.42329 
L 120.812938 475.072232 
L 121.208938 472.527482 
L 121.604938 462.243357 
L 122.000938 444.11 
L 122.396938 438.444281 
L 122.792938 435.638477 
L 123.188938 434.856137 
L 123.584938 434.388016 
L 123.980938 434.272589 
L 124.376938 432.323153 
L 125.168938 424.800517 
L 125.564938 415.436517 
L 125.960938 408.734517 
L 126.356938 404.673586 
L 126.752938 401.472046 
L 127.148938 400.798722 
L 127.544938 400.606343 
L 127.940938 400.298537 
L 128.336938 399.731021 
L 129.128938 398.615345 
L 129.524938 394.777273 
L 129.524938 394.47588 
L 129.524938 394.47588 
L 129.128938 397.095314 
L 128.336938 399.346263 
L 127.940938 399.798353 
L 127.544938 400.394727 
L 127.148938 400.644819 
L 126.752938 401.023163 
L 126.356938 403.663479 
L 125.960938 407.702707 
L 125.564938 413.96761 
L 125.168938 422.857062 
L 124.376938 431.123993 
L 123.980938 432.464231 
L 123.584938 434.272589 
L 123.188938 434.490618 
L 122.792938 435.321052 
L 122.396938 437.636254 
L 122.000938 442.669219 
L 121.604938 459.061527 
L 121.208938 471.334735 
L 120.812938 474.833682 
L 120.416938 476.053362 
L 120.020938 482.124348 
L 119.624938 487.599923 
L 118.832938 488.519065 
L 118.436938 490.568049 
L 118.040938 491.485969 
L 117.248938 492.120819 
L 116.852938 492.967284 
L 116.456938 494.025366 
L 116.060938 494.140793 
L 115.664938 495.490255 
L 115.268938 501.040707 
L 114.872938 503.124872 
L 114.476938 503.605818 
L 114.080938 504.009813 
L 113.684938 504.631837 
z
" style="fill:#0173b2;fill-opacity:0.2;stroke:#0173b2;stroke-opacity:0.2;"/>
    <path clip-path="url(#pbc536d9b26)" d="M 130.316937 393.572021 
L 130.316937 394.250156 
L 130.712938 393.219007 
L 131.108938 392.641871 
L 131.900937 385.145079 
L 132.692938 373.151607 
L 133.088938 368.617242 
L 133.484938 366.247534 
L 133.880938 365.381831 
L 134.276938 364.327596 
L 134.672938 362.900147 
L 135.464938 361.394845 
L 135.860938 358.52191 
L 136.256937 353.781404 
L 136.652938 351.520498 
L 137.048938 345.425408 
L 137.444938 340.314906 
L 137.840938 340.045576 
L 138.236938 339.814722 
L 138.632938 339.05162 
L 139.028938 338.314169 
L 139.424937 338.198742 
L 139.820938 337.621606 
L 140.216938 337.082946 
L 140.216938 336.698189 
L 140.216938 336.698189 
L 139.820938 337.082946 
L 139.424937 337.621606 
L 139.028938 338.198742 
L 138.632938 338.493722 
L 138.236938 339.429964 
L 137.840938 339.814722 
L 137.444938 340.045576 
L 137.048938 343.908262 
L 136.652938 350.071201 
L 136.256937 353.742928 
L 135.860938 357.440477 
L 135.464938 360.731019 
L 134.672938 362.361487 
L 134.276938 363.78884 
L 133.880938 364.679649 
L 133.484938 365.516496 
L 133.088938 367.619023 
L 132.692938 371.621848 
L 131.900937 382.775102 
L 131.108938 392.276352 
L 130.712938 392.718822 
L 130.316937 393.572021 
z
" style="fill:#0173b2;fill-opacity:0.2;stroke:#0173b2;stroke-opacity:0.2;"/>
    <path clip-path="url(#pbc536d9b26)" d="M 141.800938 336.198005 
L 141.800938 336.467335 
L 142.196938 336.159529 
L 142.196938 336.044102 
L 142.196938 336.044102 
L 141.800938 336.198005 
z
" style="fill:#0173b2;fill-opacity:0.2;stroke:#0173b2;stroke-opacity:0.2;"/>
    <path clip-path="url(#pbc536d9b26)" d="M 143.384938 335.813248 
L 143.384938 335.928675 
L 143.780938 335.774772 
L 144.572938 335.736296 
L 144.572938 335.620869 
L 144.572938 335.620869 
L 143.780938 335.736296 
L 143.384938 335.813248 
z
" style="fill:#0173b2;fill-opacity:0.2;stroke:#0173b2;stroke-opacity:0.2;"/>
    <path clip-path="url(#pbc536d9b26)" d="M 145.760938 335.082209 
L 145.760938 335.274588 
L 146.156937 335.082209 
L 146.948937 334.889831 
L 147.344938 334.774404 
L 147.740938 334.735928 
L 148.136938 334.572406 
L 148.532938 334.235744 
L 148.928938 331.257053 
L 149.324938 325.854612 
L 150.116938 322.308274 
L 150.512938 322.038944 
L 150.908938 321.923516 
L 151.304937 321.885041 
L 151.304937 321.846565 
L 151.304937 321.846565 
L 150.908938 321.885041 
L 150.512938 321.923516 
L 150.116938 322.115895 
L 149.324938 323.828064 
L 148.928938 329.688527 
L 148.532938 334.004889 
L 148.136938 334.312695 
L 147.740938 334.582025 
L 147.344938 334.735928 
L 146.948937 334.774404 
L 146.156937 334.889831 
L 145.760938 335.082209 
z
" style="fill:#0173b2;fill-opacity:0.2;stroke:#0173b2;stroke-opacity:0.2;"/>
    <path clip-path="url(#pbc536d9b26)" d="M 153.284938 321.731138 
L 153.284938 321.769614 
L 153.680938 321.731138 
L 154.076938 321.692662 
L 154.472938 321.654187 
L 154.472938 321.615711 
L 154.472938 321.615711 
L 154.076938 321.654187 
L 153.680938 321.692662 
L 153.284938 321.731138 
z
" style="fill:#0173b2;fill-opacity:0.2;stroke:#0173b2;stroke-opacity:0.2;"/>
    <path clip-path="url(#pbc536d9b26)" d="M 156.056938 321.096289 
L 156.056938 321.500284 
L 156.452938 321.000099 
L 156.848938 320.884672 
L 157.244937 320.807721 
L 158.432938 320.653818 
L 158.828937 320.499915 
L 159.224938 320.422964 
L 159.620938 320.307537 
L 160.016938 320.038207 
L 160.412937 319.961255 
L 160.808938 319.884304 
L 161.204938 319.676535 
L 161.204938 319.383927 
L 161.204938 319.383927 
L 160.808938 319.768877 
L 160.412937 319.884304 
L 160.016938 319.961255 
L 159.620938 320.038207 
L 159.224938 320.307537 
L 158.828937 320.46144 
L 158.432938 320.499915 
L 157.244937 320.653818 
L 156.848938 320.807721 
L 156.452938 320.884672 
L 156.056938 321.096289 
z
" style="fill:#0173b2;fill-opacity:0.2;stroke:#0173b2;stroke-opacity:0.2;"/>
    <path clip-path="url(#pbc536d9b26)" d="M 163.184937 318.710795 
L 163.184937 318.864698 
L 163.580938 318.691557 
L 163.976938 318.3068 
L 163.976938 318.229848 
L 163.976938 318.229848 
L 163.580938 318.57613 
L 163.184937 318.710795 
z
" style="fill:#0173b2;fill-opacity:0.2;stroke:#0173b2;stroke-opacity:0.2;"/>
    <path clip-path="url(#pbc536d9b26)" d="M 165.164938 317.835472 
L 165.164938 318.075945 
L 165.560938 317.76814 
L 165.956938 317.729664 
L 166.748938 317.575761 
L 167.144938 317.537286 
L 167.540938 317.421858 
L 167.936937 317.344907 
L 168.332938 317.22948 
L 168.728938 316.613869 
L 169.124937 316.306063 
L 169.520938 316.15216 
L 169.520938 316.113684 
L 169.520938 316.113684 
L 169.124937 316.15216 
L 168.728938 316.306063 
L 168.332938 316.613869 
L 167.936937 317.22948 
L 167.540938 317.344907 
L 167.144938 317.421858 
L 166.748938 317.537286 
L 165.956938 317.575761 
L 165.560938 317.729664 
L 165.164938 317.835472 
z
" style="fill:#0173b2;fill-opacity:0.2;stroke:#0173b2;stroke-opacity:0.2;"/>
    <path clip-path="url(#pbc536d9b26)" d="M 170.312938 315.549374 
L 170.312938 315.889243 
L 170.708938 315.305694 
L 171.104938 314.920937 
L 171.500938 314.151423 
L 172.292938 311.95446 
L 172.688938 309.303484 
L 172.688938 308.995678 
L 172.688938 308.995678 
L 172.292938 311.034789 
L 171.500938 313.574287 
L 171.104938 314.151423 
L 170.708938 314.940175 
L 170.312938 315.549374 
z
" style="fill:#0173b2;fill-opacity:0.2;stroke:#0173b2;stroke-opacity:0.2;"/>
    <path clip-path="url(#pbc536d9b26)" d="M 173.876937 308.741738 
L 173.876937 308.911031 
L 174.272938 308.687872 
L 174.668938 308.610921 
L 175.460938 308.572445 
L 175.856938 308.533969 
L 176.648938 308.341591 
L 177.044938 308.303115 
L 177.440938 308.26464 
L 177.836938 308.226164 
L 178.232938 308.110737 
L 179.024938 308.072261 
L 179.420938 307.879882 
L 179.816937 307.572077 
L 180.212938 307.418174 
L 180.608938 307.341222 
L 181.004938 307.225795 
L 181.400938 306.994941 
L 182.192938 306.879514 
L 182.588938 306.706373 
L 182.984938 306.01862 
L 184.172938 305.218646 
L 184.964938 304.801826 
L 185.756937 304.724874 
L 186.152938 304.532496 
L 186.548938 304.292022 
L 186.944938 303.993836 
L 187.340938 303.455176 
L 187.736938 303.339749 
L 188.132938 303.070419 
L 188.528938 302.993467 
L 188.528938 302.954992 
L 188.528938 302.954992 
L 188.132938 303.031943 
L 187.736938 303.089657 
L 187.340938 303.4167 
L 186.944938 303.455176 
L 186.548938 304.013074 
L 186.152938 304.378593 
L 185.756937 304.532496 
L 184.964938 304.724874 
L 184.172938 304.968554 
L 182.984938 305.725243 
L 182.588938 306.28314 
L 182.192938 306.841038 
L 181.400938 306.879514 
L 181.004938 306.994941 
L 180.608938 307.225795 
L 180.212938 307.341222 
L 179.816937 307.418174 
L 179.420938 307.572077 
L 179.024938 307.879882 
L 178.232938 308.072261 
L 177.836938 308.110737 
L 177.440938 308.226164 
L 177.044938 308.26464 
L 176.648938 308.303115 
L 175.856938 308.341591 
L 175.460938 308.533969 
L 174.668938 308.572445 
L 174.272938 308.610921 
L 173.876937 308.741738 
z
" style="fill:#0173b2;fill-opacity:0.2;stroke:#0173b2;stroke-opacity:0.2;"/>
    <path clip-path="url(#pbc536d9b26)" d="M 190.112938 302.60871 
L 190.112938 302.685662 
L 190.112938 302.60871 
L 190.112938 302.60871 
z
" style="fill:#0173b2;fill-opacity:0.2;stroke:#0173b2;stroke-opacity:0.2;"/>
    <path clip-path="url(#pbc536d9b26)" d="M 192.488938 302.249604 
L 192.488938 302.454807 
L 192.488938 302.249604 
L 192.488938 302.249604 
z
" style="fill:#0173b2;fill-opacity:0.2;stroke:#0173b2;stroke-opacity:0.2;"/>
    <path clip-path="url(#pbc536d9b26)" d="M 195.260938 302.031575 
L 195.260938 302.07005 
L 196.448937 302.031575 
L 197.240938 301.954623 
L 197.636938 301.80072 
L 198.032938 301.762245 
L 199.220938 301.685293 
L 199.220938 301.608342 
L 199.220938 301.608342 
L 198.032938 301.685293 
L 197.636938 301.762245 
L 197.240938 301.80072 
L 196.448937 301.954623 
L 195.260938 302.031575 
z
" style="fill:#0173b2;fill-opacity:0.2;stroke:#0173b2;stroke-opacity:0.2;"/>
    <path clip-path="url(#pbc536d9b26)" d="M 201.200938 301.415963 
L 201.200938 301.569866 
L 201.596938 301.415963 
L 201.992938 301.339012 
L 202.388937 301.185109 
L 202.784938 300.761876 
L 203.180938 300.030838 
L 203.576938 299.492178 
L 204.368938 299.107421 
L 204.764938 298.491809 
L 205.556938 297.18722 
L 205.952938 295.606131 
L 206.348938 294.18253 
L 206.744938 293.093667 
L 207.140938 292.29722 
L 207.536938 291.989414 
L 207.932938 291.450754 
L 208.724938 290.069573 
L 209.120938 287.295378 
L 209.516938 286.949096 
L 209.912938 284.393347 
L 210.308938 279.706044 
L 210.704938 275.906568 
L 211.100938 275.598762 
L 211.892938 275.290956 
L 212.288938 275.015214 
L 212.684938 274.213636 
L 213.080938 273.636501 
L 213.872938 272.198471 
L 214.268937 269.827405 
L 214.268937 268.788561 
L 214.268937 268.788561 
L 213.872938 271.005604 
L 213.080938 273.097841 
L 212.684938 273.636501 
L 212.288938 274.515029 
L 211.892938 275.137053 
L 211.100938 275.290956 
L 210.704938 275.598762 
L 210.308938 276.618368 
L 209.912938 282.076354 
L 209.516938 286.795193 
L 209.120938 286.949096 
L 208.724938 288.976574 
L 207.932938 290.912094 
L 207.536938 291.450754 
L 207.140938 292.02789 
L 206.744938 292.643501 
L 206.348938 293.624632 
L 205.952938 294.336433 
L 205.556938 296.407038 
L 204.764938 297.953149 
L 204.368938 298.491809 
L 203.576938 299.107421 
L 203.180938 299.597986 
L 202.784938 300.200131 
L 202.388937 301.069682 
L 201.992938 301.185109 
L 201.596938 301.339012 
L 201.200938 301.415963 
z
" style="fill:#0173b2;fill-opacity:0.2;stroke:#0173b2;stroke-opacity:0.2;"/>
    <path clip-path="url(#pbc536d9b26)" d="M 215.456938 268.596183 
L 215.456938 268.634658 
L 215.456938 268.596183 
L 215.456938 268.596183 
z
" style="fill:#0173b2;fill-opacity:0.2;stroke:#0173b2;stroke-opacity:0.2;"/>
    <path clip-path="url(#pbc536d9b26)" d="M 216.248938 268.288377 
L 216.248938 268.326853 
L 217.040938 268.288377 
L 217.436938 268.17295 
L 217.832938 268.057523 
L 218.228938 268.019047 
L 218.228938 267.980571 
L 218.228938 267.980571 
L 217.832938 268.019047 
L 217.436938 268.057523 
L 217.040938 268.249901 
L 216.248938 268.288377 
z
" style="fill:#0173b2;fill-opacity:0.2;stroke:#0173b2;stroke-opacity:0.2;"/>
    <path clip-path="url(#pbc536d9b26)" d="M 220.604938 267.865144 
L 220.604938 267.90362 
L 220.604938 267.865144 
L 220.604938 267.865144 
z
" style="fill:#0173b2;fill-opacity:0.2;stroke:#0173b2;stroke-opacity:0.2;"/>
    <path clip-path="url(#pbc536d9b26)" d="M 223.772938 267.63429 
L 223.772938 267.672766 
L 224.168938 267.63429 
L 224.168938 267.518863 
L 224.168938 267.518863 
L 223.772938 267.63429 
z
" style="fill:#0173b2;fill-opacity:0.2;stroke:#0173b2;stroke-opacity:0.2;"/>
    <path clip-path="url(#pbc536d9b26)" d="M 229.316938 266.864776 
L 229.316938 266.903251 
L 230.504938 266.864776 
L 230.504938 266.8263 
L 230.504938 266.8263 
L 229.316938 266.864776 
z
" style="fill:#0173b2;fill-opacity:0.2;stroke:#0173b2;stroke-opacity:0.2;"/>
    <path clip-path="url(#pbc536d9b26)" d="M 231.692938 266.633922 
L 231.692938 266.749349 
L 232.088938 266.633922 
L 232.880938 266.595446 
L 233.672938 266.441543 
L 234.068938 266.403067 
L 234.068938 266.364592 
L 234.068938 266.364592 
L 233.672938 266.403067 
L 232.880938 266.480019 
L 232.088938 266.595446 
L 231.692938 266.633922 
z
" style="fill:#0173b2;fill-opacity:0.2;stroke:#0173b2;stroke-opacity:0.2;"/>
    <path clip-path="url(#pbc536d9b26)" d="M 235.652938 266.326116 
L 235.652938 266.364592 
L 235.652938 266.326116 
L 235.652938 266.326116 
z
" style="fill:#0173b2;fill-opacity:0.2;stroke:#0173b2;stroke-opacity:0.2;"/>
    <path clip-path="url(#pbc536d9b26)" d="M 240.800938 266.28764 
L 240.800938 266.326116 
L 241.196938 266.28764 
L 241.196938 266.249164 
L 241.196938 266.249164 
L 240.800938 266.28764 
z
" style="fill:#0173b2;fill-opacity:0.2;stroke:#0173b2;stroke-opacity:0.2;"/>
    <path clip-path="url(#pbc536d9b26)" d="M 243.968938 266.133737 
L 243.968938 266.172213 
L 243.968938 266.133737 
L 243.968938 266.133737 
z
" style="fill:#0173b2;fill-opacity:0.2;stroke:#0173b2;stroke-opacity:0.2;"/>
    <path clip-path="url(#pbc536d9b26)" d="M 250.700938 266.056786 
L 250.700938 266.095262 
L 251.492938 266.056786 
L 252.284938 265.979834 
L 253.076938 265.902883 
L 253.868938 265.74898 
L 255.848938 265.633553 
L 256.244938 265.595077 
L 257.036938 265.556602 
L 257.432937 265.518126 
L 257.828938 265.402699 
L 258.224938 265.287272 
L 258.620938 265.248796 
L 259.412937 265.21032 
L 259.808938 265.094893 
L 260.600937 265.017942 
L 261.788938 264.979466 
L 262.976938 264.94099 
L 263.372938 264.902515 
L 263.372938 264.864039 
L 263.372938 264.864039 
L 262.976938 264.902515 
L 261.788938 264.94099 
L 260.600937 264.979466 
L 259.808938 265.017942 
L 259.412937 265.094893 
L 258.620938 265.21032 
L 258.224938 265.248796 
L 257.828938 265.287272 
L 257.432937 265.402699 
L 257.036938 265.518126 
L 256.244938 265.556602 
L 255.848938 265.595077 
L 253.868938 265.633553 
L 253.076938 265.74898 
L 252.284938 265.902883 
L 251.492938 265.979834 
L 250.700938 266.056786 
z
" style="fill:#0173b2;fill-opacity:0.2;stroke:#0173b2;stroke-opacity:0.2;"/>
    <path clip-path="url(#pbc536d9b26)" d="M 264.164938 264.710136 
L 264.164938 264.825563 
L 264.164938 264.710136 
L 264.164938 264.710136 
z
" style="fill:#0173b2;fill-opacity:0.2;stroke:#0173b2;stroke-opacity:0.2;"/>
    <path clip-path="url(#pbc536d9b26)" d="M 265.748938 264.633185 
L 265.748938 264.67166 
L 266.144938 264.633185 
L 266.936937 264.363855 
L 268.520938 264.094525 
L 270.104938 264.056049 
L 270.896938 264.017573 
L 272.480938 263.86367 
L 273.272938 263.825195 
L 274.460938 263.632816 
L 275.252938 263.440438 
L 276.044938 263.401962 
L 276.044938 263.094156 
L 276.044938 263.094156 
L 275.252938 263.401962 
L 274.460938 263.440438 
L 273.272938 263.632816 
L 272.480938 263.825195 
L 270.896938 263.86367 
L 270.104938 264.017573 
L 268.520938 264.056049 
L 266.936937 264.094525 
L 266.144938 264.363855 
L 265.748938 264.633185 
z
" style="fill:#0173b2;fill-opacity:0.2;stroke:#0173b2;stroke-opacity:0.2;"/>
    <path clip-path="url(#pbc536d9b26)" d="M 277.628938 262.940253 
L 277.628938 263.017205 
L 278.420938 262.632448 
L 278.816937 262.209215 
L 279.608938 261.997598 
L 280.004938 261.563678 
L 280.796938 260.824089 
L 281.192938 260.650949 
L 281.588938 260.400857 
L 281.984938 257.952343 
L 282.380938 251.620796 
L 282.776938 250.31167 
L 286.736938 238.61086 
L 287.132938 237.59438 
L 287.528938 232.164667 
L 287.924938 224.118262 
L 288.320938 223.810457 
L 288.320938 223.771981 
L 288.320938 223.771981 
L 287.924938 223.810457 
L 287.528938 230.375993 
L 287.132938 236.930193 
L 286.736938 238.142578 
L 282.776938 249.87123 
L 282.380938 250.974308 
L 281.984938 256.659994 
L 281.588938 260.323905 
L 281.192938 260.45857 
L 280.796938 260.670187 
L 280.004938 261.208846 
L 279.608938 261.834077 
L 278.816937 262.093788 
L 278.420938 262.209215 
L 277.628938 262.940253 
z
" style="fill:#0173b2;fill-opacity:0.2;stroke:#0173b2;stroke-opacity:0.2;"/>
    <path clip-path="url(#pbc536d9b26)" d="M 289.508938 223.579602 
L 289.508938 223.656554 
L 289.904938 223.464175 
L 290.300938 223.335923 
L 291.092938 223.233321 
L 291.884938 223.156369 
L 293.468938 222.771612 
L 293.864937 222.656185 
L 295.448938 222.232952 
L 295.844938 222.194477 
L 295.844938 222.002098 
L 295.844938 222.002098 
L 295.448938 222.194477 
L 293.864937 222.579234 
L 293.468938 222.694661 
L 291.884938 223.117894 
L 291.092938 223.156369 
L 290.300938 223.233321 
L 289.904938 223.348748 
L 289.508938 223.579602 
z
" style="fill:#0173b2;fill-opacity:0.2;stroke:#0173b2;stroke-opacity:0.2;"/>
    <path clip-path="url(#pbc536d9b26)" d="M 298.220937 221.771244 
L 298.220937 221.848195 
L 298.616938 221.771244 
L 299.012938 221.694293 
L 299.408938 221.617341 
L 299.804938 221.117157 
L 299.804938 220.7324 
L 299.804938 220.7324 
L 299.408938 221.578865 
L 299.012938 221.655817 
L 298.616938 221.694293 
L 298.220937 221.771244 
z
" style="fill:#0173b2;fill-opacity:0.2;stroke:#0173b2;stroke-opacity:0.2;"/>
    <path clip-path="url(#pbc536d9b26)" d="M 300.596938 220.309167 
L 300.596938 220.655448 
L 300.992938 220.309167 
L 301.784938 220.19374 
L 302.180938 219.885934 
L 303.368938 219.847458 
L 304.556938 219.808983 
L 304.952938 219.770507 
L 305.348938 219.732031 
L 305.744937 219.693556 
L 305.744937 219.65508 
L 305.744937 219.65508 
L 305.348938 219.693556 
L 304.952938 219.732031 
L 304.556938 219.770507 
L 303.368938 219.808983 
L 302.180938 219.847458 
L 301.784938 219.885934 
L 300.992938 220.19374 
L 300.596938 220.309167 
z
" style="fill:#0173b2;fill-opacity:0.2;stroke:#0173b2;stroke-opacity:0.2;"/>
    <path clip-path="url(#pbc536d9b26)" d="M 306.932938 219.539653 
L 306.932938 219.578128 
L 307.328938 219.539653 
L 307.724938 219.501177 
L 308.912938 219.424226 
L 309.308938 219.347274 
L 309.704938 219.308798 
L 310.100937 219.231847 
L 310.496938 219.039469 
L 311.288938 219.000993 
L 311.684938 218.885566 
L 312.080938 218.808614 
L 312.476938 218.731663 
L 312.872938 217.283812 
L 313.664938 213.772397 
L 314.060938 210.536337 
L 314.456938 210.459385 
L 314.456938 210.42091 
L 314.456938 210.42091 
L 314.060938 210.459385 
L 313.664938 212.810352 
L 312.872938 216.303542 
L 312.476938 218.654711 
L 312.080938 218.731663 
L 311.684938 218.808614 
L 311.288938 218.885566 
L 310.496938 219.000993 
L 310.100937 219.039469 
L 309.704938 219.231847 
L 309.308938 219.308798 
L 308.912938 219.347274 
L 307.724938 219.424226 
L 307.328938 219.501177 
L 306.932938 219.539653 
z
" style="fill:#0173b2;fill-opacity:0.2;stroke:#0173b2;stroke-opacity:0.2;"/>
    <path clip-path="url(#pbc536d9b26)" d="M 321.188938 210.267007 
L 321.188938 210.343958 
L 321.188938 210.267007 
L 321.188938 210.267007 
z
" style="fill:#0173b2;fill-opacity:0.2;stroke:#0173b2;stroke-opacity:0.2;"/>
    <path clip-path="url(#pbc536d9b26)" d="M 322.772938 210.15158 
L 322.772938 210.228531 
L 323.168938 210.074628 
L 323.168938 210.036152 
L 323.168938 210.036152 
L 322.772938 210.15158 
z
" style="fill:#0173b2;fill-opacity:0.2;stroke:#0173b2;stroke-opacity:0.2;"/>
    <path clip-path="url(#pbc536d9b26)" d="M 325.544938 209.728347 
L 325.544938 209.920725 
L 326.732938 209.728347 
L 327.128938 209.574444 
L 327.920938 209.535968 
L 328.316937 209.497493 
L 328.712938 209.459017 
L 329.108938 209.420541 
L 329.504938 209.34359 
L 331.484938 209.305114 
L 331.484938 209.266638 
L 331.484938 209.266638 
L 329.504938 209.305114 
L 329.108938 209.34359 
L 328.712938 209.420541 
L 328.316937 209.459017 
L 327.920938 209.497493 
L 327.128938 209.535968 
L 326.732938 209.574444 
L 325.544938 209.728347 
z
" style="fill:#0173b2;fill-opacity:0.2;stroke:#0173b2;stroke-opacity:0.2;"/>
    <path clip-path="url(#pbc536d9b26)" d="M 333.464938 209.228163 
L 333.464938 209.266638 
L 334.256938 209.228163 
L 335.048938 209.07426 
L 336.236938 208.997308 
L 336.632938 208.958833 
L 337.028938 207.432758 
L 337.424938 204.091816 
L 337.820938 203.533757 
L 338.216938 202.841195 
L 338.612938 202.244821 
L 339.404938 200.218923 
L 339.800938 197.800877 
L 340.196938 197.493071 
L 340.592938 197.14679 
L 340.988938 195.813564 
L 341.780938 193.299219 
L 342.572938 191.042901 
L 342.968938 186.073673 
L 343.760938 182.602971 
L 344.156938 182.333641 
L 344.552937 181.98736 
L 344.948938 181.833457 
L 345.344938 181.525651 
L 345.344938 181.102419 
L 345.344938 181.102419 
L 344.948938 181.525651 
L 344.552937 181.833457 
L 344.156938 181.98736 
L 343.760938 182.333641 
L 342.968938 185.053826 
L 342.572938 189.881557 
L 341.780938 191.952569 
L 340.988938 195.090681 
L 340.592938 197.069838 
L 340.196938 197.14679 
L 339.800938 197.531547 
L 339.404938 199.380355 
L 338.612938 201.860064 
L 338.216938 202.302535 
L 337.820938 202.933536 
L 337.424938 203.815913 
L 337.028938 206.006463 
L 336.632938 208.920357 
L 336.236938 208.958833 
L 335.048938 208.997308 
L 334.256938 209.07426 
L 333.464938 209.228163 
z
" style="fill:#0173b2;fill-opacity:0.2;stroke:#0173b2;stroke-opacity:0.2;"/>
    <path clip-path="url(#pbc536d9b26)" d="M 346.532938 180.250319 
L 346.532938 180.607731 
L 346.928938 179.896846 
L 346.928938 179.65958 
L 346.928938 179.65958 
L 346.532938 180.250319 
z
" style="fill:#0173b2;fill-opacity:0.2;stroke:#0173b2;stroke-opacity:0.2;"/>
    <path clip-path="url(#pbc536d9b26)" d="M 347.720937 178.639973 
L 347.720937 179.255585 
L 348.116938 178.58226 
L 348.908937 178.062838 
L 349.304938 177.639605 
L 349.700938 177.254848 
L 350.888937 177.100945 
L 351.680938 176.606257 
L 352.076938 175.31471 
L 352.472938 172.445384 
L 352.868938 172.166435 
L 353.264937 171.560443 
L 353.660938 170.05989 
L 354.056938 169.482754 
L 354.452938 168.98257 
L 354.848938 168.564147 
L 355.244937 166.818311 
L 355.244937 166.231557 
L 355.244937 166.231557 
L 354.848938 168.208246 
L 354.452938 168.867143 
L 354.056938 168.98257 
L 353.660938 169.482754 
L 353.264937 170.05989 
L 352.868938 171.579681 
L 352.472938 172.329957 
L 352.076938 173.643353 
L 351.680938 176.188383 
L 350.888937 176.870091 
L 349.700938 177.100945 
L 349.304938 177.254848 
L 348.908937 177.639605 
L 348.116938 178.168646 
L 347.720937 178.639973 
z
" style="fill:#0173b2;fill-opacity:0.2;stroke:#0173b2;stroke-opacity:0.2;"/>
    <path clip-path="url(#pbc536d9b26)" d="M 357.224938 165.712135 
L 357.224938 165.75061 
L 357.224938 165.712135 
L 357.224938 165.712135 
z
" style="fill:#0173b2;fill-opacity:0.2;stroke:#0173b2;stroke-opacity:0.2;"/>
    <path clip-path="url(#pbc536d9b26)" d="M 358.412937 165.558232 
L 358.412937 165.596708 
L 358.808938 165.558232 
L 359.204938 165.442805 
L 359.996938 165.327378 
L 360.392938 165.173475 
L 361.184938 165.134999 
L 361.580938 164.211582 
L 361.976938 162.932265 
L 362.372938 161.941515 
L 362.768937 161.36438 
L 363.560938 161.210477 
L 364.352938 161.133525 
L 364.748938 160.517914 
L 365.540938 160.402487 
L 366.728938 160.364011 
L 367.520938 160.210108 
L 369.104938 160.171633 
L 369.104938 160.01773 
L 369.104938 160.01773 
L 367.520938 160.171633 
L 366.728938 160.210108 
L 365.540938 160.364011 
L 364.748938 160.402487 
L 364.352938 160.517914 
L 363.560938 161.133525 
L 362.768937 161.210477 
L 362.372938 161.36438 
L 361.976938 162.35032 
L 361.580938 163.553551 
L 361.184938 164.942621 
L 360.392938 165.134999 
L 359.996938 165.173475 
L 359.204938 165.327378 
L 358.808938 165.442805 
L 358.412937 165.558232 
z
" style="fill:#0173b2;fill-opacity:0.2;stroke:#0173b2;stroke-opacity:0.2;"/>
    <path clip-path="url(#pbc536d9b26)" d="M 372.272938 159.594497 
L 372.272938 159.7484 
L 372.668937 159.525433 
L 373.064938 159.20974 
L 373.460938 159.132788 
L 373.856938 159.094313 
L 374.252938 158.978886 
L 374.648937 158.824983 
L 375.044938 158.632604 
L 375.440938 158.555653 
L 376.232938 158.324798 
L 377.420938 158.286323 
L 377.816937 158.209371 
L 378.212938 158.055469 
L 379.004937 157.86309 
L 379.400938 157.824614 
L 379.400938 157.709187 
L 379.400938 157.709187 
L 379.004937 157.824614 
L 378.212938 157.86309 
L 377.816937 158.055469 
L 377.420938 158.209371 
L 376.232938 158.286323 
L 375.440938 158.324798 
L 375.044938 158.555653 
L 374.648937 158.632604 
L 374.252938 158.824983 
L 373.856938 158.978886 
L 373.460938 159.094313 
L 373.064938 159.132788 
L 372.668937 159.271301 
L 372.272938 159.594497 
z
" style="fill:#0173b2;fill-opacity:0.2;stroke:#0173b2;stroke-opacity:0.2;"/>
    <path clip-path="url(#pbc536d9b26)" d="M 380.984938 157.670711 
L 380.984938 157.709187 
L 381.380938 157.670711 
L 381.776938 157.555284 
L 382.172937 157.516809 
L 382.568938 157.401381 
L 382.964938 157.285954 
L 384.152938 157.0551 
L 384.548938 157.016624 
L 384.944938 156.939673 
L 386.528937 156.862722 
L 386.924938 156.824246 
L 386.924938 156.708819 
L 386.924938 156.708819 
L 386.528937 156.824246 
L 384.944938 156.862722 
L 384.548938 156.939673 
L 384.152938 157.016624 
L 382.964938 157.0551 
L 382.568938 157.285954 
L 382.172937 157.401381 
L 381.776938 157.516809 
L 381.380938 157.555284 
L 380.984938 157.670711 
z
" style="fill:#0173b2;fill-opacity:0.2;stroke:#0173b2;stroke-opacity:0.2;"/>
    <path clip-path="url(#pbc536d9b26)" d="M 421.772938 150.783559 
L 421.772938 150.822035 
L 421.772938 150.783559 
L 421.772938 150.783559 
z
" style="fill:#0173b2;fill-opacity:0.2;stroke:#0173b2;stroke-opacity:0.2;"/>
    <path clip-path="url(#pbc536d9b26)" d="M 422.960938 150.706608 
L 422.960938 150.745084 
L 423.356938 150.706608 
L 424.544938 150.668132 
L 425.336938 150.437278 
L 425.732938 150.398802 
L 425.732938 150.283375 
L 425.732938 150.283375 
L 425.336938 150.398802 
L 424.544938 150.437278 
L 423.356938 150.668132 
L 422.960938 150.706608 
z
" style="fill:#0173b2;fill-opacity:0.2;stroke:#0173b2;stroke-opacity:0.2;"/>
    <path clip-path="url(#pbc536d9b26)" d="M 427.316938 150.014045 
L 427.316938 150.129472 
L 427.712938 150.014045 
L 428.504937 149.975569 
L 428.900938 149.937094 
L 429.692938 149.898618 
L 431.276938 149.783191 
L 433.256938 149.744715 
L 434.048937 149.70624 
L 434.444938 148.778013 
L 434.840937 147.027368 
L 435.236938 144.136881 
L 435.632938 142.742136 
L 436.028938 142.126525 
L 436.424938 141.62634 
L 436.820938 141.587865 
L 438.404938 141.433962 
L 438.800938 141.395486 
L 439.592938 141.241583 
L 440.384938 141.164632 
L 440.384938 141.087681 
L 440.384938 141.087681 
L 439.592938 141.164632 
L 438.800938 141.241583 
L 438.404938 141.395486 
L 436.820938 141.433962 
L 436.424938 141.587865 
L 436.028938 141.62634 
L 435.632938 142.126525 
L 435.236938 143.437584 
L 434.840937 146.151926 
L 434.444938 148.042165 
L 434.048937 149.090628 
L 433.256938 149.70624 
L 431.276938 149.744715 
L 429.692938 149.783191 
L 428.900938 149.898618 
L 428.504937 149.937094 
L 427.712938 149.975569 
L 427.316938 150.014045 
z
" style="fill:#0173b2;fill-opacity:0.2;stroke:#0173b2;stroke-opacity:0.2;"/>
    <path clip-path="url(#pbc536d9b26)" d="M 442.760938 141.049205 
L 442.760938 141.087681 
L 443.948938 141.049205 
L 444.740938 140.933778 
L 445.532938 140.856826 
L 446.324938 140.818351 
L 447.116938 140.779875 
L 447.116938 140.741399 
L 447.116938 140.741399 
L 446.324938 140.779875 
L 445.532938 140.818351 
L 444.740938 140.856826 
L 443.948938 140.933778 
L 442.760938 141.049205 
z
" style="fill:#0173b2;fill-opacity:0.2;stroke:#0173b2;stroke-opacity:0.2;"/>
    <path clip-path="url(#pbc536d9b26)" d="M 455.432938 140.472069 
L 455.432938 140.510545 
L 455.432938 140.472069 
L 455.432938 140.472069 
z
" style="fill:#0173b2;fill-opacity:0.2;stroke:#0173b2;stroke-opacity:0.2;"/>
    <path clip-path="url(#pbc536d9b26)" d="M 456.620938 140.356642 
L 456.620938 140.433593 
L 457.016938 140.356642 
L 457.016938 140.241215 
L 457.016938 140.241215 
L 456.620938 140.356642 
z
" style="fill:#0173b2;fill-opacity:0.2;stroke:#0173b2;stroke-opacity:0.2;"/>
    <path clip-path="url(#pbc536d9b26)" d="M 458.204938 140.087312 
L 458.204938 140.164263 
L 458.600938 140.087312 
L 458.600938 139.971885 
L 458.600938 139.971885 
L 458.204938 140.087312 
z
" style="fill:#0173b2;fill-opacity:0.2;stroke:#0173b2;stroke-opacity:0.2;"/>
    <path clip-path="url(#pbc536d9b26)" d="M 459.392938 139.856458 
L 459.392938 139.933409 
L 460.580938 139.817982 
L 460.580938 139.779506 
L 460.580938 139.779506 
L 459.392938 139.856458 
z
" style="fill:#0173b2;fill-opacity:0.2;stroke:#0173b2;stroke-opacity:0.2;"/>
    <path clip-path="url(#pbc536d9b26)" d="M 462.164938 139.702555 
L 462.164938 139.779506 
L 462.956937 139.702555 
L 463.352938 139.625604 
L 463.748938 139.587128 
L 465.728938 139.548652 
L 466.520938 139.510176 
L 467.708938 139.048468 
L 468.104938 139.009992 
L 468.500938 138.933041 
L 468.896938 138.663711 
L 469.688938 138.571369 
L 470.084938 138.317429 
L 470.480938 138.086575 
L 470.480938 138.048099 
L 470.480938 138.048099 
L 470.084938 138.086575 
L 469.688938 138.355905 
L 468.896938 138.625235 
L 468.500938 138.663711 
L 468.104938 138.933041 
L 467.708938 139.009992 
L 466.520938 139.048468 
L 465.728938 139.510176 
L 463.748938 139.548652 
L 463.352938 139.587128 
L 462.956937 139.625604 
L 462.164938 139.702555 
z
" style="fill:#0173b2;fill-opacity:0.2;stroke:#0173b2;stroke-opacity:0.2;"/>
    <path clip-path="url(#pbc536d9b26)" d="M 472.460938 137.855721 
L 472.460938 137.932672 
L 472.856938 137.817245 
L 473.252938 137.778769 
L 473.648938 137.624867 
L 474.044938 137.547915 
L 474.440938 137.432488 
L 474.836938 137.24011 
L 475.232938 137.201634 
L 475.628938 137.086207 
L 476.024938 137.047731 
L 476.024938 136.932304 
L 476.024938 136.932304 
L 475.628938 137.047731 
L 475.232938 137.124682 
L 474.836938 137.201634 
L 474.440938 137.278585 
L 474.044938 137.432488 
L 473.648938 137.547915 
L 473.252938 137.663342 
L 472.856938 137.778769 
L 472.460938 137.855721 
z
" style="fill:#0173b2;fill-opacity:0.2;stroke:#0173b2;stroke-opacity:0.2;"/>
    <path clip-path="url(#pbc536d9b26)" d="M 479.588938 135.431751 
L 479.588938 135.778033 
L 479.984938 135.393275 
L 480.380938 135.200897 
L 480.776938 135.008518 
L 481.172937 134.777664 
L 481.568938 134.739188 
L 481.964938 134.700713 
L 482.360938 134.354431 
L 482.756938 134.00815 
L 483.548938 133.046738 
L 484.340938 132.6615 
L 484.736938 132.584549 
L 485.528937 132.507597 
L 485.924938 132.469122 
L 486.320938 132.430646 
L 486.716938 131.787552 
L 487.112938 129.352709 
L 487.508938 128.583075 
L 487.904938 128.025177 
L 488.300938 127.621182 
L 488.696938 127.428804 
L 489.092938 127.274901 
L 489.884938 127.197949 
L 490.280938 127.044046 
L 490.676938 126.967095 
L 491.468938 126.736241 
L 491.864937 126.582338 
L 493.448938 126.466911 
L 493.844938 126.428435 
L 494.240938 126.351484 
L 494.240938 126.274532 
L 494.240938 126.274532 
L 493.844938 126.351484 
L 493.448938 126.428435 
L 491.864937 126.466911 
L 491.468938 126.582338 
L 490.676938 126.736241 
L 490.280938 126.967095 
L 489.884938 127.044046 
L 489.092938 127.197949 
L 488.696938 127.274901 
L 488.300938 127.428804 
L 487.904938 127.717371 
L 487.508938 128.044415 
L 487.112938 128.89076 
L 486.716938 130.941086 
L 486.320938 132.353694 
L 485.924938 132.430646 
L 485.528937 132.469122 
L 484.736938 132.507597 
L 484.340938 132.584549 
L 483.548938 132.738451 
L 482.756938 133.123209 
L 482.360938 134.00815 
L 481.964938 134.54681 
L 481.568938 134.700713 
L 481.172937 134.739188 
L 480.776938 134.777664 
L 480.380938 135.008518 
L 479.984938 135.239373 
L 479.588938 135.431751 
z
" style="fill:#0173b2;fill-opacity:0.2;stroke:#0173b2;stroke-opacity:0.2;"/>
    <path clip-path="url(#pbc536d9b26)" d="M 495.032938 125.966727 
L 495.032938 126.236057 
L 495.824938 125.966727 
L 496.220937 125.812824 
L 496.616938 125.774348 
L 497.012938 125.274164 
L 497.408938 124.229823 
L 497.804938 123.234951 
L 498.200938 122.965621 
L 498.596938 122.734767 
L 498.992938 122.696291 
L 499.388937 121.618971 
L 499.784938 121.580496 
L 500.180938 121.407355 
L 500.576937 121.118787 
L 693.032938 24.573612 
L 693.428938 23.15963 
L 693.824938 22.928776 
L 694.220938 22.544019 
L 694.616938 21.994366 
L 695.012938 21.466699 
L 695.408938 21.112722 
L 695.804938 20.248462 
L 696.200938 19.427486 
L 696.596937 18.965778 
L 696.992938 18.350166 
L 697.388937 18.080836 
L 697.784938 17.619128 
L 698.576938 17.234371 
L 698.576938 17.041992 
L 698.576938 17.041992 
L 697.784938 17.234371 
L 697.388937 17.619128 
L 696.992938 18.080836 
L 696.596937 18.350166 
L 696.200938 18.965778 
L 695.804938 19.805831 
L 695.408938 20.558287 
L 695.012938 21.27432 
L 694.616938 21.615105 
L 694.220938 22.236213 
L 693.824938 22.544019 
L 693.428938 22.928776 
L 693.032938 23.467436 
L 500.576937 120.926409 
L 500.180938 121.214976 
L 499.784938 121.465069 
L 499.388937 121.580496 
L 498.992938 121.618971 
L 498.596938 122.696291 
L 498.200938 122.734767 
L 497.804938 122.965621 
L 497.408938 123.465668 
L 497.012938 124.812455 
L 496.616938 125.274164 
L 496.220937 125.774348 
L 495.824938 125.812824 
L 495.032938 125.966727 
z
" style="fill:#0173b2;fill-opacity:0.2;stroke:#0173b2;stroke-opacity:0.2;"/>
   </g>
   <g id="line2d_12">
    <path clip-path="url(#pbc536d9b26)" d="M 86.360938 624.8662 
L 86.756938 621.501805 
L 87.152938 620.751529 
L 87.548938 620.268018 
L 89.528938 619.082966 
L 90.716938 616.012604 
L 91.112938 615.589371 
L 91.508938 614.807032 
L 92.300938 610.547304 
L 92.696938 604.831135 
L 93.488938 603.267525 
L 93.884938 602.930863 
L 94.280938 602.815436 
L 94.676938 602.475567 
L 95.072938 598.16757 
L 95.468938 591.580528 
L 96.260938 588.989831 
L 96.656938 588.387045 
L 97.052938 584.372572 
L 97.448938 571.128899 
L 98.240938 552.920878 
L 98.636938 539.460215 
L 99.032938 534.23798 
L 99.824938 533.713061 
L 100.616938 532.058605 
L 101.012938 531.693086 
L 102.200938 531.077475 
L 102.992938 529.942441 
L 104.180938 528.922835 
L 104.576938 528.345699 
L 105.368938 525.943105 
L 105.764938 523.863279 
L 106.160938 523.238049 
L 106.556938 521.804829 
L 106.952938 521.304645 
L 108.140938 520.515893 
L 109.328938 520.227325 
L 110.120938 518.245826 
L 110.516938 517.803355 
L 111.308938 517.303171 
L 111.704937 514.866376 
L 112.100938 510.954679 
L 112.892938 507.844559 
L 113.288938 505.144846 
L 113.684938 504.747264 
L 114.080938 504.154097 
L 114.872938 503.346107 
L 115.268938 501.525565 
L 115.664938 496.434538 
L 116.060938 494.179269 
L 116.456938 494.044604 
L 117.248938 492.332435 
L 118.040938 491.755299 
L 118.436938 490.78791 
L 118.832938 488.938022 
L 119.624938 487.724969 
L 120.020938 483.006656 
L 120.416938 476.749773 
L 120.812938 474.956805 
L 121.208938 471.890123 
L 121.604938 460.653543 
L 122.000938 443.390437 
L 122.396938 438.058007 
L 122.792938 435.494193 
L 123.188938 434.650934 
L 123.584938 434.330303 
L 123.980938 433.36841 
L 124.376938 431.829381 
L 125.168938 423.887288 
L 125.564938 414.734624 
L 125.960938 408.236557 
L 126.356938 404.168552 
L 126.752938 401.254017 
L 127.148938 400.72177 
L 127.544938 400.500535 
L 128.336938 399.548261 
L 129.128938 397.970757 
L 129.524938 394.642608 
L 130.316937 393.911569 
L 130.712938 392.968915 
L 131.108938 392.487968 
L 131.900937 384.010971 
L 132.692938 372.298714 
L 133.088938 368.128317 
L 133.484938 365.882015 
L 134.276938 364.096742 
L 134.672938 362.630817 
L 135.464938 361.055718 
L 135.860938 357.983217 
L 136.256937 353.762166 
L 136.652938 350.776634 
L 137.444938 340.180241 
L 138.236938 339.660819 
L 138.632938 338.737402 
L 140.216938 336.890568 
L 143.384938 335.870961 
L 143.780938 335.755534 
L 144.572938 335.678583 
L 144.968938 335.351539 
L 147.740938 334.658976 
L 148.136938 334.456979 
L 148.532938 334.120316 
L 148.928938 330.445303 
L 149.324938 324.950272 
L 150.116938 322.205672 
L 150.512938 321.98123 
L 151.304937 321.865803 
L 155.660938 321.538759 
L 156.848938 320.846197 
L 157.244937 320.730769 
L 159.224938 320.36525 
L 160.016938 319.999731 
L 160.808938 319.82659 
L 161.600938 319.268693 
L 163.580938 318.633843 
L 163.976938 318.268324 
L 166.748938 317.556523 
L 167.936937 317.287193 
L 168.728938 316.459966 
L 169.124937 316.229111 
L 169.916938 316.113684 
L 170.312938 315.703277 
L 171.500938 313.862855 
L 172.292938 311.498624 
L 172.688938 309.149581 
L 173.084938 308.957202 
L 179.024938 307.976072 
L 179.816937 307.495125 
L 182.192938 306.860276 
L 182.588938 306.494757 
L 182.984938 305.874336 
L 184.172938 305.090393 
L 184.964938 304.76335 
L 186.152938 304.455544 
L 187.736938 303.205084 
L 188.528938 302.974229 
L 189.716938 302.954992 
L 190.112938 302.647186 
L 192.488938 302.326555 
L 192.884938 302.223953 
L 197.636938 301.781482 
L 199.220938 301.646817 
L 201.200938 301.492915 
L 202.388937 301.127395 
L 203.576938 299.299799 
L 204.368938 298.799615 
L 204.764938 298.222479 
L 205.556938 296.791882 
L 205.952938 294.971282 
L 206.744938 292.85127 
L 207.140938 292.162555 
L 207.932938 291.181424 
L 208.724938 289.57314 
L 209.120938 287.122237 
L 209.516938 286.872145 
L 209.912938 283.25268 
L 210.308938 278.320918 
L 210.704938 275.752665 
L 211.100938 275.47051 
L 211.892938 275.214005 
L 212.288938 274.790772 
L 212.684938 273.925069 
L 213.080938 273.367171 
L 213.872938 271.58286 
L 214.268937 269.307983 
L 214.664938 268.71161 
L 215.456938 268.615421 
L 215.852938 268.326853 
L 217.040938 268.269139 
L 217.832938 268.038285 
L 218.624938 267.980571 
L 223.772938 267.653528 
L 224.168938 267.576576 
L 224.564938 267.36496 
L 225.356938 267.326484 
L 228.128938 267.326484 
L 228.920938 266.903251 
L 231.692938 266.698048 
L 232.880938 266.537732 
L 234.068938 266.383829 
L 251.492938 266.01831 
L 259.412937 265.152607 
L 259.808938 265.056417 
L 266.144938 264.49852 
L 266.936937 264.22919 
L 268.520938 264.075287 
L 270.896938 263.940622 
L 273.272938 263.729005 
L 277.628938 262.978729 
L 278.816937 262.151501 
L 279.608938 261.920647 
L 280.004938 261.401225 
L 280.796938 260.747138 
L 281.588938 260.362381 
L 281.984938 257.329006 
L 282.380938 251.266723 
L 287.132938 237.286574 
L 287.924938 223.977185 
L 288.716937 223.695029 
L 289.508938 223.618078 
L 290.300938 223.297447 
L 291.884938 223.137132 
L 296.636938 221.963622 
L 299.408938 221.598103 
L 299.804938 220.886303 
L 300.992938 220.251453 
L 302.180938 219.866696 
L 305.744937 219.674318 
L 311.684938 218.84709 
L 312.476938 218.693187 
L 313.664938 213.328863 
L 314.060938 210.497861 
L 315.248938 210.42091 
L 322.376938 210.267007 
L 323.960938 210.036152 
L 329.504938 209.324352 
L 334.256938 209.151211 
L 335.048938 209.035784 
L 336.632938 208.939595 
L 337.424938 203.944165 
L 338.216938 202.571865 
L 338.612938 202.071681 
L 339.404938 199.799589 
L 339.800938 197.666212 
L 340.592938 197.108314 
L 340.988938 195.453858 
L 341.780938 192.625894 
L 342.572938 190.497282 
L 342.968938 185.55983 
L 343.760938 182.468306 
L 345.344938 181.314035 
L 345.740938 181.102419 
L 346.532938 180.437339 
L 346.928938 179.775007 
L 347.324938 179.524915 
L 348.116938 178.3995 
L 349.700938 177.177896 
L 350.888937 176.985518 
L 351.680938 176.391893 
L 352.472938 172.38767 
L 352.868938 171.791297 
L 353.660938 169.771322 
L 354.056938 169.232662 
L 354.452938 168.924857 
L 354.848938 168.395816 
L 355.244937 166.510506 
L 356.432938 165.904513 
L 358.412937 165.57747 
L 361.184938 165.03881 
L 362.372938 161.652947 
L 362.768937 161.287428 
L 363.560938 161.172001 
L 364.352938 160.82572 
L 364.748938 160.4602 
L 372.272938 159.684274 
L 373.064938 159.171264 
L 374.252938 158.901934 
L 375.440938 158.440226 
L 376.232938 158.305561 
L 377.816937 158.13242 
L 378.212938 157.959279 
L 380.192938 157.709187 
L 381.380938 157.612998 
L 382.568938 157.343668 
L 382.964938 157.170527 
L 388.508938 156.631867 
L 422.960938 150.725846 
L 425.336938 150.41804 
L 427.712938 149.994807 
L 433.256938 149.725477 
L 434.048937 149.398434 
L 434.444938 148.436541 
L 434.840937 146.685896 
L 435.236938 143.78098 
L 435.632938 142.43433 
L 436.028938 141.876433 
L 436.424938 141.607103 
L 436.820938 141.510913 
L 438.800938 141.318535 
L 440.384938 141.126156 
L 455.432938 140.491307 
L 456.620938 140.395118 
L 457.412937 140.164263 
L 458.600938 140.029598 
L 460.976938 139.779506 
L 462.164938 139.741031 
L 463.748938 139.56789 
L 465.728938 139.529414 
L 466.520938 139.279322 
L 468.500938 138.798376 
L 468.896938 138.644473 
L 469.688938 138.463637 
L 470.480938 138.067337 
L 471.272938 138.048099 
L 473.252938 137.721056 
L 475.232938 137.163158 
L 476.024938 136.99643 
L 477.212938 136.316693 
L 479.588938 135.572829 
L 480.776938 134.893091 
L 481.568938 134.719951 
L 481.964938 134.623761 
L 482.360938 134.200528 
L 482.756938 133.456665 
L 483.548938 132.911592 
L 484.736938 132.546073 
L 486.320938 132.39217 
L 486.716938 131.347829 
L 487.112938 129.116925 
L 487.508938 128.365046 
L 488.300938 127.524993 
L 489.092938 127.236425 
L 490.280938 127.005571 
L 491.468938 126.659289 
L 491.864937 126.524624 
L 494.240938 126.313008 
L 495.032938 126.101392 
L 496.220937 125.793586 
L 496.616938 125.524256 
L 497.012938 124.992009 
L 497.408938 123.812087 
L 497.804938 123.081048 
L 498.596938 122.715529 
L 499.388937 121.599734 
L 499.784938 121.522782 
L 500.576937 121.022598 
L 693.032938 24.111904 
L 693.428938 23.044203 
L 694.220938 22.390116 
L 695.012938 21.37051 
L 695.408938 20.835697 
L 696.596937 18.657972 
L 697.784938 17.426749 
L 698.576938 17.138181 
L 700.160938 17.041992 
L 700.160938 17.041992 
" style="fill:none;stroke:#0173b2;stroke-linecap:round;stroke-width:1.5;"/>
   </g>
   <g id="patch_3">
    <path d="M 86.360938 626.881992 
L 86.360938 17.041992 
" style="fill:none;stroke:#cccccc;stroke-linecap:square;stroke-linejoin:miter;stroke-width:1.25;"/>
   </g>
   <g id="patch_4">
    <path d="M 700.160938 626.881992 
L 700.160938 17.041992 
" style="fill:none;stroke:#cccccc;stroke-linecap:square;stroke-linejoin:miter;stroke-width:1.25;"/>
   </g>
   <g id="patch_5">
    <path d="M 86.360938 626.881992 
L 700.160938 626.881992 
" style="fill:none;stroke:#cccccc;stroke-linecap:square;stroke-linejoin:miter;stroke-width:1.25;"/>
   </g>
   <g id="patch_6">
    <path d="M 86.360938 17.041992 
L 700.160938 17.041992 
" style="fill:none;stroke:#cccccc;stroke-linecap:square;stroke-linejoin:miter;stroke-width:1.25;"/>
   </g>
  </g>
 </g>
 <defs>
  <clipPath id="pbc536d9b26">
   <rect height="609.84" width="613.8" x="86.360938" y="17.041992"/>
  </clipPath>
 </defs>
</svg>
