<?xml version="1.0" encoding="utf-8" standalone="no"?>
<!DOCTYPE svg PUBLIC "-//W3C//DTD SVG 1.1//EN"
  "http://www.w3.org/Graphics/SVG/1.1/DTD/svg11.dtd">
<svg height="719.399531pt" version="1.1" viewBox="0 0 739.05 719.399531" width="739.05pt" xmlns="http://www.w3.org/2000/svg" xmlns:xlink="http://www.w3.org/1999/xlink">
 <metadata>
  <rdf:RDF xmlns:cc="http://creativecommons.org/ns#" xmlns:dc="http://purl.org/dc/elements/1.1/" xmlns:rdf="http://www.w3.org/1999/02/22-rdf-syntax-ns#">
   <cc:Work>
    <dc:type rdf:resource="http://purl.org/dc/dcmitype/StillImage"/>
    <dc:date>2023-06-19T14:32:58.732139</dc:date>
    <dc:format>image/svg+xml</dc:format>
    <dc:creator>
     <cc:Agent>
      <dc:title>Matplotlib v3.4.3, https://matplotlib.org/</dc:title>
     </cc:Agent>
    </dc:creator>
   </cc:Work>
  </rdf:RDF>
 </metadata>
 <defs>
  <style type="text/css">*{stroke-linecap:butt;stroke-linejoin:round;}</style>
 </defs>
 <g id="figure_1">
  <g id="patch_1">
   <path d="M 0 719.399531 
L 739.05 719.399531 
L 739.05 0 
L 0 0 
z
" style="fill:#ffffff;"/>
  </g>
  <g id="axes_1">
   <g id="patch_2">
    <path d="M 118.05 617.04 
L 731.85 617.04 
L 731.85 7.2 
L 118.05 7.2 
z
" style="fill:#ffffff;"/>
   </g>
   <g id="LineCollection_1">
    <path clip-path="url(#p93006b7174)" d="M 309.207676 429.013918 
L 343.265925 429.013918 
" style="fill:none;stroke:#de8f05;stroke-width:1.5;"/>
    <path clip-path="url(#p93006b7174)" d="M 256.541362 420.848466 
L 308.588721 420.848466 
" style="fill:none;stroke:#de8f05;stroke-width:1.5;"/>
    <path clip-path="url(#p93006b7174)" d="M 338.372198 371.855756 
L 360.705258 371.855756 
" style="fill:none;stroke:#de8f05;stroke-width:1.5;"/>
    <path clip-path="url(#p93006b7174)" d="M 299.813237 380.021208 
L 424.814683 380.021208 
" style="fill:none;stroke:#de8f05;stroke-width:1.5;"/>
    <path clip-path="url(#p93006b7174)" d="M 197.513937 478.645952 
L 215.330447 478.645952 
" style="fill:none;stroke:#de8f05;stroke-width:1.5;"/>
    <path clip-path="url(#p93006b7174)" d="M 211.796059 490.217348 
L 251.209455 490.217348 
" style="fill:none;stroke:#de8f05;stroke-width:1.5;"/>
    <path clip-path="url(#p93006b7174)" d="M 204.745583 486.773525 
L 247.725714 486.773525 
" style="fill:none;stroke:#de8f05;stroke-width:1.5;"/>
    <path clip-path="url(#p93006b7174)" d="M 217.568703 464.397542 
L 239.456986 464.397542 
" style="fill:none;stroke:#de8f05;stroke-width:1.5;"/>
    <path clip-path="url(#p93006b7174)" d="M 288.965655 371.855756 
L 435.357215 371.855756 
" style="fill:none;stroke:#de8f05;stroke-width:1.5;"/>
    <path clip-path="url(#p93006b7174)" d="M 233.401763 489.428413 
L 261.446009 489.428413 
" style="fill:none;stroke:#de8f05;stroke-width:1.5;"/>
    <path clip-path="url(#p93006b7174)" d="M 395.299135 322.863046 
L 498.950095 322.863046 
" style="fill:none;stroke:#de8f05;stroke-width:1.5;"/>
    <path clip-path="url(#p93006b7174)" d="M 300.176984 478.645952 
L 322.777491 478.645952 
" style="fill:none;stroke:#de8f05;stroke-width:1.5;"/>
    <path clip-path="url(#p93006b7174)" d="M 218.044361 380.021208 
L 314.94427 380.021208 
" style="fill:none;stroke:#de8f05;stroke-width:1.5;"/>
    <path clip-path="url(#p93006b7174)" d="M 427.180946 306.532143 
L 478.877601 306.532143 
" style="fill:none;stroke:#de8f05;stroke-width:1.5;"/>
    <path clip-path="url(#p93006b7174)" d="M 439.730422 314.697594 
L 519.418951 314.697594 
" style="fill:none;stroke:#de8f05;stroke-width:1.5;"/>
    <path clip-path="url(#p93006b7174)" d="M 387.114324 371.855756 
L 434.690001 371.855756 
" style="fill:none;stroke:#de8f05;stroke-width:1.5;"/>
    <path clip-path="url(#p93006b7174)" d="M 371.56959 399.073928 
L 485.831322 399.073928 
" style="fill:none;stroke:#de8f05;stroke-width:1.5;"/>
    <path clip-path="url(#p93006b7174)" d="M 408.690145 257.539432 
L 467.176113 257.539432 
" style="fill:none;stroke:#de8f05;stroke-width:1.5;"/>
    <path clip-path="url(#p93006b7174)" d="M 447.942897 429.013918 
L 479.606011 429.013918 
" style="fill:none;stroke:#de8f05;stroke-width:1.5;"/>
    <path clip-path="url(#p93006b7174)" d="M 271.8105 412.683014 
L 295.875538 412.683014 
" style="fill:none;stroke:#de8f05;stroke-width:1.5;"/>
    <path clip-path="url(#p93006b7174)" d="M 281.244824 412.683014 
L 310.59276 412.683014 
" style="fill:none;stroke:#de8f05;stroke-width:1.5;"/>
    <path clip-path="url(#p93006b7174)" d="M 382.830207 306.532143 
L 444.611293 306.532143 
" style="fill:none;stroke:#de8f05;stroke-width:1.5;"/>
    <path clip-path="url(#p93006b7174)" d="M 382.705057 292.923056 
L 451.793397 292.923056 
" style="fill:none;stroke:#de8f05;stroke-width:1.5;"/>
    <path clip-path="url(#p93006b7174)" d="M 207.91417 478.645952 
L 288.26484 478.645952 
" style="fill:none;stroke:#de8f05;stroke-width:1.5;"/>
    <path clip-path="url(#p93006b7174)" d="M 228.757881 371.855756 
L 273.085579 371.855756 
" style="fill:none;stroke:#de8f05;stroke-width:1.5;"/>
    <path clip-path="url(#p93006b7174)" d="M 358.146218 200.381271 
L 479.755295 200.381271 
" style="fill:none;stroke:#de8f05;stroke-width:1.5;"/>
    <path clip-path="url(#p93006b7174)" d="M 465.293883 350.081218 
L 531.675281 350.081218 
" style="fill:none;stroke:#de8f05;stroke-width:1.5;"/>
    <path clip-path="url(#p93006b7174)" d="M 330.61185 265.704884 
L 396.405467 265.704884 
" style="fill:none;stroke:#de8f05;stroke-width:1.5;"/>
    <path clip-path="url(#p93006b7174)" d="M 352.379193 456.23209 
L 393.737679 456.23209 
" style="fill:none;stroke:#de8f05;stroke-width:1.5;"/>
    <path clip-path="url(#p93006b7174)" d="M 568.252144 249.373981 
L 609.816439 249.373981 
" style="fill:none;stroke:#de8f05;stroke-width:1.5;"/>
    <path clip-path="url(#p93006b7174)" d="M 379.989416 341.915766 
L 407.74368 341.915766 
" style="fill:none;stroke:#de8f05;stroke-width:1.5;"/>
    <path clip-path="url(#p93006b7174)" d="M 547.307141 341.915766 
L 552.960186 341.915766 
" style="fill:none;stroke:#de8f05;stroke-width:1.5;"/>
    <path clip-path="url(#p93006b7174)" d="M 361.054037 380.021208 
L 428.812993 380.021208 
" style="fill:none;stroke:#de8f05;stroke-width:1.5;"/>
    <path clip-path="url(#p93006b7174)" d="M 255.384725 298.366691 
L 309.673368 298.366691 
" style="fill:none;stroke:#de8f05;stroke-width:1.5;"/>
    <path clip-path="url(#p93006b7174)" d="M 403.109416 235.764895 
L 421.491552 235.764895 
" style="fill:none;stroke:#de8f05;stroke-width:1.5;"/>
    <path clip-path="url(#p93006b7174)" d="M 541.199241 235.764895 
L 591.989666 235.764895 
" style="fill:none;stroke:#de8f05;stroke-width:1.5;"/>
    <path clip-path="url(#p93006b7174)" d="M 325.775409 355.524853 
L 367.669363 355.524853 
" style="fill:none;stroke:#de8f05;stroke-width:1.5;"/>
    <path clip-path="url(#p93006b7174)" d="M 298.729631 298.366691 
L 333.114563 298.366691 
" style="fill:none;stroke:#de8f05;stroke-width:1.5;"/>
    <path clip-path="url(#p93006b7174)" d="M 520.494569 292.923056 
L 560.61435 292.923056 
" style="fill:none;stroke:#de8f05;stroke-width:1.5;"/>
    <path clip-path="url(#p93006b7174)" d="M 472.607017 243.930346 
L 491.126701 243.930346 
" style="fill:none;stroke:#de8f05;stroke-width:1.5;"/>
    <path clip-path="url(#p93006b7174)" d="M 603.658392 284.757605 
L 647.560589 284.757605 
" style="fill:none;stroke:#de8f05;stroke-width:1.5;"/>
    <path clip-path="url(#p93006b7174)" d="M 381.283338 407.23938 
L 483.552259 407.23938 
" style="fill:none;stroke:#de8f05;stroke-width:1.5;"/>
    <path clip-path="url(#p93006b7174)" d="M 557.125747 249.373981 
L 648.525017 249.373981 
" style="fill:none;stroke:#de8f05;stroke-width:1.5;"/>
    <path clip-path="url(#p93006b7174)" d="M 591.773841 314.697594 
L 676.832225 314.697594 
" style="fill:none;stroke:#de8f05;stroke-width:1.5;"/>
    <path clip-path="url(#p93006b7174)" d="M 475.924593 208.546722 
L 508.982065 208.546722 
" style="fill:none;stroke:#de8f05;stroke-width:1.5;"/>
    <path clip-path="url(#p93006b7174)" d="M 396.258341 412.683014 
L 408.23303 412.683014 
" style="fill:none;stroke:#de8f05;stroke-width:1.5;"/>
    <path clip-path="url(#p93006b7174)" d="M 423.799628 306.532143 
L 477.207707 306.532143 
" style="fill:none;stroke:#de8f05;stroke-width:1.5;"/>
    <path clip-path="url(#p93006b7174)" d="M 506.612773 151.388561 
L 552.221741 151.388561 
" style="fill:none;stroke:#de8f05;stroke-width:1.5;"/>
    <path clip-path="url(#p93006b7174)" d="M 441.893121 249.373981 
L 477.954562 249.373981 
" style="fill:none;stroke:#de8f05;stroke-width:1.5;"/>
    <path clip-path="url(#p93006b7174)" d="M 189.600786 371.855756 
L 234.394185 371.855756 
" style="fill:none;stroke:#de8f05;stroke-width:1.5;"/>
    <path clip-path="url(#p93006b7174)" d="M 197.732178 486.773525 
L 211.131467 486.773525 
" style="fill:none;stroke:#de8f05;stroke-width:1.5;"/>
    <path clip-path="url(#p93006b7174)" d="M 358.837621 371.855756 
L 391.71474 371.855756 
" style="fill:none;stroke:#de8f05;stroke-width:1.5;"/>
    <path clip-path="url(#p93006b7174)" d="M 234.958039 464.397542 
L 279.915581 464.397542 
" style="fill:none;stroke:#de8f05;stroke-width:1.5;"/>
    <path clip-path="url(#p93006b7174)" d="M 341.660229 371.855756 
L 432.912038 371.855756 
" style="fill:none;stroke:#de8f05;stroke-width:1.5;"/>
    <path clip-path="url(#p93006b7174)" d="M 491.593237 314.697594 
L 558.564265 314.697594 
" style="fill:none;stroke:#de8f05;stroke-width:1.5;"/>
    <path clip-path="url(#p93006b7174)" d="M 266.170918 486.773525 
L 305.740033 486.773525 
" style="fill:none;stroke:#de8f05;stroke-width:1.5;"/>
    <path clip-path="url(#p93006b7174)" d="M 273.989765 456.23209 
L 296.571008 456.23209 
" style="fill:none;stroke:#de8f05;stroke-width:1.5;"/>
    <path clip-path="url(#p93006b7174)" d="M 237.22871 420.848466 
L 262.517099 420.848466 
" style="fill:none;stroke:#de8f05;stroke-width:1.5;"/>
    <path clip-path="url(#p93006b7174)" d="M 383.40249 380.021208 
L 411.702373 380.021208 
" style="fill:none;stroke:#de8f05;stroke-width:1.5;"/>
    <path clip-path="url(#p93006b7174)" d="M 353.703316 420.848466 
L 378.510598 420.848466 
" style="fill:none;stroke:#de8f05;stroke-width:1.5;"/>
    <path clip-path="url(#p93006b7174)" d="M 358.043605 420.848466 
L 436.724494 420.848466 
" style="fill:none;stroke:#de8f05;stroke-width:1.5;"/>
    <path clip-path="url(#p93006b7174)" d="M 360.804404 322.863046 
L 398.51836 322.863046 
" style="fill:none;stroke:#de8f05;stroke-width:1.5;"/>
    <path clip-path="url(#p93006b7174)" d="M 423.57662 363.690304 
L 456.874124 363.690304 
" style="fill:none;stroke:#de8f05;stroke-width:1.5;"/>
    <path clip-path="url(#p93006b7174)" d="M 320.755397 350.081218 
L 372.524815 350.081218 
" style="fill:none;stroke:#de8f05;stroke-width:1.5;"/>
    <path clip-path="url(#p93006b7174)" d="M 308.376401 306.532143 
L 342.084829 306.532143 
" style="fill:none;stroke:#de8f05;stroke-width:1.5;"/>
    <path clip-path="url(#p93006b7174)" d="M 481.305669 192.215819 
L 643.8067 192.215819 
" style="fill:none;stroke:#de8f05;stroke-width:1.5;"/>
    <path clip-path="url(#p93006b7174)" d="M 393.475481 358.24667 
L 468.497254 358.24667 
" style="fill:none;stroke:#de8f05;stroke-width:1.5;"/>
    <path clip-path="url(#p93006b7174)" d="M 388.058311 306.532143 
L 444.45845 306.532143 
" style="fill:none;stroke:#de8f05;stroke-width:1.5;"/>
    <path clip-path="url(#p93006b7174)" d="M 325.06982 407.23938 
L 386.384679 407.23938 
" style="fill:none;stroke:#de8f05;stroke-width:1.5;"/>
    <path clip-path="url(#p93006b7174)" d="M 510.123003 284.757605 
L 551.179993 284.757605 
" style="fill:none;stroke:#de8f05;stroke-width:1.5;"/>
    <path clip-path="url(#p93006b7174)" d="M 546.956636 208.546722 
L 594.706111 208.546722 
" style="fill:none;stroke:#de8f05;stroke-width:1.5;"/>
    <path clip-path="url(#p93006b7174)" d="M 302.941001 456.23209 
L 366.570994 456.23209 
" style="fill:none;stroke:#de8f05;stroke-width:1.5;"/>
    <path clip-path="url(#p93006b7174)" d="M 244.769009 380.021208 
L 380.380637 380.021208 
" style="fill:none;stroke:#de8f05;stroke-width:1.5;"/>
    <path clip-path="url(#p93006b7174)" d="M 271.815917 478.645952 
L 341.985919 478.645952 
" style="fill:none;stroke:#de8f05;stroke-width:1.5;"/>
    <path clip-path="url(#p93006b7174)" d="M 320.287401 429.013918 
L 379.116721 429.013918 
" style="fill:none;stroke:#de8f05;stroke-width:1.5;"/>
    <path clip-path="url(#p93006b7174)" d="M 296.863511 371.855756 
L 345.496872 371.855756 
" style="fill:none;stroke:#de8f05;stroke-width:1.5;"/>
    <path clip-path="url(#p93006b7174)" d="M 297.420481 363.690304 
L 357.549122 363.690304 
" style="fill:none;stroke:#de8f05;stroke-width:1.5;"/>
    <path clip-path="url(#p93006b7174)" d="M 356.713164 341.915766 
L 408.42384 341.915766 
" style="fill:none;stroke:#de8f05;stroke-width:1.5;"/>
    <path clip-path="url(#p93006b7174)" d="M 287.612874 412.683014 
L 328.826806 412.683014 
" style="fill:none;stroke:#de8f05;stroke-width:1.5;"/>
    <path clip-path="url(#p93006b7174)" d="M 482.427827 350.081218 
L 495.68184 350.081218 
" style="fill:none;stroke:#de8f05;stroke-width:1.5;"/>
    <path clip-path="url(#p93006b7174)" d="M 423.038029 306.532143 
L 477.357217 306.532143 
" style="fill:none;stroke:#de8f05;stroke-width:1.5;"/>
    <path clip-path="url(#p93006b7174)" d="M 391.981498 257.539432 
L 434.62412 257.539432 
" style="fill:none;stroke:#de8f05;stroke-width:1.5;"/>
    <path clip-path="url(#p93006b7174)" d="M 508.669448 249.373981 
L 552.831043 249.373981 
" style="fill:none;stroke:#de8f05;stroke-width:1.5;"/>
    <path clip-path="url(#p93006b7174)" d="M 458.542144 178.606733 
L 520.63527 178.606733 
" style="fill:none;stroke:#de8f05;stroke-width:1.5;"/>
    <path clip-path="url(#p93006b7174)" d="M 323.109968 399.073928 
L 385.282443 399.073928 
" style="fill:none;stroke:#de8f05;stroke-width:1.5;"/>
    <path clip-path="url(#p93006b7174)" d="M 282.008363 363.690304 
L 365.067632 363.690304 
" style="fill:none;stroke:#de8f05;stroke-width:1.5;"/>
    <path clip-path="url(#p93006b7174)" d="M 500.825849 143.223109 
L 534.528247 143.223109 
" style="fill:none;stroke:#de8f05;stroke-width:1.5;"/>
    <path clip-path="url(#p93006b7174)" d="M 401.465963 301.088508 
L 453.058566 301.088508 
" style="fill:none;stroke:#de8f05;stroke-width:1.5;"/>
    <path clip-path="url(#p93006b7174)" d="M 514.072928 227.599443 
L 545.670103 227.599443 
" style="fill:none;stroke:#de8f05;stroke-width:1.5;"/>
    <path clip-path="url(#p93006b7174)" d="M 464.027163 322.863046 
L 488.767635 322.863046 
" style="fill:none;stroke:#de8f05;stroke-width:1.5;"/>
    <path clip-path="url(#p93006b7174)" d="M 462.229459 208.546722 
L 522.330596 208.546722 
" style="fill:none;stroke:#de8f05;stroke-width:1.5;"/>
    <path clip-path="url(#p93006b7174)" d="M 364.93371 380.021208 
L 453.091525 380.021208 
" style="fill:none;stroke:#de8f05;stroke-width:1.5;"/>
    <path clip-path="url(#p93006b7174)" d="M 448.358851 200.381271 
L 518.701755 200.381271 
" style="fill:none;stroke:#de8f05;stroke-width:1.5;"/>
    <path clip-path="url(#p93006b7174)" d="M 379.426808 355.524853 
L 460.863401 355.524853 
" style="fill:none;stroke:#de8f05;stroke-width:1.5;"/>
    <path clip-path="url(#p93006b7174)" d="M 387.034965 249.373981 
L 416.160957 249.373981 
" style="fill:none;stroke:#de8f05;stroke-width:1.5;"/>
    <path clip-path="url(#p93006b7174)" d="M 338.474393 464.397542 
L 397.866338 464.397542 
" style="fill:none;stroke:#de8f05;stroke-width:1.5;"/>
    <path clip-path="url(#p93006b7174)" d="M 519.048417 322.863046 
L 552.277983 322.863046 
" style="fill:none;stroke:#de8f05;stroke-width:1.5;"/>
    <path clip-path="url(#p93006b7174)" d="M 340.611945 265.704884 
L 396.562227 265.704884 
" style="fill:none;stroke:#de8f05;stroke-width:1.5;"/>
    <path clip-path="url(#p93006b7174)" d="M 267.491085 306.532143 
L 377.335556 306.532143 
" style="fill:none;stroke:#de8f05;stroke-width:1.5;"/>
    <path clip-path="url(#p93006b7174)" d="M 250.600626 456.23209 
L 309.554603 456.23209 
" style="fill:none;stroke:#de8f05;stroke-width:1.5;"/>
    <path clip-path="url(#p93006b7174)" d="M 404.03448 341.915766 
L 502.624819 341.915766 
" style="fill:none;stroke:#de8f05;stroke-width:1.5;"/>
    <path clip-path="url(#p93006b7174)" d="M 564.925749 178.606733 
L 600.356501 178.606733 
" style="fill:none;stroke:#de8f05;stroke-width:1.5;"/>
    <path clip-path="url(#p93006b7174)" d="M 387.7228 235.764895 
L 418.244611 235.764895 
" style="fill:none;stroke:#de8f05;stroke-width:1.5;"/>
    <path clip-path="url(#p93006b7174)" d="M 560.23734 284.757605 
L 578.112553 284.757605 
" style="fill:none;stroke:#de8f05;stroke-width:1.5;"/>
    <path clip-path="url(#p93006b7174)" d="M 426.725453 350.081218 
L 475.323013 350.081218 
" style="fill:none;stroke:#de8f05;stroke-width:1.5;"/>
    <path clip-path="url(#p93006b7174)" d="M 423.336229 322.863046 
L 453.486156 322.863046 
" style="fill:none;stroke:#de8f05;stroke-width:1.5;"/>
    <path clip-path="url(#p93006b7174)" d="M 370.978224 292.923056 
L 471.327069 292.923056 
" style="fill:none;stroke:#de8f05;stroke-width:1.5;"/>
    <path clip-path="url(#p93006b7174)" d="M 557.534289 151.388561 
L 643.285203 151.388561 
" style="fill:none;stroke:#de8f05;stroke-width:1.5;"/>
    <path clip-path="url(#p93006b7174)" d="M 529.286745 86.064947 
L 598.115788 86.064947 
" style="fill:none;stroke:#de8f05;stroke-width:1.5;"/>
    <path clip-path="url(#p93006b7174)" d="M 333.152087 412.683014 
L 381.424751 412.683014 
" style="fill:none;stroke:#de8f05;stroke-width:1.5;"/>
   </g>
   <g id="line2d_1"/>
   <g id="matplotlib.axis_1">
    <g id="xtick_1">
     <g id="line2d_2">
      <path clip-path="url(#p93006b7174)" d="M 240.81 617.04 
L 240.81 7.2 
" style="fill:none;stroke:#cccccc;stroke-linecap:round;"/>
     </g>
     <g id="text_1">
      <!-- 0.1 -->
      <g style="fill:#262626;" transform="translate(217.875 650.160781)scale(0.33 -0.33)">
       <defs>
        <path d="M 266 2259 
Q 266 3072 433 3567 
Q 600 4063 929 4331 
Q 1259 4600 1759 4600 
Q 2128 4600 2406 4451 
Q 2684 4303 2865 4023 
Q 3047 3744 3150 3342 
Q 3253 2941 3253 2259 
Q 3253 1453 3087 958 
Q 2922 463 2592 192 
Q 2263 -78 1759 -78 
Q 1097 -78 719 397 
Q 266 969 266 2259 
z
M 844 2259 
Q 844 1131 1108 757 
Q 1372 384 1759 384 
Q 2147 384 2411 759 
Q 2675 1134 2675 2259 
Q 2675 3391 2411 3762 
Q 2147 4134 1753 4134 
Q 1366 4134 1134 3806 
Q 844 3388 844 2259 
z
" id="ArialMT-30" transform="scale(0.015625)"/>
        <path d="M 581 0 
L 581 641 
L 1222 641 
L 1222 0 
L 581 0 
z
" id="ArialMT-2e" transform="scale(0.015625)"/>
        <path d="M 2384 0 
L 1822 0 
L 1822 3584 
Q 1619 3391 1289 3197 
Q 959 3003 697 2906 
L 697 3450 
Q 1169 3672 1522 3987 
Q 1875 4303 2022 4600 
L 2384 4600 
L 2384 0 
z
" id="ArialMT-31" transform="scale(0.015625)"/>
       </defs>
       <use xlink:href="#ArialMT-30"/>
       <use x="55.615234" xlink:href="#ArialMT-2e"/>
       <use x="83.398438" xlink:href="#ArialMT-31"/>
      </g>
     </g>
    </g>
    <g id="xtick_2">
     <g id="line2d_3">
      <path clip-path="url(#p93006b7174)" d="M 363.57 617.04 
L 363.57 7.2 
" style="fill:none;stroke:#cccccc;stroke-linecap:round;"/>
     </g>
     <g id="text_2">
      <!-- 0.2 -->
      <g style="fill:#262626;" transform="translate(340.635 650.160781)scale(0.33 -0.33)">
       <defs>
        <path d="M 3222 541 
L 3222 0 
L 194 0 
Q 188 203 259 391 
Q 375 700 629 1000 
Q 884 1300 1366 1694 
Q 2113 2306 2375 2664 
Q 2638 3022 2638 3341 
Q 2638 3675 2398 3904 
Q 2159 4134 1775 4134 
Q 1369 4134 1125 3890 
Q 881 3647 878 3216 
L 300 3275 
Q 359 3922 746 4261 
Q 1134 4600 1788 4600 
Q 2447 4600 2831 4234 
Q 3216 3869 3216 3328 
Q 3216 3053 3103 2787 
Q 2991 2522 2730 2228 
Q 2469 1934 1863 1422 
Q 1356 997 1212 845 
Q 1069 694 975 541 
L 3222 541 
z
" id="ArialMT-32" transform="scale(0.015625)"/>
       </defs>
       <use xlink:href="#ArialMT-30"/>
       <use x="55.615234" xlink:href="#ArialMT-2e"/>
       <use x="83.398438" xlink:href="#ArialMT-32"/>
      </g>
     </g>
    </g>
    <g id="xtick_3">
     <g id="line2d_4">
      <path clip-path="url(#p93006b7174)" d="M 486.33 617.04 
L 486.33 7.2 
" style="fill:none;stroke:#cccccc;stroke-linecap:round;"/>
     </g>
     <g id="text_3">
      <!-- 0.3 -->
      <g style="fill:#262626;" transform="translate(463.395 650.160781)scale(0.33 -0.33)">
       <defs>
        <path d="M 269 1209 
L 831 1284 
Q 928 806 1161 595 
Q 1394 384 1728 384 
Q 2125 384 2398 659 
Q 2672 934 2672 1341 
Q 2672 1728 2419 1979 
Q 2166 2231 1775 2231 
Q 1616 2231 1378 2169 
L 1441 2663 
Q 1497 2656 1531 2656 
Q 1891 2656 2178 2843 
Q 2466 3031 2466 3422 
Q 2466 3731 2256 3934 
Q 2047 4138 1716 4138 
Q 1388 4138 1169 3931 
Q 950 3725 888 3313 
L 325 3413 
Q 428 3978 793 4289 
Q 1159 4600 1703 4600 
Q 2078 4600 2393 4439 
Q 2709 4278 2876 4000 
Q 3044 3722 3044 3409 
Q 3044 3113 2884 2869 
Q 2725 2625 2413 2481 
Q 2819 2388 3044 2092 
Q 3269 1797 3269 1353 
Q 3269 753 2831 336 
Q 2394 -81 1725 -81 
Q 1122 -81 723 278 
Q 325 638 269 1209 
z
" id="ArialMT-33" transform="scale(0.015625)"/>
       </defs>
       <use xlink:href="#ArialMT-30"/>
       <use x="55.615234" xlink:href="#ArialMT-2e"/>
       <use x="83.398438" xlink:href="#ArialMT-33"/>
      </g>
     </g>
    </g>
    <g id="xtick_4">
     <g id="line2d_5">
      <path clip-path="url(#p93006b7174)" d="M 609.09 617.04 
L 609.09 7.2 
" style="fill:none;stroke:#cccccc;stroke-linecap:round;"/>
     </g>
     <g id="text_4">
      <!-- 0.4 -->
      <g style="fill:#262626;" transform="translate(586.155 650.160781)scale(0.33 -0.33)">
       <defs>
        <path d="M 2069 0 
L 2069 1097 
L 81 1097 
L 81 1613 
L 2172 4581 
L 2631 4581 
L 2631 1613 
L 3250 1613 
L 3250 1097 
L 2631 1097 
L 2631 0 
L 2069 0 
z
M 2069 1613 
L 2069 3678 
L 634 1613 
L 2069 1613 
z
" id="ArialMT-34" transform="scale(0.015625)"/>
       </defs>
       <use xlink:href="#ArialMT-30"/>
       <use x="55.615234" xlink:href="#ArialMT-2e"/>
       <use x="83.398438" xlink:href="#ArialMT-34"/>
      </g>
     </g>
    </g>
    <g id="text_5">
     <!-- Measured growth rate (.$\mathregular{hr^{-1}}$) -->
     <g style="fill:#262626;" transform="translate(196.17 704.279531)scale(0.36 -0.36)">
      <defs>
       <path d="M 475 0 
L 475 4581 
L 1388 4581 
L 2472 1338 
Q 2622 884 2691 659 
Q 2769 909 2934 1394 
L 4031 4581 
L 4847 4581 
L 4847 0 
L 4263 0 
L 4263 3834 
L 2931 0 
L 2384 0 
L 1059 3900 
L 1059 0 
L 475 0 
z
" id="ArialMT-4d" transform="scale(0.015625)"/>
       <path d="M 2694 1069 
L 3275 997 
Q 3138 488 2766 206 
Q 2394 -75 1816 -75 
Q 1088 -75 661 373 
Q 234 822 234 1631 
Q 234 2469 665 2931 
Q 1097 3394 1784 3394 
Q 2450 3394 2872 2941 
Q 3294 2488 3294 1666 
Q 3294 1616 3291 1516 
L 816 1516 
Q 847 969 1125 678 
Q 1403 388 1819 388 
Q 2128 388 2347 550 
Q 2566 713 2694 1069 
z
M 847 1978 
L 2700 1978 
Q 2663 2397 2488 2606 
Q 2219 2931 1791 2931 
Q 1403 2931 1139 2672 
Q 875 2413 847 1978 
z
" id="ArialMT-65" transform="scale(0.015625)"/>
       <path d="M 2588 409 
Q 2275 144 1986 34 
Q 1697 -75 1366 -75 
Q 819 -75 525 192 
Q 231 459 231 875 
Q 231 1119 342 1320 
Q 453 1522 633 1644 
Q 813 1766 1038 1828 
Q 1203 1872 1538 1913 
Q 2219 1994 2541 2106 
Q 2544 2222 2544 2253 
Q 2544 2597 2384 2738 
Q 2169 2928 1744 2928 
Q 1347 2928 1158 2789 
Q 969 2650 878 2297 
L 328 2372 
Q 403 2725 575 2942 
Q 747 3159 1072 3276 
Q 1397 3394 1825 3394 
Q 2250 3394 2515 3294 
Q 2781 3194 2906 3042 
Q 3031 2891 3081 2659 
Q 3109 2516 3109 2141 
L 3109 1391 
Q 3109 606 3145 398 
Q 3181 191 3288 0 
L 2700 0 
Q 2613 175 2588 409 
z
M 2541 1666 
Q 2234 1541 1622 1453 
Q 1275 1403 1131 1340 
Q 988 1278 909 1158 
Q 831 1038 831 891 
Q 831 666 1001 516 
Q 1172 366 1500 366 
Q 1825 366 2078 508 
Q 2331 650 2450 897 
Q 2541 1088 2541 1459 
L 2541 1666 
z
" id="ArialMT-61" transform="scale(0.015625)"/>
       <path d="M 197 991 
L 753 1078 
Q 800 744 1014 566 
Q 1228 388 1613 388 
Q 2000 388 2187 545 
Q 2375 703 2375 916 
Q 2375 1106 2209 1216 
Q 2094 1291 1634 1406 
Q 1016 1563 777 1677 
Q 538 1791 414 1992 
Q 291 2194 291 2438 
Q 291 2659 392 2848 
Q 494 3038 669 3163 
Q 800 3259 1026 3326 
Q 1253 3394 1513 3394 
Q 1903 3394 2198 3281 
Q 2494 3169 2634 2976 
Q 2775 2784 2828 2463 
L 2278 2388 
Q 2241 2644 2061 2787 
Q 1881 2931 1553 2931 
Q 1166 2931 1000 2803 
Q 834 2675 834 2503 
Q 834 2394 903 2306 
Q 972 2216 1119 2156 
Q 1203 2125 1616 2013 
Q 2213 1853 2448 1751 
Q 2684 1650 2818 1456 
Q 2953 1263 2953 975 
Q 2953 694 2789 445 
Q 2625 197 2315 61 
Q 2006 -75 1616 -75 
Q 969 -75 630 194 
Q 291 463 197 991 
z
" id="ArialMT-73" transform="scale(0.015625)"/>
       <path d="M 2597 0 
L 2597 488 
Q 2209 -75 1544 -75 
Q 1250 -75 995 37 
Q 741 150 617 320 
Q 494 491 444 738 
Q 409 903 409 1263 
L 409 3319 
L 972 3319 
L 972 1478 
Q 972 1038 1006 884 
Q 1059 663 1231 536 
Q 1403 409 1656 409 
Q 1909 409 2131 539 
Q 2353 669 2445 892 
Q 2538 1116 2538 1541 
L 2538 3319 
L 3100 3319 
L 3100 0 
L 2597 0 
z
" id="ArialMT-75" transform="scale(0.015625)"/>
       <path d="M 416 0 
L 416 3319 
L 922 3319 
L 922 2816 
Q 1116 3169 1280 3281 
Q 1444 3394 1641 3394 
Q 1925 3394 2219 3213 
L 2025 2691 
Q 1819 2813 1613 2813 
Q 1428 2813 1281 2702 
Q 1134 2591 1072 2394 
Q 978 2094 978 1738 
L 978 0 
L 416 0 
z
" id="ArialMT-72" transform="scale(0.015625)"/>
       <path d="M 2575 0 
L 2575 419 
Q 2259 -75 1647 -75 
Q 1250 -75 917 144 
Q 584 363 401 755 
Q 219 1147 219 1656 
Q 219 2153 384 2558 
Q 550 2963 881 3178 
Q 1213 3394 1622 3394 
Q 1922 3394 2156 3267 
Q 2391 3141 2538 2938 
L 2538 4581 
L 3097 4581 
L 3097 0 
L 2575 0 
z
M 797 1656 
Q 797 1019 1065 703 
Q 1334 388 1700 388 
Q 2069 388 2326 689 
Q 2584 991 2584 1609 
Q 2584 2291 2321 2609 
Q 2059 2928 1675 2928 
Q 1300 2928 1048 2622 
Q 797 2316 797 1656 
z
" id="ArialMT-64" transform="scale(0.015625)"/>
       <path id="ArialMT-20" transform="scale(0.015625)"/>
       <path d="M 319 -275 
L 866 -356 
Q 900 -609 1056 -725 
Q 1266 -881 1628 -881 
Q 2019 -881 2231 -725 
Q 2444 -569 2519 -288 
Q 2563 -116 2559 434 
Q 2191 0 1641 0 
Q 956 0 581 494 
Q 206 988 206 1678 
Q 206 2153 378 2554 
Q 550 2956 876 3175 
Q 1203 3394 1644 3394 
Q 2231 3394 2613 2919 
L 2613 3319 
L 3131 3319 
L 3131 450 
Q 3131 -325 2973 -648 
Q 2816 -972 2473 -1159 
Q 2131 -1347 1631 -1347 
Q 1038 -1347 672 -1080 
Q 306 -813 319 -275 
z
M 784 1719 
Q 784 1066 1043 766 
Q 1303 466 1694 466 
Q 2081 466 2343 764 
Q 2606 1063 2606 1700 
Q 2606 2309 2336 2618 
Q 2066 2928 1684 2928 
Q 1309 2928 1046 2623 
Q 784 2319 784 1719 
z
" id="ArialMT-67" transform="scale(0.015625)"/>
       <path d="M 213 1659 
Q 213 2581 725 3025 
Q 1153 3394 1769 3394 
Q 2453 3394 2887 2945 
Q 3322 2497 3322 1706 
Q 3322 1066 3130 698 
Q 2938 331 2570 128 
Q 2203 -75 1769 -75 
Q 1072 -75 642 372 
Q 213 819 213 1659 
z
M 791 1659 
Q 791 1022 1069 705 
Q 1347 388 1769 388 
Q 2188 388 2466 706 
Q 2744 1025 2744 1678 
Q 2744 2294 2464 2611 
Q 2184 2928 1769 2928 
Q 1347 2928 1069 2612 
Q 791 2297 791 1659 
z
" id="ArialMT-6f" transform="scale(0.015625)"/>
       <path d="M 1034 0 
L 19 3319 
L 600 3319 
L 1128 1403 
L 1325 691 
Q 1338 744 1497 1375 
L 2025 3319 
L 2603 3319 
L 3100 1394 
L 3266 759 
L 3456 1400 
L 4025 3319 
L 4572 3319 
L 3534 0 
L 2950 0 
L 2422 1988 
L 2294 2553 
L 1622 0 
L 1034 0 
z
" id="ArialMT-77" transform="scale(0.015625)"/>
       <path d="M 1650 503 
L 1731 6 
Q 1494 -44 1306 -44 
Q 1000 -44 831 53 
Q 663 150 594 308 
Q 525 466 525 972 
L 525 2881 
L 113 2881 
L 113 3319 
L 525 3319 
L 525 4141 
L 1084 4478 
L 1084 3319 
L 1650 3319 
L 1650 2881 
L 1084 2881 
L 1084 941 
Q 1084 700 1114 631 
Q 1144 563 1211 522 
Q 1278 481 1403 481 
Q 1497 481 1650 503 
z
" id="ArialMT-74" transform="scale(0.015625)"/>
       <path d="M 422 0 
L 422 4581 
L 984 4581 
L 984 2938 
Q 1378 3394 1978 3394 
Q 2347 3394 2619 3248 
Q 2891 3103 3008 2847 
Q 3125 2591 3125 2103 
L 3125 0 
L 2563 0 
L 2563 2103 
Q 2563 2525 2380 2717 
Q 2197 2909 1863 2909 
Q 1613 2909 1392 2779 
Q 1172 2650 1078 2428 
Q 984 2206 984 1816 
L 984 0 
L 422 0 
z
" id="ArialMT-68" transform="scale(0.015625)"/>
       <path d="M 1497 -1347 
Q 1031 -759 709 28 
Q 388 816 388 1659 
Q 388 2403 628 3084 
Q 909 3875 1497 4659 
L 1900 4659 
Q 1522 4009 1400 3731 
Q 1209 3300 1100 2831 
Q 966 2247 966 1656 
Q 966 153 1900 -1347 
L 1497 -1347 
z
" id="ArialMT-28" transform="scale(0.015625)"/>
       <path d="M 3381 1997 
L 356 1997 
L 356 2522 
L 3381 2522 
L 3381 1997 
z
" id="ArialMT-2212" transform="scale(0.015625)"/>
       <path d="M 791 -1347 
L 388 -1347 
Q 1322 153 1322 1656 
Q 1322 2244 1188 2822 
Q 1081 3291 891 3722 
Q 769 4003 388 4659 
L 791 4659 
Q 1378 3875 1659 3084 
Q 1900 2403 1900 1659 
Q 1900 816 1576 28 
Q 1253 -759 791 -1347 
z
" id="ArialMT-29" transform="scale(0.015625)"/>
      </defs>
      <use transform="translate(0 0.99375)" xlink:href="#ArialMT-4d"/>
      <use transform="translate(83.300781 0.99375)" xlink:href="#ArialMT-65"/>
      <use transform="translate(138.916016 0.99375)" xlink:href="#ArialMT-61"/>
      <use transform="translate(194.53125 0.99375)" xlink:href="#ArialMT-73"/>
      <use transform="translate(244.53125 0.99375)" xlink:href="#ArialMT-75"/>
      <use transform="translate(300.146484 0.99375)" xlink:href="#ArialMT-72"/>
      <use transform="translate(333.447266 0.99375)" xlink:href="#ArialMT-65"/>
      <use transform="translate(389.0625 0.99375)" xlink:href="#ArialMT-64"/>
      <use transform="translate(444.677734 0.99375)" xlink:href="#ArialMT-20"/>
      <use transform="translate(472.460938 0.99375)" xlink:href="#ArialMT-67"/>
      <use transform="translate(528.076172 0.99375)" xlink:href="#ArialMT-72"/>
      <use transform="translate(561.376953 0.99375)" xlink:href="#ArialMT-6f"/>
      <use transform="translate(616.992188 0.99375)" xlink:href="#ArialMT-77"/>
      <use transform="translate(689.208984 0.99375)" xlink:href="#ArialMT-74"/>
      <use transform="translate(716.992188 0.99375)" xlink:href="#ArialMT-68"/>
      <use transform="translate(772.607422 0.99375)" xlink:href="#ArialMT-20"/>
      <use transform="translate(800.390625 0.99375)" xlink:href="#ArialMT-72"/>
      <use transform="translate(833.691406 0.99375)" xlink:href="#ArialMT-61"/>
      <use transform="translate(889.306641 0.99375)" xlink:href="#ArialMT-74"/>
      <use transform="translate(917.089844 0.99375)" xlink:href="#ArialMT-65"/>
      <use transform="translate(972.705078 0.99375)" xlink:href="#ArialMT-20"/>
      <use transform="translate(1000.488281 0.99375)" xlink:href="#ArialMT-28"/>
      <use transform="translate(1033.789062 0.99375)" xlink:href="#ArialMT-2e"/>
      <use transform="translate(1061.572266 0.99375)" xlink:href="#ArialMT-68"/>
      <use transform="translate(1117.1875 0.99375)" xlink:href="#ArialMT-72"/>
      <use transform="translate(1152.230625 70.6875)scale(0.7)" xlink:href="#ArialMT-2212"/>
      <use transform="translate(1193.109531 70.6875)scale(0.7)" xlink:href="#ArialMT-31"/>
      <use transform="translate(1237.01832 0.99375)" xlink:href="#ArialMT-29"/>
     </g>
    </g>
   </g>
   <g id="matplotlib.axis_2">
    <g id="ytick_1">
     <g id="line2d_6">
      <path clip-path="url(#p93006b7174)" d="M 118.05 495.072 
L 731.85 495.072 
" style="fill:none;stroke:#cccccc;stroke-linecap:round;"/>
     </g>
     <g id="text_6">
      <!-- 0.1 -->
      <g style="fill:#262626;" transform="translate(62.68 506.882391)scale(0.33 -0.33)">
       <use xlink:href="#ArialMT-30"/>
       <use x="55.615234" xlink:href="#ArialMT-2e"/>
       <use x="83.398438" xlink:href="#ArialMT-31"/>
      </g>
     </g>
    </g>
    <g id="ytick_2">
     <g id="line2d_7">
      <path clip-path="url(#p93006b7174)" d="M 118.05 373.104 
L 731.85 373.104 
" style="fill:none;stroke:#cccccc;stroke-linecap:round;"/>
     </g>
     <g id="text_7">
      <!-- 0.2 -->
      <g style="fill:#262626;" transform="translate(62.68 384.914391)scale(0.33 -0.33)">
       <use xlink:href="#ArialMT-30"/>
       <use x="55.615234" xlink:href="#ArialMT-2e"/>
       <use x="83.398438" xlink:href="#ArialMT-32"/>
      </g>
     </g>
    </g>
    <g id="ytick_3">
     <g id="line2d_8">
      <path clip-path="url(#p93006b7174)" d="M 118.05 251.136 
L 731.85 251.136 
" style="fill:none;stroke:#cccccc;stroke-linecap:round;"/>
     </g>
     <g id="text_8">
      <!-- 0.3 -->
      <g style="fill:#262626;" transform="translate(62.68 262.946391)scale(0.33 -0.33)">
       <use xlink:href="#ArialMT-30"/>
       <use x="55.615234" xlink:href="#ArialMT-2e"/>
       <use x="83.398438" xlink:href="#ArialMT-33"/>
      </g>
     </g>
    </g>
    <g id="ytick_4">
     <g id="line2d_9">
      <path clip-path="url(#p93006b7174)" d="M 118.05 129.168 
L 731.85 129.168 
" style="fill:none;stroke:#cccccc;stroke-linecap:round;"/>
     </g>
     <g id="text_9">
      <!-- 0.4 -->
      <g style="fill:#262626;" transform="translate(62.68 140.978391)scale(0.33 -0.33)">
       <use xlink:href="#ArialMT-30"/>
       <use x="55.615234" xlink:href="#ArialMT-2e"/>
       <use x="83.398438" xlink:href="#ArialMT-34"/>
      </g>
     </g>
    </g>
    <g id="text_10">
     <!-- Predicted growth rate (.$\mathregular{hr^{-1}}$) -->
     <g style="fill:#262626;" transform="translate(50.76 536.94)rotate(-90)scale(0.36 -0.36)">
      <defs>
       <path d="M 494 0 
L 494 4581 
L 2222 4581 
Q 2678 4581 2919 4538 
Q 3256 4481 3484 4323 
Q 3713 4166 3852 3881 
Q 3991 3597 3991 3256 
Q 3991 2672 3619 2267 
Q 3247 1863 2275 1863 
L 1100 1863 
L 1100 0 
L 494 0 
z
M 1100 2403 
L 2284 2403 
Q 2872 2403 3119 2622 
Q 3366 2841 3366 3238 
Q 3366 3525 3220 3729 
Q 3075 3934 2838 4000 
Q 2684 4041 2272 4041 
L 1100 4041 
L 1100 2403 
z
" id="ArialMT-50" transform="scale(0.015625)"/>
       <path d="M 425 3934 
L 425 4581 
L 988 4581 
L 988 3934 
L 425 3934 
z
M 425 0 
L 425 3319 
L 988 3319 
L 988 0 
L 425 0 
z
" id="ArialMT-69" transform="scale(0.015625)"/>
       <path d="M 2588 1216 
L 3141 1144 
Q 3050 572 2676 248 
Q 2303 -75 1759 -75 
Q 1078 -75 664 370 
Q 250 816 250 1647 
Q 250 2184 428 2587 
Q 606 2991 970 3192 
Q 1334 3394 1763 3394 
Q 2303 3394 2647 3120 
Q 2991 2847 3088 2344 
L 2541 2259 
Q 2463 2594 2264 2762 
Q 2066 2931 1784 2931 
Q 1359 2931 1093 2626 
Q 828 2322 828 1663 
Q 828 994 1084 691 
Q 1341 388 1753 388 
Q 2084 388 2306 591 
Q 2528 794 2588 1216 
z
" id="ArialMT-63" transform="scale(0.015625)"/>
      </defs>
      <use transform="translate(0 0.99375)" xlink:href="#ArialMT-50"/>
      <use transform="translate(66.699219 0.99375)" xlink:href="#ArialMT-72"/>
      <use transform="translate(100 0.99375)" xlink:href="#ArialMT-65"/>
      <use transform="translate(155.615234 0.99375)" xlink:href="#ArialMT-64"/>
      <use transform="translate(211.230469 0.99375)" xlink:href="#ArialMT-69"/>
      <use transform="translate(233.447266 0.99375)" xlink:href="#ArialMT-63"/>
      <use transform="translate(283.447266 0.99375)" xlink:href="#ArialMT-74"/>
      <use transform="translate(311.230469 0.99375)" xlink:href="#ArialMT-65"/>
      <use transform="translate(366.845703 0.99375)" xlink:href="#ArialMT-64"/>
      <use transform="translate(422.460938 0.99375)" xlink:href="#ArialMT-20"/>
      <use transform="translate(450.244141 0.99375)" xlink:href="#ArialMT-67"/>
      <use transform="translate(505.859375 0.99375)" xlink:href="#ArialMT-72"/>
      <use transform="translate(539.160156 0.99375)" xlink:href="#ArialMT-6f"/>
      <use transform="translate(594.775391 0.99375)" xlink:href="#ArialMT-77"/>
      <use transform="translate(666.992188 0.99375)" xlink:href="#ArialMT-74"/>
      <use transform="translate(694.775391 0.99375)" xlink:href="#ArialMT-68"/>
      <use transform="translate(750.390625 0.99375)" xlink:href="#ArialMT-20"/>
      <use transform="translate(778.173828 0.99375)" xlink:href="#ArialMT-72"/>
      <use transform="translate(811.474609 0.99375)" xlink:href="#ArialMT-61"/>
      <use transform="translate(867.089844 0.99375)" xlink:href="#ArialMT-74"/>
      <use transform="translate(894.873047 0.99375)" xlink:href="#ArialMT-65"/>
      <use transform="translate(950.488281 0.99375)" xlink:href="#ArialMT-20"/>
      <use transform="translate(978.271484 0.99375)" xlink:href="#ArialMT-28"/>
      <use transform="translate(1011.572266 0.99375)" xlink:href="#ArialMT-2e"/>
      <use transform="translate(1039.355469 0.99375)" xlink:href="#ArialMT-68"/>
      <use transform="translate(1094.970703 0.99375)" xlink:href="#ArialMT-72"/>
      <use transform="translate(1130.013828 70.6875)scale(0.7)" xlink:href="#ArialMT-2212"/>
      <use transform="translate(1170.892734 70.6875)scale(0.7)" xlink:href="#ArialMT-31"/>
      <use transform="translate(1214.801523 0.99375)" xlink:href="#ArialMT-29"/>
     </g>
    </g>
   </g>
   <g id="PathCollection_1">
    <defs>
     <path d="M 0 3 
C 0.795609 3 1.55874 2.683901 2.12132 2.12132 
C 2.683901 1.55874 3 0.795609 3 0 
C 3 -0.795609 2.683901 -1.55874 2.12132 -2.12132 
C 1.55874 -2.683901 0.795609 -3 0 -3 
C -0.795609 -3 -1.55874 -2.683901 -2.12132 -2.12132 
C -2.683901 -1.55874 -3 -0.795609 -3 0 
C -3 0.795609 -2.683901 1.55874 -2.12132 2.12132 
C -1.55874 2.683901 -0.795609 3 0 3 
z
" id="m1ecf4d2a87" style="stroke:#0173b2;"/>
    </defs>
    <g clip-path="url(#p93006b7174)">
     <use style="fill:#0173b2;stroke:#0173b2;" x="326.236801" xlink:href="#m1ecf4d2a87" y="429.013918"/>
     <use style="fill:#0173b2;stroke:#0173b2;" x="282.565042" xlink:href="#m1ecf4d2a87" y="420.848466"/>
     <use style="fill:#0173b2;stroke:#0173b2;" x="349.538728" xlink:href="#m1ecf4d2a87" y="371.855756"/>
     <use style="fill:#0173b2;stroke:#0173b2;" x="362.31396" xlink:href="#m1ecf4d2a87" y="380.021208"/>
     <use style="fill:#0173b2;stroke:#0173b2;" x="206.422192" xlink:href="#m1ecf4d2a87" y="478.645952"/>
     <use style="fill:#0173b2;stroke:#0173b2;" x="231.502757" xlink:href="#m1ecf4d2a87" y="490.217348"/>
     <use style="fill:#0173b2;stroke:#0173b2;" x="226.235649" xlink:href="#m1ecf4d2a87" y="486.773525"/>
     <use style="fill:#0173b2;stroke:#0173b2;" x="228.512845" xlink:href="#m1ecf4d2a87" y="464.397542"/>
     <use style="fill:#0173b2;stroke:#0173b2;" x="362.161435" xlink:href="#m1ecf4d2a87" y="371.855756"/>
     <use style="fill:#0173b2;stroke:#0173b2;" x="247.423886" xlink:href="#m1ecf4d2a87" y="489.428413"/>
     <use style="fill:#0173b2;stroke:#0173b2;" x="447.124615" xlink:href="#m1ecf4d2a87" y="322.863046"/>
     <use style="fill:#0173b2;stroke:#0173b2;" x="311.477238" xlink:href="#m1ecf4d2a87" y="478.645952"/>
     <use style="fill:#0173b2;stroke:#0173b2;" x="266.494316" xlink:href="#m1ecf4d2a87" y="380.021208"/>
     <use style="fill:#0173b2;stroke:#0173b2;" x="453.029273" xlink:href="#m1ecf4d2a87" y="306.532143"/>
     <use style="fill:#0173b2;stroke:#0173b2;" x="479.574686" xlink:href="#m1ecf4d2a87" y="314.697594"/>
     <use style="fill:#0173b2;stroke:#0173b2;" x="410.902163" xlink:href="#m1ecf4d2a87" y="371.855756"/>
     <use style="fill:#0173b2;stroke:#0173b2;" x="428.700456" xlink:href="#m1ecf4d2a87" y="399.073928"/>
     <use style="fill:#0173b2;stroke:#0173b2;" x="437.933129" xlink:href="#m1ecf4d2a87" y="257.539432"/>
     <use style="fill:#0173b2;stroke:#0173b2;" x="463.774454" xlink:href="#m1ecf4d2a87" y="429.013918"/>
     <use style="fill:#0173b2;stroke:#0173b2;" x="283.843019" xlink:href="#m1ecf4d2a87" y="412.683014"/>
     <use style="fill:#0173b2;stroke:#0173b2;" x="295.918792" xlink:href="#m1ecf4d2a87" y="412.683014"/>
     <use style="fill:#0173b2;stroke:#0173b2;" x="413.72075" xlink:href="#m1ecf4d2a87" y="306.532143"/>
     <use style="fill:#0173b2;stroke:#0173b2;" x="417.249227" xlink:href="#m1ecf4d2a87" y="292.923056"/>
     <use style="fill:#0173b2;stroke:#0173b2;" x="248.089505" xlink:href="#m1ecf4d2a87" y="478.645952"/>
     <use style="fill:#0173b2;stroke:#0173b2;" x="250.92173" xlink:href="#m1ecf4d2a87" y="371.855756"/>
     <use style="fill:#0173b2;stroke:#0173b2;" x="418.950756" xlink:href="#m1ecf4d2a87" y="200.381271"/>
     <use style="fill:#0173b2;stroke:#0173b2;" x="498.484582" xlink:href="#m1ecf4d2a87" y="350.081218"/>
     <use style="fill:#0173b2;stroke:#0173b2;" x="363.508658" xlink:href="#m1ecf4d2a87" y="265.704884"/>
     <use style="fill:#0173b2;stroke:#0173b2;" x="373.058436" xlink:href="#m1ecf4d2a87" y="456.23209"/>
     <use style="fill:#0173b2;stroke:#0173b2;" x="589.034291" xlink:href="#m1ecf4d2a87" y="249.373981"/>
     <use style="fill:#0173b2;stroke:#0173b2;" x="393.866548" xlink:href="#m1ecf4d2a87" y="341.915766"/>
     <use style="fill:#0173b2;stroke:#0173b2;" x="550.133664" xlink:href="#m1ecf4d2a87" y="341.915766"/>
     <use style="fill:#0173b2;stroke:#0173b2;" x="394.933515" xlink:href="#m1ecf4d2a87" y="380.021208"/>
     <use style="fill:#0173b2;stroke:#0173b2;" x="282.529046" xlink:href="#m1ecf4d2a87" y="298.366691"/>
     <use style="fill:#0173b2;stroke:#0173b2;" x="412.300484" xlink:href="#m1ecf4d2a87" y="235.764895"/>
     <use style="fill:#0173b2;stroke:#0173b2;" x="566.594453" xlink:href="#m1ecf4d2a87" y="235.764895"/>
     <use style="fill:#0173b2;stroke:#0173b2;" x="346.722386" xlink:href="#m1ecf4d2a87" y="355.524853"/>
     <use style="fill:#0173b2;stroke:#0173b2;" x="315.922097" xlink:href="#m1ecf4d2a87" y="298.366691"/>
     <use style="fill:#0173b2;stroke:#0173b2;" x="540.55446" xlink:href="#m1ecf4d2a87" y="292.923056"/>
     <use style="fill:#0173b2;stroke:#0173b2;" x="481.866859" xlink:href="#m1ecf4d2a87" y="243.930346"/>
     <use style="fill:#0173b2;stroke:#0173b2;" x="625.609491" xlink:href="#m1ecf4d2a87" y="284.757605"/>
     <use style="fill:#0173b2;stroke:#0173b2;" x="432.417798" xlink:href="#m1ecf4d2a87" y="407.23938"/>
     <use style="fill:#0173b2;stroke:#0173b2;" x="602.825382" xlink:href="#m1ecf4d2a87" y="249.373981"/>
     <use style="fill:#0173b2;stroke:#0173b2;" x="634.303033" xlink:href="#m1ecf4d2a87" y="314.697594"/>
     <use style="fill:#0173b2;stroke:#0173b2;" x="492.453329" xlink:href="#m1ecf4d2a87" y="208.546722"/>
     <use style="fill:#0173b2;stroke:#0173b2;" x="402.245685" xlink:href="#m1ecf4d2a87" y="412.683014"/>
     <use style="fill:#0173b2;stroke:#0173b2;" x="450.503667" xlink:href="#m1ecf4d2a87" y="306.532143"/>
     <use style="fill:#0173b2;stroke:#0173b2;" x="529.417257" xlink:href="#m1ecf4d2a87" y="151.388561"/>
     <use style="fill:#0173b2;stroke:#0173b2;" x="459.923842" xlink:href="#m1ecf4d2a87" y="249.373981"/>
     <use style="fill:#0173b2;stroke:#0173b2;" x="211.997486" xlink:href="#m1ecf4d2a87" y="371.855756"/>
     <use style="fill:#0173b2;stroke:#0173b2;" x="204.431822" xlink:href="#m1ecf4d2a87" y="486.773525"/>
     <use style="fill:#0173b2;stroke:#0173b2;" x="375.276181" xlink:href="#m1ecf4d2a87" y="371.855756"/>
     <use style="fill:#0173b2;stroke:#0173b2;" x="257.43681" xlink:href="#m1ecf4d2a87" y="464.397542"/>
     <use style="fill:#0173b2;stroke:#0173b2;" x="387.286133" xlink:href="#m1ecf4d2a87" y="371.855756"/>
     <use style="fill:#0173b2;stroke:#0173b2;" x="525.078751" xlink:href="#m1ecf4d2a87" y="314.697594"/>
     <use style="fill:#0173b2;stroke:#0173b2;" x="285.955475" xlink:href="#m1ecf4d2a87" y="486.773525"/>
     <use style="fill:#0173b2;stroke:#0173b2;" x="285.280387" xlink:href="#m1ecf4d2a87" y="456.23209"/>
     <use style="fill:#0173b2;stroke:#0173b2;" x="249.872905" xlink:href="#m1ecf4d2a87" y="420.848466"/>
     <use style="fill:#0173b2;stroke:#0173b2;" x="397.552431" xlink:href="#m1ecf4d2a87" y="380.021208"/>
     <use style="fill:#0173b2;stroke:#0173b2;" x="366.106957" xlink:href="#m1ecf4d2a87" y="420.848466"/>
     <use style="fill:#0173b2;stroke:#0173b2;" x="397.384049" xlink:href="#m1ecf4d2a87" y="420.848466"/>
     <use style="fill:#0173b2;stroke:#0173b2;" x="379.661382" xlink:href="#m1ecf4d2a87" y="322.863046"/>
     <use style="fill:#0173b2;stroke:#0173b2;" x="440.225372" xlink:href="#m1ecf4d2a87" y="363.690304"/>
     <use style="fill:#0173b2;stroke:#0173b2;" x="346.640106" xlink:href="#m1ecf4d2a87" y="350.081218"/>
     <use style="fill:#0173b2;stroke:#0173b2;" x="325.230615" xlink:href="#m1ecf4d2a87" y="306.532143"/>
     <use style="fill:#0173b2;stroke:#0173b2;" x="562.556184" xlink:href="#m1ecf4d2a87" y="192.215819"/>
     <use style="fill:#0173b2;stroke:#0173b2;" x="430.986368" xlink:href="#m1ecf4d2a87" y="358.24667"/>
     <use style="fill:#0173b2;stroke:#0173b2;" x="416.25838" xlink:href="#m1ecf4d2a87" y="306.532143"/>
     <use style="fill:#0173b2;stroke:#0173b2;" x="355.727249" xlink:href="#m1ecf4d2a87" y="407.23938"/>
     <use style="fill:#0173b2;stroke:#0173b2;" x="530.651498" xlink:href="#m1ecf4d2a87" y="284.757605"/>
     <use style="fill:#0173b2;stroke:#0173b2;" x="570.831373" xlink:href="#m1ecf4d2a87" y="208.546722"/>
     <use style="fill:#0173b2;stroke:#0173b2;" x="334.755998" xlink:href="#m1ecf4d2a87" y="456.23209"/>
     <use style="fill:#0173b2;stroke:#0173b2;" x="312.574823" xlink:href="#m1ecf4d2a87" y="380.021208"/>
     <use style="fill:#0173b2;stroke:#0173b2;" x="306.900918" xlink:href="#m1ecf4d2a87" y="478.645952"/>
     <use style="fill:#0173b2;stroke:#0173b2;" x="349.702061" xlink:href="#m1ecf4d2a87" y="429.013918"/>
     <use style="fill:#0173b2;stroke:#0173b2;" x="321.180192" xlink:href="#m1ecf4d2a87" y="371.855756"/>
     <use style="fill:#0173b2;stroke:#0173b2;" x="327.484802" xlink:href="#m1ecf4d2a87" y="363.690304"/>
     <use style="fill:#0173b2;stroke:#0173b2;" x="382.568502" xlink:href="#m1ecf4d2a87" y="341.915766"/>
     <use style="fill:#0173b2;stroke:#0173b2;" x="308.21984" xlink:href="#m1ecf4d2a87" y="412.683014"/>
     <use style="fill:#0173b2;stroke:#0173b2;" x="489.054834" xlink:href="#m1ecf4d2a87" y="350.081218"/>
     <use style="fill:#0173b2;stroke:#0173b2;" x="450.197623" xlink:href="#m1ecf4d2a87" y="306.532143"/>
     <use style="fill:#0173b2;stroke:#0173b2;" x="413.302809" xlink:href="#m1ecf4d2a87" y="257.539432"/>
     <use style="fill:#0173b2;stroke:#0173b2;" x="530.750245" xlink:href="#m1ecf4d2a87" y="249.373981"/>
     <use style="fill:#0173b2;stroke:#0173b2;" x="489.588707" xlink:href="#m1ecf4d2a87" y="178.606733"/>
     <use style="fill:#0173b2;stroke:#0173b2;" x="354.196205" xlink:href="#m1ecf4d2a87" y="399.073928"/>
     <use style="fill:#0173b2;stroke:#0173b2;" x="323.537997" xlink:href="#m1ecf4d2a87" y="363.690304"/>
     <use style="fill:#0173b2;stroke:#0173b2;" x="517.677048" xlink:href="#m1ecf4d2a87" y="143.223109"/>
     <use style="fill:#0173b2;stroke:#0173b2;" x="427.262265" xlink:href="#m1ecf4d2a87" y="301.088508"/>
     <use style="fill:#0173b2;stroke:#0173b2;" x="529.871516" xlink:href="#m1ecf4d2a87" y="227.599443"/>
     <use style="fill:#0173b2;stroke:#0173b2;" x="476.397399" xlink:href="#m1ecf4d2a87" y="322.863046"/>
     <use style="fill:#0173b2;stroke:#0173b2;" x="492.280027" xlink:href="#m1ecf4d2a87" y="208.546722"/>
     <use style="fill:#0173b2;stroke:#0173b2;" x="409.012617" xlink:href="#m1ecf4d2a87" y="380.021208"/>
     <use style="fill:#0173b2;stroke:#0173b2;" x="483.530303" xlink:href="#m1ecf4d2a87" y="200.381271"/>
     <use style="fill:#0173b2;stroke:#0173b2;" x="420.145105" xlink:href="#m1ecf4d2a87" y="355.524853"/>
     <use style="fill:#0173b2;stroke:#0173b2;" x="401.597961" xlink:href="#m1ecf4d2a87" y="249.373981"/>
     <use style="fill:#0173b2;stroke:#0173b2;" x="368.170366" xlink:href="#m1ecf4d2a87" y="464.397542"/>
     <use style="fill:#0173b2;stroke:#0173b2;" x="535.6632" xlink:href="#m1ecf4d2a87" y="322.863046"/>
     <use style="fill:#0173b2;stroke:#0173b2;" x="368.587086" xlink:href="#m1ecf4d2a87" y="265.704884"/>
     <use style="fill:#0173b2;stroke:#0173b2;" x="322.41332" xlink:href="#m1ecf4d2a87" y="306.532143"/>
     <use style="fill:#0173b2;stroke:#0173b2;" x="280.077614" xlink:href="#m1ecf4d2a87" y="456.23209"/>
     <use style="fill:#0173b2;stroke:#0173b2;" x="453.32965" xlink:href="#m1ecf4d2a87" y="341.915766"/>
     <use style="fill:#0173b2;stroke:#0173b2;" x="582.641125" xlink:href="#m1ecf4d2a87" y="178.606733"/>
     <use style="fill:#0173b2;stroke:#0173b2;" x="402.983706" xlink:href="#m1ecf4d2a87" y="235.764895"/>
     <use style="fill:#0173b2;stroke:#0173b2;" x="569.174947" xlink:href="#m1ecf4d2a87" y="284.757605"/>
     <use style="fill:#0173b2;stroke:#0173b2;" x="451.024233" xlink:href="#m1ecf4d2a87" y="350.081218"/>
     <use style="fill:#0173b2;stroke:#0173b2;" x="438.411193" xlink:href="#m1ecf4d2a87" y="322.863046"/>
     <use style="fill:#0173b2;stroke:#0173b2;" x="421.152646" xlink:href="#m1ecf4d2a87" y="292.923056"/>
     <use style="fill:#0173b2;stroke:#0173b2;" x="600.409746" xlink:href="#m1ecf4d2a87" y="151.388561"/>
     <use style="fill:#0173b2;stroke:#0173b2;" x="563.701266" xlink:href="#m1ecf4d2a87" y="86.064947"/>
     <use style="fill:#0173b2;stroke:#0173b2;" x="357.288419" xlink:href="#m1ecf4d2a87" y="412.683014"/>
    </g>
   </g>
   <g id="line2d_10">
    <path clip-path="url(#p93006b7174)" d="M 204.431822 531.21548 
L 634.303033 104.117632 
" style="fill:none;stroke:#0173b2;stroke-dasharray:1.5,2.475;stroke-dashoffset:0;stroke-width:1.5;"/>
   </g>
   <g id="patch_3">
    <path d="M 118.05 617.04 
L 118.05 7.2 
" style="fill:none;stroke:#cccccc;stroke-linecap:square;stroke-linejoin:miter;stroke-width:1.25;"/>
   </g>
   <g id="patch_4">
    <path d="M 731.85 617.04 
L 731.85 7.2 
" style="fill:none;stroke:#cccccc;stroke-linecap:square;stroke-linejoin:miter;stroke-width:1.25;"/>
   </g>
   <g id="patch_5">
    <path d="M 118.05 617.04 
L 731.85 617.04 
" style="fill:none;stroke:#cccccc;stroke-linecap:square;stroke-linejoin:miter;stroke-width:1.25;"/>
   </g>
   <g id="patch_6">
    <path d="M 118.05 7.2 
L 731.85 7.2 
" style="fill:none;stroke:#cccccc;stroke-linecap:square;stroke-linejoin:miter;stroke-width:1.25;"/>
   </g>
  </g>
 </g>
 <defs>
  <clipPath id="p93006b7174">
   <rect height="609.84" width="613.8" x="118.05" y="7.2"/>
  </clipPath>
 </defs>
</svg>
